<svg width="424" height="1577" viewBox="0 0 424 1577" fill="none" xmlns="http://www.w3.org/2000/svg">
<path d="M0 90.3672C0 72.6941 14.3269 58.3672 32 58.3672C49.6731 58.3672 64 72.6941 64 90.3672V222.184C64 229.916 70.268 236.184 78 236.184C85.732 236.184 92 229.916 92 222.184V211.677C92 204.221 98.0442 198.177 105.5 198.177C112.956 198.177 119 204.221 119 211.677V252.831C119 258.63 123.701 263.331 129.5 263.331C135.299 263.331 140 258.63 140 252.831V47.0754C140 33.8206 150.745 23.0754 164 23.0754C177.255 23.0754 188 33.8206 188 47.0754V167.748C188 181.555 199.193 192.748 213 192.748C226.807 192.748 238 181.555 238 167.748V126.944C238 107.062 254.118 90.9442 274 90.9442C293.882 90.9442 310 107.062 310 126.944V154C310 165.046 318.954 174 330 174C341.046 174 350 165.046 350 154V26.5C350 11.8645 361.864 0 376.5 0C391.136 0 403 11.8645 403 26.5V163.5C403 169.299 407.701 174 413.5 174C419.299 174 424 178.701 424 184.5V300C424 300.669 423.988 301.336 423.966 302H424V1486.22C424 1503.89 409.673 1518.22 392 1518.22C374.327 1518.22 360 1503.89 360 1486.22V1354.4C360 1346.67 353.732 1340.4 346 1340.4C338.268 1340.4 332 1346.67 332 1354.4V1364.91C332 1372.36 325.956 1378.41 318.5 1378.41C311.044 1378.41 305 1372.36 305 1364.91V1323.75C305 1317.95 300.299 1313.25 294.5 1313.25C288.701 1313.25 284 1317.95 284 1323.75V1529.51C284 1542.76 273.255 1553.51 260 1553.51C246.745 1553.51 236 1542.76 236 1529.51V1408.84C236 1395.03 224.807 1383.84 211 1383.84C197.193 1383.84 186 1395.03 186 1408.84V1449.64C186 1469.52 169.882 1485.64 150 1485.64C130.118 1485.64 114 1469.52 114 1449.64V1422.58C114 1411.54 105.046 1402.58 94 1402.58C82.9543 1402.58 74 1411.54 74 1422.58V1550.08C74 1564.72 62.1355 1576.58 47.5 1576.58C32.8645 1576.58 21 1564.72 21 1550.08V1413.08C21 1407.28 16.299 1402.58 10.5 1402.58C4.70101 1402.58 0 1397.88 0 1392.08V90.3672Z" fill="#FCCB4E"/>
</svg>
