<svg width="22" height="27" viewBox="0 0 22 27" fill="none" xmlns="http://www.w3.org/2000/svg">
<path d="M10.8483 6.79052C12.2559 6.79052 13.4908 6.2298 14.5529 5.10832C15.6149 3.98685 16.146 2.68277 16.146 1.19609C16.146 1.03281 16.1333 0.800779 16.1081 0.5C15.9226 0.525781 15.7835 0.547265 15.6908 0.564453C14.3927 0.753514 13.2506 1.40234 12.2644 2.51089C11.2782 3.61948 10.7851 4.80541 10.7851 6.06868C10.7851 6.21475 10.8061 6.4554 10.8483 6.79052ZM15.8931 26.5C16.8962 26.5 18.0046 25.7996 19.2184 24.3989C20.4322 22.9981 21.3594 21.3524 22 19.4618C19.6146 18.2072 18.4218 16.4068 18.4218 14.0607C18.4218 12.1014 19.387 10.4257 21.3172 9.03347C19.977 7.32333 18.2069 6.46826 16.0069 6.46826C15.0797 6.46826 14.2326 6.61006 13.4655 6.89365L12.9851 7.07411L12.3402 7.33192C11.9188 7.4952 11.5352 7.57687 11.1897 7.57687C10.9199 7.57687 10.5659 7.48231 10.1276 7.29325L9.63447 7.087L9.16668 6.89365C8.4839 6.60146 7.75057 6.45537 6.96668 6.45537C4.86782 6.45537 3.18201 7.17724 1.9092 8.62098C0.63639 10.0647 0 11.9682 0 14.3314C0 17.6572 1.01991 20.7294 3.05977 23.5481C4.47587 25.516 5.76974 26.5 6.94138 26.5C7.43871 26.5 7.9318 26.4012 8.42069 26.2035L9.04023 25.9457L9.53335 25.7652C10.2245 25.516 10.8609 25.3914 11.4425 25.3914C12.0579 25.3914 12.7659 25.5504 13.5667 25.8684L13.9586 26.0231C14.7762 26.341 15.4211 26.5 15.8931 26.5Z" fill="white"/>
</svg>
