<svg width="28" height="28" viewBox="0 0 28 28" fill="none" xmlns="http://www.w3.org/2000/svg">
<path fill-rule="evenodd" clip-rule="evenodd" d="M14 4.5C8.75329 4.5 4.5 8.75329 4.5 14C4.5 19.2467 8.75329 23.5 14 23.5C19.2467 23.5 23.5 19.2467 23.5 14C23.5 8.75329 19.2467 4.5 14 4.5ZM2.5 14C2.5 7.64873 7.64873 2.5 14 2.5C20.3513 2.5 25.5 7.64873 25.5 14C25.5 20.3513 20.3513 25.5 14 25.5C7.64873 25.5 2.5 20.3513 2.5 14ZM14.7071 8.62623C15.0976 9.01675 15.0976 9.64992 14.7071 10.0404L11.7475 13H18.6667C19.219 13 19.6667 13.4477 19.6667 14C19.6667 14.5523 19.219 15 18.6667 15H11.7475L14.7071 17.9596C15.0976 18.3501 15.0976 18.9832 14.7071 19.3738C14.3166 19.7643 13.6834 19.7643 13.2929 19.3738L8.62623 14.7071C8.43869 14.5196 8.33333 14.2652 8.33333 14C8.33333 13.7348 8.43869 13.4804 8.62623 13.2929L13.2929 8.62623C13.6834 8.2357 14.3166 8.2357 14.7071 8.62623Z" fill="white"/>
</svg>
