<svg width="390" height="466" viewBox="0 0 390 466" fill="none" xmlns="http://www.w3.org/2000/svg">
<g opacity="0.2">
<path fill-rule="evenodd" clip-rule="evenodd" d="M-14.5761 40.8749C-14.5761 37.7745 -12.0628 35.2612 -8.96249 35.2612C-5.86217 35.2612 -3.34886 37.7745 -3.34886 40.8749V169.295C-3.34886 171.144 -1.84957 172.644 -0.000110626 172.644C1.84935 172.644 3.34863 171.144 3.34863 169.295V122.496C3.34863 119.396 5.86195 116.883 8.96227 116.883C12.0626 116.883 14.5759 119.396 14.5759 122.496V169.295C14.5759 171.144 16.0752 172.644 17.9247 172.644C19.7741 172.644 21.2734 171.144 21.2734 169.295V105.527C21.2734 102.426 23.7868 99.9129 26.8871 99.9129C29.9874 99.9129 32.5007 102.426 32.5007 105.527V358.558C32.5007 361.658 29.9874 364.171 26.8871 364.171C23.7868 364.171 21.2734 361.658 21.2734 358.558V285.09C21.2734 283.24 19.7741 281.741 17.9247 281.741C16.0752 281.741 14.5759 283.24 14.5759 285.09V327.848C14.5759 330.948 12.0626 333.461 8.96227 333.461C5.86195 333.461 3.34863 330.948 3.34863 327.848V272.968C3.34863 271.118 1.84935 269.619 -0.000110626 269.619C-1.84957 269.619 -3.34886 271.118 -3.34886 272.968V312.493C-3.34886 315.593 -5.86217 318.107 -8.96249 318.107C-12.0628 318.107 -14.5761 315.593 -14.5761 312.493V264.079C-14.5761 262.23 -16.0753 260.731 -17.9247 260.731C-19.774 260.731 -21.2732 262.23 -21.2732 264.079V317.342C-21.2732 320.442 -23.7865 322.956 -26.8869 322.956C-29.9872 322.956 -32.5005 320.442 -32.5005 317.342V82.0898C-32.5005 78.9895 -29.9872 76.4761 -26.8869 76.4761C-23.7865 76.4761 -21.2732 78.9894 -21.2732 82.0898V126.465C-21.2732 128.315 -19.774 129.814 -17.9247 129.814C-16.0753 129.814 -14.5761 128.315 -14.5761 126.465V40.8749Z" fill="#FFE194"/>
<path fill-rule="evenodd" clip-rule="evenodd" d="M50.424 127.815C50.424 124.714 52.9373 122.201 56.0377 122.201C59.138 122.201 61.6513 124.714 61.6513 127.815V183.608C61.6513 185.457 63.1506 186.956 65 186.956C66.8494 186.956 68.3486 185.457 68.3486 183.608V166.287C68.3486 163.187 70.8619 160.674 73.9623 160.674C77.0626 160.674 79.5759 163.187 79.5759 166.287V183.608C79.5759 185.457 81.075 186.956 82.9242 186.956C84.7734 186.956 86.2725 185.457 86.2725 183.608V158.289C86.2725 155.189 88.7858 152.675 91.8861 152.675C94.9864 152.675 97.4997 155.189 97.4997 158.289V271.62C97.4997 274.72 94.9864 277.233 91.8861 277.233C88.7858 277.233 86.2725 274.72 86.2725 271.62V241.728C86.2725 239.878 84.7734 238.379 82.9242 238.379C81.075 238.379 79.5759 239.878 79.5759 241.728V257.144C79.5759 260.245 77.0626 262.758 73.9623 262.758C70.8619 262.758 68.3486 260.245 68.3486 257.144V236.014C68.3486 234.165 66.8494 232.666 65 232.666C63.1506 232.666 61.6513 234.165 61.6513 236.014V249.906C61.6513 253.007 59.138 255.52 56.0377 255.52C52.9373 255.52 50.424 253.007 50.424 249.906V231.823C50.424 229.974 48.925 228.475 47.0759 228.475C45.2268 228.475 43.7278 229.974 43.7278 231.823V252.193C43.7278 255.293 41.2145 257.806 38.1141 257.806C35.0138 257.806 32.5005 255.293 32.5005 252.193V147.242C32.5005 144.142 35.0138 141.628 38.1141 141.628C41.2145 141.628 43.7278 144.142 43.7278 147.242V163.419C43.7278 165.268 45.2268 166.767 47.0759 166.767C48.925 166.767 50.424 165.268 50.424 163.419V127.815Z" fill="#FFE194"/>
<path fill-rule="evenodd" clip-rule="evenodd" d="M115.425 127.815C115.425 124.714 117.938 122.201 121.038 122.201C124.139 122.201 126.652 124.714 126.652 127.815V183.608C126.652 185.457 128.151 186.956 130 186.956C131.85 186.956 133.349 185.457 133.349 183.608V166.287C133.349 163.187 135.862 160.674 138.962 160.674C142.063 160.674 144.576 163.187 144.576 166.287V183.608C144.576 185.457 146.075 186.956 147.924 186.956C149.774 186.956 151.273 185.457 151.273 183.608V158.289C151.273 155.189 153.786 152.675 156.887 152.675C159.987 152.675 162.5 155.189 162.5 158.289V271.62C162.5 274.72 159.987 277.233 156.887 277.233C153.786 277.233 151.273 274.72 151.273 271.62V241.728C151.273 239.879 149.774 238.379 147.924 238.379C146.075 238.379 144.576 239.879 144.576 241.728V257.144C144.576 260.245 142.063 262.758 138.962 262.758C135.862 262.758 133.349 260.245 133.349 257.144V236.014C133.349 234.165 131.85 232.666 130 232.666C128.151 232.666 126.652 234.165 126.652 236.014V249.906C126.652 253.007 124.139 255.52 121.038 255.52C117.938 255.52 115.425 253.007 115.425 249.906V231.823C115.425 229.974 113.925 228.475 112.076 228.475C110.227 228.475 108.727 229.974 108.727 231.823V252.193C108.727 255.293 106.214 257.806 103.114 257.806C100.013 257.806 97.5 255.293 97.5 252.193V147.242C97.5 144.142 100.013 141.628 103.114 141.628C106.214 141.628 108.727 144.142 108.727 147.242V163.418C108.727 165.268 110.227 166.767 112.076 166.767C113.925 166.767 115.425 165.268 115.425 163.418V127.815Z" fill="#FFE194"/>
<path fill-rule="evenodd" clip-rule="evenodd" d="M180.424 5.61364C180.424 2.51331 182.937 0 186.038 0C189.138 0 191.651 2.5133 191.651 5.61362V163.491C191.651 165.34 193.15 166.84 195 166.84C196.849 166.84 198.349 165.34 198.349 163.491V104.736C198.349 101.636 200.862 99.1224 203.962 99.1224C207.063 99.1224 209.576 101.636 209.576 104.736V163.491C209.576 165.34 211.075 166.84 212.925 166.84C214.774 166.84 216.273 165.34 216.273 163.491V84.126C216.273 81.0257 218.787 78.5124 221.887 78.5124C224.987 78.5124 227.501 81.0257 227.501 84.126V393.819C227.501 396.919 224.987 399.432 221.887 399.432C218.787 399.432 216.273 396.919 216.273 393.819V302.678C216.273 300.829 214.774 299.329 212.925 299.329C211.075 299.329 209.576 300.829 209.576 302.678V356.526C209.576 359.626 207.063 362.139 203.962 362.139C200.862 362.139 198.349 359.626 198.349 356.526V287.957C198.349 286.108 196.849 284.608 195 284.608C193.15 284.608 191.651 286.108 191.651 287.957V337.879C191.651 340.979 189.138 343.492 186.038 343.492C182.937 343.492 180.424 340.979 180.424 337.879V277.161C180.424 275.312 178.925 273.813 177.075 273.813C175.226 273.813 173.727 275.312 173.727 277.161V343.767C173.727 346.868 171.213 349.381 168.113 349.381C165.013 349.381 162.5 346.868 162.5 343.767V55.6657C162.5 52.5653 165.013 50.052 168.113 50.052C171.213 50.052 173.727 52.5653 173.727 55.6657V111.477C173.727 113.326 175.226 114.825 177.075 114.825C178.925 114.825 180.424 113.326 180.424 111.477V5.61364Z" fill="#FFE194"/>
<path fill-rule="evenodd" clip-rule="evenodd" d="M245.424 127.815C245.424 124.714 247.937 122.201 251.038 122.201C254.138 122.201 256.651 124.714 256.651 127.815V183.607C256.651 185.457 258.151 186.956 260 186.956C261.85 186.956 263.349 185.457 263.349 183.607V166.287C263.349 163.187 265.862 160.674 268.963 160.674C272.063 160.674 274.576 163.187 274.576 166.287V183.608C274.576 185.457 276.075 186.956 277.924 186.956C279.773 186.956 281.272 185.457 281.272 183.608V158.289C281.272 155.189 283.786 152.675 286.886 152.675C289.986 152.675 292.5 155.189 292.5 158.289V271.62C292.5 274.72 289.986 277.233 286.886 277.233C283.786 277.233 281.272 274.72 281.272 271.62V241.727C281.272 239.878 279.773 238.379 277.924 238.379C276.075 238.379 274.576 239.878 274.576 241.727V257.144C274.576 260.245 272.063 262.758 268.963 262.758C265.862 262.758 263.349 260.245 263.349 257.144V236.015C263.349 234.165 261.85 232.666 260 232.666C258.151 232.666 256.651 234.165 256.651 236.015V249.906C256.651 253.007 254.138 255.52 251.038 255.52C247.937 255.52 245.424 253.007 245.424 249.906V231.823C245.424 229.974 243.925 228.475 242.076 228.475C240.227 228.475 238.728 229.974 238.728 231.823V252.193C238.728 255.293 236.214 257.806 233.114 257.806C230.014 257.806 227.5 255.293 227.5 252.193V147.242C227.5 144.142 230.014 141.628 233.114 141.628C236.214 141.628 238.728 144.142 238.728 147.242V163.419C238.728 165.268 240.227 166.767 242.076 166.767C243.925 166.767 245.424 165.268 245.424 163.419V127.815Z" fill="#FFE194"/>
<path fill-rule="evenodd" clip-rule="evenodd" d="M-14.5761 70.7943C-14.5761 67.694 -12.0628 65.1807 -8.96249 65.1807C-5.86217 65.1807 -3.34886 67.694 -3.34886 70.7943V199.214C-3.34886 201.064 -1.84957 202.563 -0.000110626 202.563C1.84935 202.563 3.34863 201.064 3.34863 199.214V152.416C3.34863 149.316 5.86195 146.802 8.96227 146.802C12.0626 146.802 14.5759 149.316 14.5759 152.416V199.214C14.5759 201.064 16.0752 202.563 17.9247 202.563C19.7741 202.563 21.2734 201.064 21.2734 199.214V135.446C21.2734 132.346 23.7868 129.833 26.8871 129.833C29.9874 129.833 32.5007 132.346 32.5007 135.446V388.477C32.5007 391.577 29.9874 394.091 26.8871 394.091C23.7868 394.091 21.2734 391.577 21.2734 388.477V315.009C21.2734 313.16 19.7741 311.661 17.9247 311.661C16.0752 311.661 14.5759 313.16 14.5759 315.009V357.767C14.5759 360.868 12.0626 363.381 8.96227 363.381C5.86195 363.381 3.34863 360.868 3.34863 357.767V302.887C3.34863 301.038 1.84935 299.539 -0.000110626 299.539C-1.84957 299.539 -3.34886 301.038 -3.34886 302.887V342.412C-3.34886 345.513 -5.86217 348.026 -8.96249 348.026C-12.0628 348.026 -14.5761 345.513 -14.5761 342.412V293.999C-14.5761 292.149 -16.0753 290.65 -17.9247 290.65C-19.774 290.65 -21.2732 292.149 -21.2732 293.999V347.262C-21.2732 350.362 -23.7865 352.875 -26.8869 352.875C-29.9872 352.875 -32.5005 350.362 -32.5005 347.262V112.009C-32.5005 108.909 -29.9872 106.396 -26.8869 106.396C-23.7865 106.396 -21.2732 108.909 -21.2732 112.009V156.385C-21.2732 158.234 -19.774 159.733 -17.9247 159.733C-16.0753 159.733 -14.5761 158.234 -14.5761 156.385V70.7943Z" fill="#FCCB4E"/>
<path fill-rule="evenodd" clip-rule="evenodd" d="M50.424 157.734C50.424 154.634 52.9373 152.121 56.0377 152.121C59.138 152.121 61.6513 154.634 61.6513 157.734V213.527C61.6513 215.376 63.1506 216.876 65 216.876C66.8494 216.876 68.3486 215.376 68.3486 213.527V196.207C68.3486 193.106 70.8619 190.593 73.9623 190.593C77.0626 190.593 79.5759 193.106 79.5759 196.207V213.527C79.5759 215.377 81.075 216.876 82.9242 216.876C84.7734 216.876 86.2725 215.377 86.2725 213.527V188.208C86.2725 185.108 88.7858 182.595 91.8861 182.595C94.9864 182.595 97.4997 185.108 97.4997 188.208V301.539C97.4997 304.639 94.9864 307.153 91.8861 307.153C88.7858 307.153 86.2725 304.639 86.2725 301.539V271.647C86.2725 269.798 84.7734 268.299 82.9242 268.299C81.075 268.299 79.5759 269.798 79.5759 271.647V287.064C79.5759 290.164 77.0626 292.677 73.9623 292.677C70.8619 292.677 68.3486 290.164 68.3486 287.064V265.934C68.3486 264.084 66.8494 262.585 65 262.585C63.1506 262.585 61.6513 264.084 61.6513 265.934V279.826C61.6513 282.926 59.138 285.44 56.0377 285.44C52.9373 285.44 50.424 282.926 50.424 279.826V261.742C50.424 259.893 48.925 258.394 47.0759 258.394C45.2268 258.394 43.7278 259.893 43.7278 261.742V282.112C43.7278 285.212 41.2145 287.726 38.1141 287.726C35.0138 287.726 32.5005 285.212 32.5005 282.112V177.161C32.5005 174.061 35.0138 171.548 38.1141 171.548C41.2145 171.548 43.7278 174.061 43.7278 177.161V193.338C43.7278 195.187 45.2268 196.686 47.0759 196.686C48.925 196.686 50.424 195.187 50.424 193.338V157.734Z" fill="#FCCB4E"/>
<path fill-rule="evenodd" clip-rule="evenodd" d="M115.425 157.734C115.425 154.634 117.938 152.121 121.038 152.121C124.139 152.121 126.652 154.634 126.652 157.734V213.527C126.652 215.377 128.151 216.876 130 216.876C131.85 216.876 133.349 215.377 133.349 213.527V196.207C133.349 193.106 135.862 190.593 138.962 190.593C142.063 190.593 144.576 193.106 144.576 196.207V213.527C144.576 215.376 146.075 216.876 147.924 216.876C149.774 216.876 151.273 215.376 151.273 213.527V188.208C151.273 185.108 153.786 182.595 156.887 182.595C159.987 182.595 162.5 185.108 162.5 188.208V301.539C162.5 304.639 159.987 307.153 156.887 307.153C153.786 307.153 151.273 304.639 151.273 301.539V271.647C151.273 269.798 149.774 268.299 147.924 268.299C146.075 268.299 144.576 269.798 144.576 271.647V287.064C144.576 290.164 142.063 292.677 138.962 292.677C135.862 292.677 133.349 290.164 133.349 287.064V265.933C133.349 264.084 131.85 262.585 130 262.585C128.151 262.585 126.652 264.084 126.652 265.933V279.826C126.652 282.926 124.139 285.44 121.038 285.44C117.938 285.44 115.425 282.926 115.425 279.826V261.743C115.425 259.893 113.925 258.394 112.076 258.394C110.227 258.394 108.727 259.893 108.727 261.743V282.112C108.727 285.212 106.214 287.726 103.114 287.726C100.013 287.726 97.5 285.212 97.5 282.112V177.161C97.5 174.061 100.013 171.548 103.114 171.548C106.214 171.548 108.727 174.061 108.727 177.161V193.338C108.727 195.187 110.227 196.686 112.076 196.686C113.925 196.686 115.425 195.187 115.425 193.338V157.734Z" fill="#FCCB4E"/>
<path fill-rule="evenodd" clip-rule="evenodd" d="M180.424 35.5331C180.424 32.4327 182.937 29.9194 186.038 29.9194C189.138 29.9194 191.651 32.4327 191.651 35.5331V193.41C191.651 195.26 193.15 196.759 195 196.759C196.849 196.759 198.349 195.26 198.349 193.41V134.655C198.349 131.555 200.862 129.042 203.962 129.042C207.063 129.042 209.576 131.555 209.576 134.655V193.41C209.576 195.26 211.075 196.759 212.925 196.759C214.774 196.759 216.273 195.26 216.273 193.41V114.045C216.273 110.945 218.787 108.432 221.887 108.432C224.987 108.432 227.501 110.945 227.501 114.045V423.738C227.501 426.838 224.987 429.352 221.887 429.352C218.787 429.352 216.273 426.838 216.273 423.738V332.598C216.273 330.748 214.774 329.249 212.925 329.249C211.075 329.249 209.576 330.748 209.576 332.598V386.445C209.576 389.545 207.063 392.059 203.962 392.059C200.862 392.059 198.349 389.545 198.349 386.445V317.876C198.349 316.027 196.849 314.528 195 314.528C193.15 314.528 191.651 316.027 191.651 317.876V367.798C191.651 370.898 189.138 373.412 186.038 373.412C182.937 373.412 180.424 370.898 180.424 367.798V307.081C180.424 305.231 178.925 303.732 177.075 303.732C175.226 303.732 173.727 305.231 173.727 307.081V373.687C173.727 376.787 171.213 379.3 168.113 379.3C165.013 379.3 162.5 376.787 162.5 373.687V85.585C162.5 82.4847 165.013 79.9714 168.113 79.9714C171.213 79.9714 173.727 82.4847 173.727 85.585V141.396C173.727 143.245 175.226 144.744 177.075 144.744C178.925 144.744 180.424 143.245 180.424 141.396V35.5331Z" fill="#FCCB4E"/>
<path fill-rule="evenodd" clip-rule="evenodd" d="M245.424 157.734C245.424 154.634 247.937 152.121 251.038 152.121C254.138 152.121 256.651 154.634 256.651 157.734V213.527C256.651 215.376 258.151 216.876 260 216.876C261.85 216.876 263.349 215.376 263.349 213.527V196.207C263.349 193.106 265.862 190.593 268.963 190.593C272.063 190.593 274.576 193.106 274.576 196.207V213.528C274.576 215.377 276.075 216.876 277.924 216.876C279.773 216.876 281.272 215.377 281.272 213.528V188.208C281.272 185.108 283.786 182.595 286.886 182.595C289.986 182.595 292.5 185.108 292.5 188.208V301.539C292.5 304.639 289.986 307.153 286.886 307.153C283.786 307.153 281.272 304.639 281.272 301.539V271.647C281.272 269.798 279.773 268.299 277.924 268.299C276.075 268.299 274.576 269.798 274.576 271.647V287.064C274.576 290.164 272.063 292.677 268.963 292.677C265.862 292.677 263.349 290.164 263.349 287.064V265.934C263.349 264.084 261.85 262.585 260 262.585C258.151 262.585 256.651 264.084 256.651 265.934V279.826C256.651 282.926 254.138 285.44 251.038 285.44C247.937 285.44 245.424 282.926 245.424 279.826V261.742C245.424 259.893 243.925 258.394 242.076 258.394C240.227 258.394 238.728 259.893 238.728 261.742V282.112C238.728 285.212 236.214 287.726 233.114 287.726C230.014 287.726 227.5 285.212 227.5 282.112V177.161C227.5 174.061 230.014 171.548 233.114 171.548C236.214 171.548 238.728 174.061 238.728 177.161V193.338C238.728 195.187 240.227 196.686 242.076 196.686C243.925 196.686 245.424 195.187 245.424 193.338V157.734Z" fill="#FCCB4E"/>
<path fill-rule="evenodd" clip-rule="evenodd" d="M-14.5761 106.697C-14.5761 103.597 -12.0628 101.083 -8.96249 101.083C-5.86217 101.083 -3.34886 103.597 -3.34886 106.697V235.117C-3.34886 236.967 -1.84957 238.466 -0.000110626 238.466C1.84935 238.466 3.34863 236.967 3.34863 235.117V188.319C3.34863 185.219 5.86195 182.705 8.96227 182.705C12.0626 182.705 14.5759 185.219 14.5759 188.319V235.117C14.5759 236.967 16.0752 238.466 17.9247 238.466C19.7741 238.466 21.2734 236.967 21.2734 235.117V171.349C21.2734 168.249 23.7868 165.735 26.8871 165.735C29.9874 165.735 32.5007 168.249 32.5007 171.349V424.38C32.5007 427.48 29.9874 429.994 26.8871 429.994C23.7868 429.994 21.2734 427.48 21.2734 424.38V350.912C21.2734 349.063 19.7741 347.564 17.9247 347.564C16.0752 347.564 14.5759 349.063 14.5759 350.912V393.67C14.5759 396.771 12.0626 399.284 8.96227 399.284C5.86195 399.284 3.34863 396.771 3.34863 393.67V338.79C3.34863 336.941 1.84935 335.442 -0.000110626 335.442C-1.84957 335.442 -3.34886 336.941 -3.34886 338.79V378.315C-3.34886 381.415 -5.86217 383.929 -8.96249 383.929C-12.0628 383.929 -14.5761 381.415 -14.5761 378.315V329.902C-14.5761 328.052 -16.0753 326.553 -17.9247 326.553C-19.774 326.553 -21.2732 328.052 -21.2732 329.902V383.164C-21.2732 386.265 -23.7865 388.778 -26.8869 388.778C-29.9872 388.778 -32.5005 386.265 -32.5005 383.164V147.912C-32.5005 144.812 -29.9872 142.299 -26.8869 142.299C-23.7865 142.299 -21.2732 144.812 -21.2732 147.912V192.288C-21.2732 194.137 -19.774 195.636 -17.9247 195.636C-16.0753 195.636 -14.5761 194.137 -14.5761 192.288V106.697Z" fill="#BB4DCD"/>
<path fill-rule="evenodd" clip-rule="evenodd" d="M50.424 193.637C50.424 190.537 52.9373 188.023 56.0377 188.023C59.138 188.023 61.6513 190.537 61.6513 193.637V249.43C61.6513 251.279 63.1506 252.779 65 252.779C66.8494 252.779 68.3486 251.279 68.3486 249.43V232.11C68.3486 229.009 70.8619 226.496 73.9623 226.496C77.0626 226.496 79.5759 229.009 79.5759 232.11V249.43C79.5759 251.279 81.075 252.779 82.9242 252.779C84.7734 252.779 86.2725 251.279 86.2725 249.43V224.111C86.2725 221.011 88.7858 218.497 91.8861 218.497C94.9864 218.497 97.4997 221.011 97.4997 224.111V337.442C97.4997 340.542 94.9864 343.055 91.8861 343.055C88.7858 343.055 86.2725 340.542 86.2725 337.442V307.55C86.2725 305.701 84.7734 304.202 82.9242 304.202C81.075 304.202 79.5759 305.701 79.5759 307.55V322.967C79.5759 326.067 77.0626 328.58 73.9623 328.58C70.8619 328.58 68.3486 326.067 68.3486 322.967V301.837C68.3486 299.987 66.8494 298.488 65 298.488C63.1506 298.488 61.6513 299.987 61.6513 301.837V315.729C61.6513 318.829 59.138 321.342 56.0377 321.342C52.9373 321.342 50.424 318.829 50.424 315.729V297.645C50.424 295.796 48.925 294.297 47.0759 294.297C45.2268 294.297 43.7278 295.796 43.7278 297.645V318.015C43.7278 321.115 41.2145 323.629 38.1141 323.629C35.0138 323.629 32.5005 321.115 32.5005 318.015V213.064C32.5005 209.964 35.0138 207.451 38.1141 207.451C41.2145 207.451 43.7278 209.964 43.7278 213.064V229.241C43.7278 231.09 45.2268 232.589 47.0759 232.589C48.925 232.589 50.424 231.09 50.424 229.241V193.637Z" fill="#BB4DCD"/>
<path fill-rule="evenodd" clip-rule="evenodd" d="M115.425 193.637C115.425 190.537 117.938 188.023 121.038 188.023C124.139 188.023 126.652 190.537 126.652 193.637V249.43C126.652 251.279 128.151 252.779 130 252.779C131.85 252.779 133.349 251.279 133.349 249.43V232.11C133.349 229.009 135.862 226.496 138.962 226.496C142.063 226.496 144.576 229.009 144.576 232.11V249.43C144.576 251.279 146.075 252.779 147.924 252.779C149.774 252.779 151.273 251.279 151.273 249.43V224.111C151.273 221.011 153.786 218.497 156.887 218.497C159.987 218.497 162.5 221.011 162.5 224.111V337.442C162.5 340.542 159.987 343.055 156.887 343.055C153.786 343.055 151.273 340.542 151.273 337.442V307.55C151.273 305.701 149.774 304.202 147.924 304.202C146.075 304.202 144.576 305.701 144.576 307.55V322.967C144.576 326.067 142.063 328.58 138.962 328.58C135.862 328.58 133.349 326.067 133.349 322.967V301.836C133.349 299.987 131.85 298.488 130 298.488C128.151 298.488 126.652 299.987 126.652 301.836V315.729C126.652 318.829 124.139 321.342 121.038 321.342C117.938 321.342 115.425 318.829 115.425 315.729V297.646C115.425 295.796 113.925 294.297 112.076 294.297C110.227 294.297 108.727 295.796 108.727 297.646V318.015C108.727 321.115 106.214 323.629 103.114 323.629C100.013 323.629 97.5 321.115 97.5 318.015V213.064C97.5 209.964 100.013 207.451 103.114 207.451C106.214 207.451 108.727 209.964 108.727 213.064V229.241C108.727 231.09 110.227 232.589 112.076 232.589C113.925 232.589 115.425 231.09 115.425 229.241V193.637Z" fill="#BB4DCD"/>
<path fill-rule="evenodd" clip-rule="evenodd" d="M180.424 71.4359C180.424 68.3356 182.937 65.8223 186.038 65.8223C189.138 65.8223 191.651 68.3356 191.651 71.4359V229.313C191.651 231.163 193.15 232.662 195 232.662C196.849 232.662 198.349 231.163 198.349 229.313V170.558C198.349 167.458 200.862 164.945 203.962 164.945C207.063 164.945 209.576 167.458 209.576 170.558V229.313C209.576 231.163 211.075 232.662 212.925 232.662C214.774 232.662 216.273 231.163 216.273 229.313V149.948C216.273 146.848 218.787 144.335 221.887 144.335C224.987 144.335 227.501 146.848 227.501 149.948V459.641C227.501 462.741 224.987 465.254 221.887 465.254C218.787 465.254 216.273 462.741 216.273 459.641V368.5C216.273 366.651 214.774 365.152 212.925 365.152C211.075 365.152 209.576 366.651 209.576 368.5V422.348C209.576 425.448 207.063 427.961 203.962 427.961C200.862 427.961 198.349 425.448 198.349 422.348V353.779C198.349 351.93 196.849 350.431 195 350.431C193.15 350.431 191.651 351.93 191.651 353.779V403.701C191.651 406.801 189.138 409.314 186.038 409.314C182.937 409.314 180.424 406.801 180.424 403.701V342.984C180.424 341.134 178.925 339.635 177.075 339.635C175.226 339.635 173.727 341.134 173.727 342.984V409.59C173.727 412.69 171.213 415.203 168.113 415.203C165.013 415.203 162.5 412.69 162.5 409.59V121.488C162.5 118.388 165.013 115.874 168.113 115.874C171.213 115.874 173.727 118.388 173.727 121.488V177.299C173.727 179.148 175.226 180.647 177.075 180.647C178.925 180.647 180.424 179.148 180.424 177.299V71.4359Z" fill="#BB4DCD"/>
<path fill-rule="evenodd" clip-rule="evenodd" d="M245.424 193.637C245.424 190.537 247.937 188.023 251.038 188.023C254.138 188.023 256.651 190.537 256.651 193.637V249.43C256.651 251.279 258.151 252.779 260 252.779C261.85 252.779 263.349 251.279 263.349 249.43V232.11C263.349 229.009 265.862 226.496 268.963 226.496C272.063 226.496 274.576 229.009 274.576 232.11V249.431C274.576 251.28 276.075 252.779 277.924 252.779C279.773 252.779 281.272 251.28 281.272 249.431V224.111C281.272 221.011 283.786 218.497 286.886 218.497C289.986 218.497 292.5 221.011 292.5 224.111V337.442C292.5 340.542 289.986 343.055 286.886 343.055C283.786 343.055 281.272 340.542 281.272 337.442V307.55C281.272 305.701 279.773 304.202 277.924 304.202C276.075 304.202 274.576 305.701 274.576 307.55V322.967C274.576 326.067 272.063 328.58 268.963 328.58C265.862 328.58 263.349 326.067 263.349 322.967V301.837C263.349 299.987 261.85 298.488 260 298.488C258.151 298.488 256.651 299.987 256.651 301.837V315.729C256.651 318.829 254.138 321.342 251.038 321.342C247.937 321.342 245.424 318.829 245.424 315.729V297.645C245.424 295.796 243.925 294.297 242.076 294.297C240.227 294.297 238.728 295.796 238.728 297.645V318.015C238.728 321.115 236.214 323.629 233.114 323.629C230.014 323.629 227.5 321.115 227.5 318.015V213.064C227.5 209.964 230.014 207.451 233.114 207.451C236.214 207.451 238.728 209.964 238.728 213.064V229.241C238.728 231.09 240.227 232.589 242.076 232.589C243.925 232.589 245.424 231.09 245.424 229.241V193.637Z" fill="#BB4DCD"/>
<path fill-rule="evenodd" clip-rule="evenodd" d="M310.425 104.712C310.425 101.612 312.938 99.0986 316.038 99.0986C319.139 99.0986 321.652 101.612 321.652 104.712V179.805C321.652 181.654 323.151 183.153 325 183.153C326.85 183.153 328.349 181.654 328.349 179.805V154.651C328.349 151.551 330.862 149.037 333.962 149.037C337.063 149.037 339.576 151.551 339.576 154.651V179.805C339.576 181.654 341.075 183.153 342.924 183.153C344.774 183.153 346.273 181.654 346.273 179.805V144.268C346.273 141.167 348.786 138.654 351.887 138.654C354.987 138.654 357.5 141.167 357.5 144.268V294.722C357.5 297.822 354.987 300.335 351.887 300.335C348.786 300.335 346.273 297.822 346.273 294.722V253.251C346.273 251.402 344.774 249.902 342.924 249.902C341.075 249.902 339.576 251.402 339.576 253.251V275.933C339.576 279.033 337.063 281.547 333.962 281.547C330.862 281.547 328.349 279.033 328.349 275.933V245.834C328.349 243.985 326.85 242.486 325 242.486C323.151 242.486 321.652 243.985 321.652 245.834V266.538C321.652 269.639 319.139 272.152 316.038 272.152C312.938 272.152 310.425 269.639 310.425 266.538V240.396C310.425 238.546 308.925 237.047 307.076 237.047C305.227 237.047 303.727 238.546 303.727 240.396V269.505C303.727 272.605 301.214 275.118 298.114 275.118C295.013 275.118 292.5 272.605 292.5 269.505V129.929C292.5 126.828 295.013 124.315 298.114 124.315C301.214 124.315 303.727 126.828 303.727 129.929V153.599C303.727 155.449 305.227 156.948 307.076 156.948C308.925 156.948 310.425 155.449 310.425 153.599V104.712Z" fill="#FFE194"/>
<path fill-rule="evenodd" clip-rule="evenodd" d="M375.424 40.8749C375.424 37.7745 377.937 35.2612 381.038 35.2612C384.138 35.2612 386.651 37.7745 386.651 40.8749V169.295C386.651 171.144 388.15 172.644 390 172.644C391.849 172.644 393.349 171.144 393.349 169.295V122.496C393.349 119.396 395.862 116.883 398.962 116.883C402.063 116.883 404.576 119.396 404.576 122.496V169.295C404.576 171.144 406.075 172.644 407.925 172.644C409.774 172.644 411.273 171.144 411.273 169.295V105.527C411.273 102.426 413.787 99.9129 416.887 99.9129C419.987 99.9129 422.501 102.426 422.501 105.527V358.558C422.501 361.658 419.987 364.171 416.887 364.171C413.787 364.171 411.273 361.658 411.273 358.558V285.09C411.273 283.24 409.774 281.741 407.925 281.741C406.075 281.741 404.576 283.24 404.576 285.09V327.848C404.576 330.948 402.063 333.461 398.962 333.461C395.862 333.461 393.349 330.948 393.349 327.848V272.968C393.349 271.118 391.849 269.619 390 269.619C388.15 269.619 386.651 271.118 386.651 272.968V312.493C386.651 315.593 384.138 318.107 381.038 318.107C377.937 318.107 375.424 315.593 375.424 312.493V264.079C375.424 262.23 373.925 260.731 372.075 260.731C370.226 260.731 368.727 262.23 368.727 264.079V317.342C368.727 320.442 366.213 322.956 363.113 322.956C360.013 322.956 357.5 320.442 357.5 317.342V82.0898C357.5 78.9895 360.013 76.4761 363.113 76.4761C366.213 76.4761 368.727 78.9894 368.727 82.0898V126.465C368.727 128.315 370.226 129.814 372.075 129.814C373.925 129.814 375.424 128.315 375.424 126.465V40.8749Z" fill="#FFE194"/>
<path fill-rule="evenodd" clip-rule="evenodd" d="M310.425 134.631C310.425 131.531 312.938 129.018 316.038 129.018C319.139 129.018 321.652 131.531 321.652 134.631V209.724C321.652 211.573 323.151 213.072 325 213.072C326.85 213.072 328.349 211.573 328.349 209.724V184.57C328.349 181.469 330.862 178.956 333.962 178.956C337.063 178.956 339.576 181.469 339.576 184.57V209.724C339.576 211.573 341.075 213.072 342.924 213.072C344.774 213.072 346.273 211.573 346.273 209.724V174.187C346.273 171.086 348.786 168.573 351.887 168.573C354.987 168.573 357.5 171.086 357.5 174.187V324.641C357.5 327.741 354.987 330.254 351.887 330.254C348.786 330.254 346.273 327.741 346.273 324.641V283.17C346.273 281.32 344.774 279.821 342.924 279.821C341.075 279.821 339.576 281.32 339.576 283.17V305.852C339.576 308.952 337.063 311.465 333.962 311.465C330.862 311.465 328.349 308.952 328.349 305.852V275.753C328.349 273.904 326.85 272.405 325 272.405C323.151 272.405 321.652 273.904 321.652 275.753V296.457C321.652 299.557 319.139 302.071 316.038 302.071C312.938 302.071 310.425 299.557 310.425 296.457V270.315C310.425 268.465 308.925 266.966 307.076 266.966C305.227 266.966 303.727 268.465 303.727 270.315V299.424C303.727 302.524 301.214 305.037 298.114 305.037C295.013 305.037 292.5 302.524 292.5 299.424V159.847C292.5 156.747 295.013 154.234 298.114 154.234C301.214 154.234 303.727 156.747 303.727 159.847V183.518C303.727 185.368 305.227 186.867 307.076 186.867C308.925 186.867 310.425 185.368 310.425 183.518V134.631Z" fill="#FCCB4E"/>
<path fill-rule="evenodd" clip-rule="evenodd" d="M375.424 70.7943C375.424 67.694 377.937 65.1807 381.038 65.1807C384.138 65.1807 386.651 67.694 386.651 70.7943V199.214C386.651 201.064 388.15 202.563 390 202.563C391.849 202.563 393.349 201.064 393.349 199.214V152.416C393.349 149.316 395.862 146.802 398.962 146.802C402.063 146.802 404.576 149.316 404.576 152.416V199.214C404.576 201.064 406.075 202.563 407.925 202.563C409.774 202.563 411.273 201.064 411.273 199.214V135.446C411.273 132.346 413.787 129.833 416.887 129.833C419.987 129.833 422.501 132.346 422.501 135.446V388.477C422.501 391.577 419.987 394.091 416.887 394.091C413.787 394.091 411.273 391.577 411.273 388.477V315.009C411.273 313.16 409.774 311.661 407.925 311.661C406.075 311.661 404.576 313.16 404.576 315.009V357.767C404.576 360.868 402.063 363.381 398.962 363.381C395.862 363.381 393.349 360.868 393.349 357.767V302.887C393.349 301.038 391.849 299.539 390 299.539C388.15 299.539 386.651 301.038 386.651 302.887V342.412C386.651 345.513 384.138 348.026 381.038 348.026C377.937 348.026 375.424 345.513 375.424 342.412V293.999C375.424 292.149 373.925 290.65 372.075 290.65C370.226 290.65 368.727 292.149 368.727 293.999V347.262C368.727 350.362 366.213 352.875 363.113 352.875C360.013 352.875 357.5 350.362 357.5 347.262V112.009C357.5 108.909 360.013 106.396 363.113 106.396C366.213 106.396 368.727 108.909 368.727 112.009V156.385C368.727 158.234 370.226 159.733 372.075 159.733C373.925 159.733 375.424 158.234 375.424 156.385V70.7943Z" fill="#FCCB4E"/>
<path fill-rule="evenodd" clip-rule="evenodd" d="M310.425 170.535C310.425 167.434 312.938 164.921 316.038 164.921C319.139 164.921 321.652 167.434 321.652 170.535V245.627C321.652 247.476 323.151 248.976 325 248.976C326.85 248.976 328.349 247.476 328.349 245.627V220.473C328.349 217.373 330.862 214.86 333.962 214.86C337.063 214.86 339.576 217.373 339.576 220.473V245.627C339.576 247.476 341.075 248.976 342.924 248.976C344.774 248.976 346.273 247.476 346.273 245.627V210.09C346.273 206.99 348.786 204.476 351.887 204.476C354.987 204.476 357.5 206.99 357.5 210.09V360.544C357.5 363.644 354.987 366.158 351.887 366.158C348.786 366.158 346.273 363.644 346.273 360.544V319.073C346.273 317.224 344.774 315.725 342.924 315.725C341.075 315.725 339.576 317.224 339.576 319.073V341.755C339.576 344.856 337.063 347.369 333.962 347.369C330.862 347.369 328.349 344.856 328.349 341.755V311.656C328.349 309.807 326.85 308.308 325 308.308C323.151 308.308 321.652 309.807 321.652 311.656V332.36C321.652 335.461 319.139 337.974 316.038 337.974C312.938 337.974 310.425 335.461 310.425 332.36V306.218C310.425 304.369 308.925 302.869 307.076 302.869C305.227 302.869 303.727 304.369 303.727 306.218V335.327C303.727 338.427 301.214 340.941 298.114 340.941C295.013 340.941 292.5 338.427 292.5 335.327V195.751C292.5 192.65 295.013 190.137 298.114 190.137C301.214 190.137 303.727 192.65 303.727 195.751V219.422C303.727 221.271 305.227 222.77 307.076 222.77C308.925 222.77 310.425 221.271 310.425 219.422V170.535Z" fill="#BB4DCD"/>
<path fill-rule="evenodd" clip-rule="evenodd" d="M375.424 106.697C375.424 103.597 377.937 101.083 381.038 101.083C384.138 101.083 386.651 103.597 386.651 106.697V235.117C386.651 236.967 388.15 238.466 390 238.466C391.849 238.466 393.349 236.967 393.349 235.117V188.319C393.349 185.219 395.862 182.705 398.962 182.705C402.063 182.705 404.576 185.219 404.576 188.319V235.117C404.576 236.967 406.075 238.466 407.925 238.466C409.774 238.466 411.273 236.967 411.273 235.117V171.349C411.273 168.249 413.787 165.735 416.887 165.735C419.987 165.735 422.501 168.249 422.501 171.349V424.38C422.501 427.48 419.987 429.994 416.887 429.994C413.787 429.994 411.273 427.48 411.273 424.38V350.912C411.273 349.063 409.774 347.564 407.925 347.564C406.075 347.564 404.576 349.063 404.576 350.912V393.67C404.576 396.771 402.063 399.284 398.962 399.284C395.862 399.284 393.349 396.771 393.349 393.67V338.79C393.349 336.941 391.849 335.442 390 335.442C388.15 335.442 386.651 336.941 386.651 338.79V378.315C386.651 381.415 384.138 383.929 381.038 383.929C377.937 383.929 375.424 381.415 375.424 378.315V329.902C375.424 328.052 373.925 326.553 372.075 326.553C370.226 326.553 368.727 328.052 368.727 329.902V383.164C368.727 386.265 366.213 388.778 363.113 388.778C360.013 388.778 357.5 386.265 357.5 383.164V147.912C357.5 144.812 360.013 142.299 363.113 142.299C366.213 142.299 368.727 144.812 368.727 147.912V192.288C368.727 194.137 370.226 195.636 372.075 195.636C373.925 195.636 375.424 194.137 375.424 192.288V106.697Z" fill="#BB4DCD"/>
</g>
</svg>
