<svg width="390" height="844" viewBox="0 0 390 844" fill="none" xmlns="http://www.w3.org/2000/svg">
<g clip-path="url(#clip0_33_332)">
<rect width="390" height="844" fill="#363636"/>
<g opacity="0.2">
<path fill-rule="evenodd" clip-rule="evenodd" d="M-14.5756 236.875C-14.5756 233.775 -12.0623 231.262 -8.962 231.262V231.262C-5.86168 231.262 -3.34837 233.775 -3.34837 236.875V365.295C-3.34837 367.145 -1.84908 368.644 0.000376701 368.644V368.644C1.84984 368.644 3.34912 367.145 3.34912 365.295V318.497C3.34912 315.397 5.86243 312.883 8.96276 312.883V312.883C12.0631 312.883 14.5764 315.397 14.5764 318.497V365.295C14.5764 367.145 16.0757 368.644 17.9252 368.644V368.644C19.7746 368.644 21.2739 367.145 21.2739 365.295V301.527C21.2739 298.427 23.7872 295.913 26.8876 295.913V295.913C29.9879 295.913 32.5012 298.427 32.5012 301.527V554.558C32.5012 557.658 29.9879 560.172 26.8876 560.172V560.172C23.7872 560.172 21.2739 557.658 21.2739 554.558V481.09C21.2739 479.241 19.7746 477.742 17.9252 477.742V477.742C16.0757 477.742 14.5764 479.241 14.5764 481.09V523.848C14.5764 526.949 12.0631 529.462 8.96276 529.462V529.462C5.86243 529.462 3.34912 526.949 3.34912 523.848V468.968C3.34912 467.119 1.84984 465.62 0.000376701 465.62V465.62C-1.84908 465.62 -3.34837 467.119 -3.34837 468.968V508.493C-3.34837 511.594 -5.86168 514.107 -8.962 514.107V514.107C-12.0623 514.107 -14.5756 511.594 -14.5756 508.493V460.08C-14.5756 458.23 -16.0748 456.731 -17.9242 456.731V456.731C-19.7735 456.731 -21.2727 458.23 -21.2727 460.08V513.342C-21.2727 516.443 -23.786 518.956 -26.8864 518.956V518.956C-29.9867 518.956 -32.5 516.443 -32.5 513.342V278.09C-32.5 274.99 -29.9867 272.477 -26.8864 272.477V272.477C-23.786 272.477 -21.2727 274.99 -21.2727 278.09V322.466C-21.2727 324.315 -19.7735 325.814 -17.9242 325.814V325.814C-16.0748 325.814 -14.5756 324.315 -14.5756 322.466V236.875Z" fill="#FFE194"/>
<path fill-rule="evenodd" clip-rule="evenodd" d="M50.4235 323.815C50.4235 320.714 52.9369 318.201 56.0372 318.201V318.201C59.1375 318.201 61.6508 320.714 61.6508 323.815V379.608C61.6508 381.457 63.1501 382.956 64.9995 382.956V382.956C66.8489 382.956 68.3481 381.457 68.3481 379.608V362.287C68.3481 359.187 70.8615 356.674 73.9618 356.674V356.674C77.0621 356.674 79.5754 359.187 79.5754 362.287V379.608C79.5754 381.457 81.0745 382.956 82.9237 382.956V382.956C84.7729 382.956 86.272 381.457 86.272 379.608V354.289C86.272 351.189 88.7853 348.675 91.8856 348.675V348.675C94.9859 348.675 97.4992 351.189 97.4992 354.289V467.62C97.4992 470.72 94.9859 473.233 91.8856 473.233V473.233C88.7853 473.233 86.272 470.72 86.272 467.62V437.728C86.272 435.878 84.7729 434.379 82.9237 434.379V434.379C81.0745 434.379 79.5754 435.878 79.5754 437.728V453.144C79.5754 456.245 77.0621 458.758 73.9618 458.758V458.758C70.8615 458.758 68.3481 456.245 68.3481 453.144V432.014C68.3481 430.165 66.8489 428.666 64.9995 428.666V428.666C63.1501 428.666 61.6508 430.165 61.6508 432.014V445.906C61.6508 449.007 59.1375 451.52 56.0372 451.52V451.52C52.9369 451.52 50.4235 449.007 50.4235 445.906V427.823C50.4235 425.974 48.9245 424.475 47.0754 424.475V424.475C45.2263 424.475 43.7273 425.974 43.7273 427.823V448.193C43.7273 451.293 41.214 453.806 38.1136 453.806V453.806C35.0133 453.806 32.5 451.293 32.5 448.193V343.242C32.5 340.142 35.0133 337.628 38.1136 337.628V337.628C41.214 337.628 43.7273 340.142 43.7273 343.242V359.419C43.7273 361.268 45.2263 362.767 47.0754 362.767V362.767C48.9245 362.767 50.4235 361.268 50.4235 359.419V323.815Z" fill="#FFE194"/>
<path fill-rule="evenodd" clip-rule="evenodd" d="M115.425 323.815C115.425 320.714 117.938 318.201 121.038 318.201V318.201C124.139 318.201 126.652 320.714 126.652 323.815V379.608C126.652 381.457 128.151 382.956 130 382.956V382.956C131.85 382.956 133.349 381.457 133.349 379.608V362.287C133.349 359.187 135.862 356.674 138.962 356.674V356.674C142.063 356.674 144.576 359.187 144.576 362.287V379.608C144.576 381.457 146.075 382.956 147.924 382.956V382.956C149.774 382.956 151.273 381.457 151.273 379.608V354.289C151.273 351.189 153.786 348.675 156.887 348.675V348.675C159.987 348.675 162.5 351.189 162.5 354.289V467.62C162.5 470.72 159.987 473.233 156.887 473.233V473.233C153.786 473.233 151.273 470.72 151.273 467.62V437.728C151.273 435.879 149.774 434.379 147.924 434.379V434.379C146.075 434.379 144.576 435.879 144.576 437.728V453.144C144.576 456.245 142.063 458.758 138.962 458.758V458.758C135.862 458.758 133.349 456.245 133.349 453.144V432.014C133.349 430.165 131.85 428.666 130 428.666V428.666C128.151 428.666 126.652 430.165 126.652 432.014V445.906C126.652 449.007 124.139 451.52 121.038 451.52V451.52C117.938 451.52 115.425 449.007 115.425 445.906V427.823C115.425 425.974 113.925 424.475 112.076 424.475V424.475C110.227 424.475 108.727 425.974 108.727 427.823V448.193C108.727 451.293 106.214 453.806 103.114 453.806V453.806C100.013 453.806 97.5 451.293 97.5 448.193V343.242C97.5 340.142 100.013 337.628 103.114 337.628V337.628C106.214 337.628 108.727 340.142 108.727 343.242V359.418C108.727 361.268 110.227 362.767 112.076 362.767V362.767C113.925 362.767 115.425 361.268 115.425 359.418V323.815Z" fill="#FFE194"/>
<path fill-rule="evenodd" clip-rule="evenodd" d="M180.424 201.614C180.424 198.513 182.938 196 186.038 196V196C189.138 196 191.652 198.513 191.652 201.614V359.491C191.652 361.34 193.151 362.84 195 362.84V362.84C196.85 362.84 198.349 361.34 198.349 359.491V300.736C198.349 297.636 200.862 295.122 203.963 295.122V295.122C207.063 295.122 209.576 297.636 209.576 300.736V359.491C209.576 361.34 211.076 362.84 212.925 362.84V362.84C214.775 362.84 216.274 361.34 216.274 359.491V280.126C216.274 277.026 218.787 274.512 221.888 274.512V274.512C224.988 274.512 227.501 277.026 227.501 280.126V589.819C227.501 592.919 224.988 595.432 221.888 595.432V595.432C218.787 595.432 216.274 592.919 216.274 589.819V498.678C216.274 496.829 214.775 495.329 212.925 495.329V495.329C211.076 495.329 209.576 496.829 209.576 498.678V552.526C209.576 555.626 207.063 558.139 203.963 558.139V558.139C200.862 558.139 198.349 555.626 198.349 552.526V483.957C198.349 482.108 196.85 480.608 195 480.608V480.608C193.151 480.608 191.652 482.108 191.652 483.957V533.879C191.652 536.979 189.138 539.492 186.038 539.492V539.492C182.938 539.492 180.424 536.979 180.424 533.879V473.161C180.424 471.312 178.925 469.813 177.076 469.813V469.813C175.226 469.813 173.727 471.312 173.727 473.161V539.767C173.727 542.868 171.214 545.381 168.114 545.381V545.381C165.013 545.381 162.5 542.868 162.5 539.767V251.666C162.5 248.565 165.013 246.052 168.114 246.052V246.052C171.214 246.052 173.727 248.565 173.727 251.666V307.477C173.727 309.326 175.226 310.825 177.076 310.825V310.825C178.925 310.825 180.424 309.326 180.424 307.477V201.614Z" fill="#FFE194"/>
<path fill-rule="evenodd" clip-rule="evenodd" d="M245.424 323.815C245.424 320.714 247.937 318.201 251.037 318.201V318.201C254.138 318.201 256.651 320.714 256.651 323.815V379.607C256.651 381.457 258.15 382.956 260 382.956V382.956C261.849 382.956 263.349 381.457 263.349 379.607V362.287C263.349 359.187 265.862 356.674 268.962 356.674V356.674C272.063 356.674 274.576 359.187 274.576 362.287V379.608C274.576 381.457 276.075 382.956 277.924 382.956V382.956C279.773 382.956 281.272 381.457 281.272 379.608V354.289C281.272 351.189 283.785 348.675 286.886 348.675V348.675C289.986 348.675 292.499 351.189 292.499 354.289V467.62C292.499 470.72 289.986 473.233 286.886 473.233V473.233C283.785 473.233 281.272 470.72 281.272 467.62V437.727C281.272 435.878 279.773 434.379 277.924 434.379V434.379C276.075 434.379 274.576 435.878 274.576 437.727V453.144C274.576 456.245 272.063 458.758 268.962 458.758V458.758C265.862 458.758 263.349 456.245 263.349 453.144V432.015C263.349 430.165 261.849 428.666 260 428.666V428.666C258.15 428.666 256.651 430.165 256.651 432.015V445.906C256.651 449.007 254.138 451.52 251.037 451.52V451.52C247.937 451.52 245.424 449.007 245.424 445.906V427.823C245.424 425.974 243.925 424.475 242.075 424.475V424.475C240.226 424.475 238.727 425.974 238.727 427.823V448.193C238.727 451.293 236.214 453.806 233.114 453.806V453.806C230.013 453.806 227.5 451.293 227.5 448.193V343.242C227.5 340.142 230.013 337.628 233.114 337.628V337.628C236.214 337.628 238.727 340.142 238.727 343.242V359.419C238.727 361.268 240.226 362.767 242.075 362.767V362.767C243.925 362.767 245.424 361.268 245.424 359.419V323.815Z" fill="#FFE194"/>
<path fill-rule="evenodd" clip-rule="evenodd" d="M-14.5756 266.795C-14.5756 263.695 -12.0623 261.182 -8.962 261.182V261.182C-5.86168 261.182 -3.34837 263.695 -3.34837 266.795V395.215C-3.34837 397.065 -1.84908 398.564 0.000376701 398.564V398.564C1.84984 398.564 3.34912 397.065 3.34912 395.215V348.417C3.34912 345.317 5.86243 342.803 8.96276 342.803V342.803C12.0631 342.803 14.5764 345.317 14.5764 348.417V395.215C14.5764 397.065 16.0757 398.564 17.9252 398.564V398.564C19.7746 398.564 21.2739 397.065 21.2739 395.215V331.447C21.2739 328.347 23.7872 325.833 26.8876 325.833V325.833C29.9879 325.833 32.5012 328.347 32.5012 331.447V584.478C32.5012 587.578 29.9879 590.092 26.8876 590.092V590.092C23.7872 590.092 21.2739 587.578 21.2739 584.478V511.01C21.2739 509.161 19.7746 507.662 17.9252 507.662V507.662C16.0757 507.662 14.5764 509.161 14.5764 511.01V553.768C14.5764 556.869 12.0631 559.382 8.96276 559.382V559.382C5.86243 559.382 3.34912 556.869 3.34912 553.768V498.888C3.34912 497.039 1.84984 495.54 0.000376701 495.54V495.54C-1.84908 495.54 -3.34837 497.039 -3.34837 498.888V538.413C-3.34837 541.514 -5.86168 544.027 -8.962 544.027V544.027C-12.0623 544.027 -14.5756 541.514 -14.5756 538.413V490C-14.5756 488.15 -16.0748 486.651 -17.9242 486.651V486.651C-19.7735 486.651 -21.2727 488.15 -21.2727 490V543.262C-21.2727 546.363 -23.786 548.876 -26.8864 548.876V548.876C-29.9867 548.876 -32.5 546.363 -32.5 543.263V308.01C-32.5 304.91 -29.9867 302.397 -26.8864 302.397V302.397C-23.786 302.397 -21.2727 304.91 -21.2727 308.01V352.386C-21.2727 354.235 -19.7735 355.734 -17.9242 355.734V355.734C-16.0748 355.734 -14.5756 354.235 -14.5756 352.386V266.795Z" fill="#FCCB4E"/>
<path fill-rule="evenodd" clip-rule="evenodd" d="M50.4235 353.735C50.4235 350.634 52.9369 348.121 56.0372 348.121V348.121C59.1375 348.121 61.6508 350.634 61.6508 353.735V409.527C61.6508 411.377 63.1501 412.876 64.9995 412.876V412.876C66.8489 412.876 68.3481 411.377 68.3481 409.527V392.207C68.3481 389.107 70.8615 386.593 73.9618 386.593V386.593C77.0621 386.593 79.5754 389.107 79.5754 392.207V409.528C79.5754 411.377 81.0745 412.876 82.9237 412.876V412.876C84.7729 412.876 86.272 411.377 86.272 409.528V384.209C86.272 381.108 88.7853 378.595 91.8856 378.595V378.595C94.9859 378.595 97.4992 381.108 97.4992 384.209V497.539C97.4992 500.64 94.9859 503.153 91.8856 503.153V503.153C88.7853 503.153 86.272 500.64 86.272 497.539V467.647C86.272 465.798 84.7729 464.299 82.9237 464.299V464.299C81.0745 464.299 79.5754 465.798 79.5754 467.647V483.064C79.5754 486.164 77.0621 488.678 73.9618 488.678V488.678C70.8615 488.678 68.3481 486.164 68.3481 483.064V461.934C68.3481 460.085 66.8489 458.585 64.9995 458.585V458.585C63.1501 458.585 61.6508 460.085 61.6508 461.934V475.826C61.6508 478.927 59.1375 481.44 56.0372 481.44V481.44C52.9369 481.44 50.4235 478.927 50.4235 475.826V457.743C50.4235 455.894 48.9245 454.395 47.0754 454.395V454.395C45.2263 454.395 43.7273 455.894 43.7273 457.743V478.112C43.7273 481.213 41.214 483.726 38.1136 483.726V483.726C35.0133 483.726 32.5 481.213 32.5 478.112V373.162C32.5 370.061 35.0133 367.548 38.1136 367.548V367.548C41.214 367.548 43.7273 370.061 43.7273 373.162V389.339C43.7273 391.188 45.2263 392.687 47.0754 392.687V392.687C48.9245 392.687 50.4235 391.188 50.4235 389.339V353.735Z" fill="#FCCB4E"/>
<path fill-rule="evenodd" clip-rule="evenodd" d="M115.425 353.735C115.425 350.634 117.938 348.121 121.038 348.121V348.121C124.139 348.121 126.652 350.634 126.652 353.735V409.528C126.652 411.377 128.151 412.876 130 412.876V412.876C131.85 412.876 133.349 411.377 133.349 409.528V392.207C133.349 389.107 135.862 386.593 138.962 386.593V386.593C142.063 386.593 144.576 389.107 144.576 392.207V409.528C144.576 411.377 146.075 412.876 147.924 412.876V412.876C149.774 412.876 151.273 411.377 151.273 409.528V384.209C151.273 381.108 153.786 378.595 156.887 378.595V378.595C159.987 378.595 162.5 381.108 162.5 384.209V497.539C162.5 500.64 159.987 503.153 156.887 503.153V503.153C153.786 503.153 151.273 500.64 151.273 497.539V467.648C151.273 465.798 149.774 464.299 147.924 464.299V464.299C146.075 464.299 144.576 465.798 144.576 467.648V483.064C144.576 486.164 142.063 488.678 138.962 488.678V488.678C135.862 488.678 133.349 486.164 133.349 483.064V461.934C133.349 460.085 131.85 458.585 130 458.585V458.585C128.151 458.585 126.652 460.085 126.652 461.934V475.826C126.652 478.927 124.139 481.44 121.038 481.44V481.44C117.938 481.44 115.425 478.927 115.425 475.826V457.743C115.425 455.894 113.925 454.395 112.076 454.395V454.395C110.227 454.395 108.727 455.894 108.727 457.743V478.112C108.727 481.213 106.214 483.726 103.114 483.726V483.726C100.013 483.726 97.5 481.213 97.5 478.112V373.162C97.5 370.061 100.013 367.548 103.114 367.548V367.548C106.214 367.548 108.727 370.061 108.727 373.162V389.338C108.727 391.188 110.227 392.687 112.076 392.687V392.687C113.925 392.687 115.425 391.188 115.425 389.338V353.735Z" fill="#FCCB4E"/>
<path fill-rule="evenodd" clip-rule="evenodd" d="M180.424 231.534C180.424 228.433 182.938 225.92 186.038 225.92V225.92C189.138 225.92 191.652 228.433 191.652 231.534V389.411C191.652 391.26 193.151 392.759 195 392.759V392.759C196.85 392.759 198.349 391.26 198.349 389.411V330.656C198.349 327.555 200.862 325.042 203.963 325.042V325.042C207.063 325.042 209.576 327.555 209.576 330.656V389.411C209.576 391.26 211.076 392.759 212.925 392.759V392.759C214.775 392.759 216.274 391.26 216.274 389.411V310.046C216.274 306.946 218.787 304.432 221.888 304.432V304.432C224.988 304.432 227.501 306.946 227.501 310.046V619.738C227.501 622.839 224.988 625.352 221.888 625.352V625.352C218.787 625.352 216.274 622.839 216.274 619.738V528.598C216.274 526.749 214.775 525.249 212.925 525.249V525.249C211.076 525.249 209.576 526.749 209.576 528.598V582.445C209.576 585.546 207.063 588.059 203.963 588.059V588.059C200.862 588.059 198.349 585.546 198.349 582.445V513.877C198.349 512.027 196.85 510.528 195 510.528V510.528C193.151 510.528 191.652 512.027 191.652 513.877V563.798C191.652 566.899 189.138 569.412 186.038 569.412V569.412C182.938 569.412 180.424 566.899 180.424 563.798V503.081C180.424 501.232 178.925 499.733 177.076 499.733V499.733C175.226 499.733 173.727 501.232 173.727 503.081V569.687C173.727 572.787 171.214 575.301 168.114 575.301V575.301C165.013 575.301 162.5 572.787 162.5 569.687V281.585C162.5 278.485 165.013 275.972 168.114 275.972V275.972C171.214 275.972 173.727 278.485 173.727 281.585V337.396C173.727 339.246 175.226 340.745 177.076 340.745V340.745C178.925 340.745 180.424 339.246 180.424 337.396V231.534Z" fill="#FCCB4E"/>
<path fill-rule="evenodd" clip-rule="evenodd" d="M245.424 353.735C245.424 350.634 247.937 348.121 251.037 348.121V348.121C254.138 348.121 256.651 350.634 256.651 353.735V409.527C256.651 411.377 258.15 412.876 260 412.876V412.876C261.849 412.876 263.349 411.377 263.349 409.527V392.207C263.349 389.107 265.862 386.593 268.962 386.593V386.593C272.063 386.593 274.576 389.107 274.576 392.207V409.528C274.576 411.377 276.075 412.876 277.924 412.876V412.876C279.773 412.876 281.272 411.377 281.272 409.528V384.209C281.272 381.108 283.785 378.595 286.886 378.595V378.595C289.986 378.595 292.499 381.108 292.499 384.209V497.539C292.499 500.64 289.986 503.153 286.886 503.153V503.153C283.785 503.153 281.272 500.64 281.272 497.539V467.647C281.272 465.798 279.773 464.299 277.924 464.299V464.299C276.075 464.299 274.576 465.798 274.576 467.647V483.064C274.576 486.164 272.063 488.678 268.962 488.678V488.678C265.862 488.678 263.349 486.164 263.349 483.064V461.934C263.349 460.085 261.849 458.585 260 458.585V458.585C258.15 458.585 256.651 460.085 256.651 461.934V475.826C256.651 478.927 254.138 481.44 251.037 481.44V481.44C247.937 481.44 245.424 478.927 245.424 475.826V457.743C245.424 455.894 243.925 454.395 242.075 454.395V454.395C240.226 454.395 238.727 455.894 238.727 457.743V478.112C238.727 481.213 236.214 483.726 233.114 483.726V483.726C230.013 483.726 227.5 481.213 227.5 478.112V373.162C227.5 370.061 230.013 367.548 233.114 367.548V367.548C236.214 367.548 238.727 370.061 238.727 373.162V389.339C238.727 391.188 240.226 392.687 242.075 392.687V392.687C243.925 392.687 245.424 391.188 245.424 389.339V353.735Z" fill="#FCCB4E"/>
<path fill-rule="evenodd" clip-rule="evenodd" d="M-14.5756 302.698C-14.5756 299.597 -12.0623 297.084 -8.962 297.084V297.084C-5.86168 297.084 -3.34837 299.597 -3.34837 302.698V431.118C-3.34837 432.967 -1.84908 434.467 0.000376701 434.467V434.467C1.84984 434.467 3.34912 432.967 3.34912 431.118V384.319C3.34912 381.219 5.86243 378.706 8.96276 378.706V378.706C12.0631 378.706 14.5764 381.219 14.5764 384.319V431.118C14.5764 432.967 16.0757 434.467 17.9252 434.467V434.467C19.7746 434.467 21.2739 432.967 21.2739 431.118V367.35C21.2739 364.249 23.7872 361.736 26.8876 361.736V361.736C29.9879 361.736 32.5012 364.249 32.5012 367.35V620.381C32.5012 623.481 29.9879 625.994 26.8876 625.994V625.994C23.7872 625.994 21.2739 623.481 21.2739 620.381V546.913C21.2739 545.063 19.7746 543.564 17.9252 543.564V543.564C16.0757 543.564 14.5764 545.063 14.5764 546.913V589.671C14.5764 592.771 12.0631 595.284 8.96276 595.284V595.284C5.86243 595.284 3.34912 592.771 3.34912 589.671V534.791C3.34912 532.941 1.84984 531.442 0.000376701 531.442V531.442C-1.84908 531.442 -3.34837 532.941 -3.34837 534.791V574.316C-3.34837 577.416 -5.86168 579.929 -8.962 579.929V579.929C-12.0623 579.929 -14.5756 577.416 -14.5756 574.316V525.902C-14.5756 524.053 -16.0748 522.554 -17.9242 522.554V522.554C-19.7735 522.554 -21.2727 524.053 -21.2727 525.902V579.165C-21.2727 582.265 -23.786 584.779 -26.8864 584.779V584.779C-29.9867 584.779 -32.5 582.265 -32.5 579.165V343.913C-32.5 340.812 -29.9867 338.299 -26.8864 338.299V338.299C-23.786 338.299 -21.2727 340.812 -21.2727 343.913V388.288C-21.2727 390.138 -19.7735 391.637 -17.9242 391.637V391.637C-16.0748 391.637 -14.5756 390.138 -14.5756 388.288V302.698Z" fill="#BB4DCD"/>
<path fill-rule="evenodd" clip-rule="evenodd" d="M50.4235 389.637C50.4235 386.537 52.9369 384.023 56.0372 384.023V384.023C59.1375 384.023 61.6508 386.537 61.6508 389.637V445.43C61.6508 447.279 63.1501 448.779 64.9995 448.779V448.779C66.8489 448.779 68.3481 447.279 68.3481 445.43V428.11C68.3481 425.009 70.8615 422.496 73.9618 422.496V422.496C77.0621 422.496 79.5754 425.009 79.5754 428.11V445.43C79.5754 447.279 81.0745 448.779 82.9237 448.779V448.779C84.7729 448.779 86.272 447.279 86.272 445.43V420.111C86.272 417.011 88.7853 414.497 91.8856 414.497V414.497C94.9859 414.497 97.4992 417.011 97.4992 420.111V533.442C97.4992 536.542 94.9859 539.055 91.8856 539.055V539.055C88.7853 539.055 86.272 536.542 86.272 533.442V503.55C86.272 501.701 84.7729 500.202 82.9237 500.202V500.202C81.0745 500.202 79.5754 501.701 79.5754 503.55V518.967C79.5754 522.067 77.0621 524.58 73.9618 524.58V524.58C70.8615 524.58 68.3481 522.067 68.3481 518.967V497.837C68.3481 495.987 66.8489 494.488 64.9995 494.488V494.488C63.1501 494.488 61.6508 495.987 61.6508 497.837V511.729C61.6508 514.829 59.1375 517.342 56.0372 517.342V517.342C52.9369 517.342 50.4235 514.829 50.4235 511.729V493.645C50.4235 491.796 48.9245 490.297 47.0754 490.297V490.297C45.2263 490.297 43.7273 491.796 43.7273 493.645V514.015C43.7273 517.115 41.214 519.629 38.1136 519.629V519.629C35.0133 519.629 32.5 517.115 32.5 514.015V409.064C32.5 405.964 35.0133 403.451 38.1136 403.451V403.451C41.214 403.451 43.7273 405.964 43.7273 409.064V425.241C43.7273 427.09 45.2263 428.589 47.0754 428.589V428.589C48.9245 428.589 50.4235 427.09 50.4235 425.241V389.637Z" fill="#BB4DCD"/>
<path fill-rule="evenodd" clip-rule="evenodd" d="M115.425 389.637C115.425 386.537 117.938 384.023 121.038 384.023V384.023C124.139 384.023 126.652 386.537 126.652 389.637V445.43C126.652 447.279 128.151 448.779 130 448.779V448.779C131.85 448.779 133.349 447.279 133.349 445.43V428.11C133.349 425.009 135.862 422.496 138.962 422.496V422.496C142.063 422.496 144.576 425.009 144.576 428.11V445.43C144.576 447.279 146.075 448.779 147.924 448.779V448.779C149.774 448.779 151.273 447.279 151.273 445.43V420.111C151.273 417.011 153.786 414.497 156.887 414.497V414.497C159.987 414.497 162.5 417.011 162.5 420.111V533.442C162.5 536.542 159.987 539.055 156.887 539.055V539.055C153.786 539.055 151.273 536.542 151.273 533.442V503.55C151.273 501.701 149.774 500.202 147.924 500.202V500.202C146.075 500.202 144.576 501.701 144.576 503.55V518.967C144.576 522.067 142.063 524.58 138.962 524.58V524.58C135.862 524.58 133.349 522.067 133.349 518.967V497.836C133.349 495.987 131.85 494.488 130 494.488V494.488C128.151 494.488 126.652 495.987 126.652 497.836V511.729C126.652 514.829 124.139 517.342 121.038 517.342V517.342C117.938 517.342 115.425 514.829 115.425 511.729V493.646C115.425 491.796 113.925 490.297 112.076 490.297V490.297C110.227 490.297 108.727 491.796 108.727 493.646V514.015C108.727 517.115 106.214 519.629 103.114 519.629V519.629C100.013 519.629 97.5 517.115 97.5 514.015V409.064C97.5 405.964 100.013 403.451 103.114 403.451V403.451C106.214 403.451 108.727 405.964 108.727 409.064V425.241C108.727 427.09 110.227 428.589 112.076 428.589V428.589C113.925 428.589 115.425 427.09 115.425 425.241V389.637Z" fill="#BB4DCD"/>
<path fill-rule="evenodd" clip-rule="evenodd" d="M180.424 267.436C180.424 264.336 182.938 261.822 186.038 261.822V261.822C189.138 261.822 191.652 264.336 191.652 267.436V425.313C191.652 427.163 193.151 428.662 195 428.662V428.662C196.85 428.662 198.349 427.163 198.349 425.313V366.558C198.349 363.458 200.862 360.945 203.963 360.945V360.945C207.063 360.945 209.576 363.458 209.576 366.558V425.313C209.576 427.163 211.076 428.662 212.925 428.662V428.662C214.775 428.662 216.274 427.163 216.274 425.313V345.948C216.274 342.848 218.787 340.335 221.888 340.335V340.335C224.988 340.335 227.501 342.848 227.501 345.948V655.641C227.501 658.741 224.988 661.254 221.888 661.254V661.254C218.787 661.254 216.274 658.741 216.274 655.641V564.501C216.274 562.651 214.775 561.152 212.925 561.152V561.152C211.076 561.152 209.576 562.651 209.576 564.501V618.348C209.576 621.448 207.063 623.961 203.963 623.961V623.961C200.862 623.961 198.349 621.448 198.349 618.348V549.779C198.349 547.93 196.85 546.431 195 546.431V546.431C193.151 546.431 191.652 547.93 191.652 549.779V599.701C191.652 602.801 189.138 605.314 186.038 605.314V605.314C182.938 605.314 180.424 602.801 180.424 599.701V538.984C180.424 537.134 178.925 535.635 177.076 535.635V535.635C175.226 535.635 173.727 537.134 173.727 538.984V605.59C173.727 608.69 171.214 611.203 168.114 611.203V611.203C165.013 611.203 162.5 608.69 162.5 605.59V317.488C162.5 314.388 165.013 311.874 168.114 311.874V311.874C171.214 311.874 173.727 314.388 173.727 317.488V373.299C173.727 375.148 175.226 376.647 177.076 376.647V376.647C178.925 376.647 180.424 375.148 180.424 373.299V267.436Z" fill="#BB4DCD"/>
<path fill-rule="evenodd" clip-rule="evenodd" d="M245.424 389.637C245.424 386.537 247.937 384.023 251.037 384.023V384.023C254.138 384.023 256.651 386.537 256.651 389.637V445.43C256.651 447.279 258.15 448.779 260 448.779V448.779C261.849 448.779 263.349 447.279 263.349 445.43V428.11C263.349 425.009 265.862 422.496 268.962 422.496V422.496C272.063 422.496 274.576 425.009 274.576 428.11V445.431C274.576 447.28 276.075 448.779 277.924 448.779V448.779C279.773 448.779 281.272 447.28 281.272 445.431V420.111C281.272 417.011 283.785 414.497 286.886 414.497V414.497C289.986 414.497 292.499 417.011 292.499 420.111V533.442C292.499 536.542 289.986 539.055 286.886 539.055V539.055C283.785 539.055 281.272 536.542 281.272 533.442V503.55C281.272 501.701 279.773 500.202 277.924 500.202V500.202C276.075 500.202 274.576 501.701 274.576 503.55V518.967C274.576 522.067 272.063 524.58 268.962 524.58V524.58C265.862 524.58 263.349 522.067 263.349 518.967V497.837C263.349 495.987 261.849 494.488 260 494.488V494.488C258.15 494.488 256.651 495.987 256.651 497.837V511.729C256.651 514.829 254.138 517.342 251.037 517.342V517.342C247.937 517.342 245.424 514.829 245.424 511.729V493.645C245.424 491.796 243.925 490.297 242.075 490.297V490.297C240.226 490.297 238.727 491.796 238.727 493.645V514.015C238.727 517.115 236.214 519.629 233.114 519.629V519.629C230.013 519.629 227.5 517.115 227.5 514.015V409.064C227.5 405.964 230.013 403.451 233.114 403.451V403.451C236.214 403.451 238.727 405.964 238.727 409.064V425.241C238.727 427.09 240.226 428.589 242.075 428.589V428.589C243.925 428.589 245.424 427.09 245.424 425.241V389.637Z" fill="#BB4DCD"/>
<path fill-rule="evenodd" clip-rule="evenodd" d="M310.425 300.711C310.425 297.611 312.938 295.098 316.038 295.098V295.098C319.139 295.098 321.652 297.611 321.652 300.711V375.804C321.652 377.653 323.151 379.152 325 379.152V379.152C326.85 379.152 328.349 377.653 328.349 375.804V350.65C328.349 347.55 330.862 345.036 333.962 345.036V345.036C337.063 345.036 339.576 347.55 339.576 350.65V375.804C339.576 377.653 341.075 379.152 342.924 379.152V379.152C344.774 379.152 346.273 377.653 346.273 375.804V340.267C346.273 337.167 348.786 334.653 351.887 334.653V334.653C354.987 334.653 357.5 337.167 357.5 340.267V490.721C357.5 493.821 354.987 496.334 351.887 496.334V496.334C348.786 496.334 346.273 493.821 346.273 490.721V449.25C346.273 447.401 344.774 445.901 342.924 445.901V445.901C341.075 445.901 339.576 447.401 339.576 449.25V471.932C339.576 475.032 337.063 477.546 333.962 477.546V477.546C330.862 477.546 328.349 475.032 328.349 471.932V441.833C328.349 439.984 326.85 438.485 325 438.485V438.485C323.151 438.485 321.652 439.984 321.652 441.833V462.537C321.652 465.638 319.139 468.151 316.038 468.151V468.151C312.938 468.151 310.425 465.638 310.425 462.537V436.395C310.425 434.545 308.925 433.046 307.076 433.046V433.046C305.227 433.046 303.727 434.545 303.727 436.395V465.504C303.727 468.604 301.214 471.117 298.114 471.117V471.117C295.013 471.117 292.5 468.604 292.5 465.504V325.928C292.5 322.827 295.013 320.314 298.114 320.314V320.314C301.214 320.314 303.727 322.827 303.727 325.928V349.598C303.727 351.448 305.227 352.947 307.076 352.947V352.947C308.925 352.947 310.425 351.448 310.425 349.598V300.711Z" fill="#FFE194"/>
<path fill-rule="evenodd" clip-rule="evenodd" d="M375.424 236.875C375.424 233.775 377.938 231.262 381.038 231.262V231.262C384.138 231.262 386.652 233.775 386.652 236.875V365.295C386.652 367.145 388.151 368.644 390 368.644V368.644C391.85 368.644 393.349 367.145 393.349 365.295V318.497C393.349 315.397 395.862 312.883 398.963 312.883V312.883C402.063 312.883 404.576 315.397 404.576 318.497V365.295C404.576 367.145 406.076 368.644 407.925 368.644V368.644C409.775 368.644 411.274 367.145 411.274 365.295V301.527C411.274 298.427 413.787 295.913 416.888 295.913V295.913C419.988 295.913 422.501 298.427 422.501 301.527V554.558C422.501 557.658 419.988 560.172 416.888 560.172V560.172C413.787 560.172 411.274 557.658 411.274 554.558V481.09C411.274 479.241 409.775 477.742 407.925 477.742V477.742C406.076 477.742 404.576 479.241 404.576 481.09V523.848C404.576 526.949 402.063 529.462 398.963 529.462V529.462C395.862 529.462 393.349 526.949 393.349 523.848V468.968C393.349 467.119 391.85 465.62 390 465.62V465.62C388.151 465.62 386.652 467.119 386.652 468.968V508.493C386.652 511.594 384.138 514.107 381.038 514.107V514.107C377.938 514.107 375.424 511.594 375.424 508.493V460.08C375.424 458.23 373.925 456.731 372.076 456.731V456.731C370.226 456.731 368.727 458.23 368.727 460.08V513.342C368.727 516.443 366.214 518.956 363.114 518.956V518.956C360.013 518.956 357.5 516.443 357.5 513.342V278.09C357.5 274.99 360.013 272.477 363.114 272.477V272.477C366.214 272.477 368.727 274.99 368.727 278.09V322.466C368.727 324.315 370.226 325.814 372.076 325.814V325.814C373.925 325.814 375.424 324.315 375.424 322.466V236.875Z" fill="#FFE194"/>
<path fill-rule="evenodd" clip-rule="evenodd" d="M310.425 330.631C310.425 327.531 312.938 325.018 316.038 325.018V325.018C319.139 325.018 321.652 327.531 321.652 330.631V405.724C321.652 407.573 323.151 409.072 325 409.072V409.072C326.85 409.072 328.349 407.573 328.349 405.724V380.57C328.349 377.469 330.862 374.956 333.962 374.956V374.956C337.063 374.956 339.576 377.469 339.576 380.57V405.724C339.576 407.573 341.075 409.072 342.924 409.072V409.072C344.774 409.072 346.273 407.573 346.273 405.724V370.187C346.273 367.086 348.786 364.573 351.887 364.573V364.573C354.987 364.573 357.5 367.086 357.5 370.187V520.641C357.5 523.741 354.987 526.254 351.887 526.254V526.254C348.786 526.254 346.273 523.741 346.273 520.641V479.17C346.273 477.32 344.774 475.821 342.924 475.821V475.821C341.075 475.821 339.576 477.32 339.576 479.17V501.852C339.576 504.952 337.063 507.465 333.962 507.465V507.465C330.862 507.465 328.349 504.952 328.349 501.852V471.753C328.349 469.904 326.85 468.405 325 468.405V468.405C323.151 468.405 321.652 469.904 321.652 471.753V492.457C321.652 495.557 319.139 498.071 316.038 498.071V498.071C312.938 498.071 310.425 495.557 310.425 492.457V466.315C310.425 464.465 308.925 462.966 307.076 462.966V462.966C305.227 462.966 303.727 464.465 303.727 466.315V495.424C303.727 498.524 301.214 501.037 298.114 501.037V501.037C295.013 501.037 292.5 498.524 292.5 495.424V355.847C292.5 352.747 295.013 350.234 298.114 350.234V350.234C301.214 350.234 303.727 352.747 303.727 355.847V379.518C303.727 381.368 305.227 382.867 307.076 382.867V382.867C308.925 382.867 310.425 381.368 310.425 379.518V330.631Z" fill="#FCCB4E"/>
<path fill-rule="evenodd" clip-rule="evenodd" d="M375.424 266.795C375.424 263.695 377.938 261.182 381.038 261.182V261.182C384.138 261.182 386.652 263.695 386.652 266.795V395.215C386.652 397.065 388.151 398.564 390 398.564V398.564C391.85 398.564 393.349 397.065 393.349 395.215V348.417C393.349 345.317 395.862 342.803 398.963 342.803V342.803C402.063 342.803 404.576 345.317 404.576 348.417V395.215C404.576 397.065 406.076 398.564 407.925 398.564V398.564C409.775 398.564 411.274 397.065 411.274 395.215V331.447C411.274 328.347 413.787 325.833 416.888 325.833V325.833C419.988 325.833 422.501 328.347 422.501 331.447V584.478C422.501 587.578 419.988 590.092 416.888 590.092V590.092C413.787 590.092 411.274 587.578 411.274 584.478V511.01C411.274 509.161 409.775 507.662 407.925 507.662V507.662C406.076 507.662 404.576 509.161 404.576 511.01V553.768C404.576 556.869 402.063 559.382 398.963 559.382V559.382C395.862 559.382 393.349 556.869 393.349 553.768V498.888C393.349 497.039 391.85 495.54 390 495.54V495.54C388.151 495.54 386.652 497.039 386.652 498.888V538.413C386.652 541.514 384.138 544.027 381.038 544.027V544.027C377.938 544.027 375.424 541.514 375.424 538.413V490C375.424 488.15 373.925 486.651 372.076 486.651V486.651C370.226 486.651 368.727 488.15 368.727 490V543.262C368.727 546.363 366.214 548.876 363.114 548.876V548.876C360.013 548.876 357.5 546.363 357.5 543.263V308.01C357.5 304.91 360.013 302.397 363.114 302.397V302.397C366.214 302.397 368.727 304.91 368.727 308.01V352.386C368.727 354.235 370.226 355.734 372.076 355.734V355.734C373.925 355.734 375.424 354.235 375.424 352.386V266.795Z" fill="#FCCB4E"/>
<path fill-rule="evenodd" clip-rule="evenodd" d="M310.425 366.534C310.425 363.433 312.938 360.92 316.038 360.92V360.92C319.139 360.92 321.652 363.433 321.652 366.534V441.626C321.652 443.475 323.151 444.975 325 444.975V444.975C326.85 444.975 328.349 443.475 328.349 441.626V416.472C328.349 413.372 330.862 410.859 333.962 410.859V410.859C337.063 410.859 339.576 413.372 339.576 416.472V441.626C339.576 443.475 341.075 444.975 342.924 444.975V444.975C344.774 444.975 346.273 443.475 346.273 441.626V406.089C346.273 402.989 348.786 400.475 351.887 400.475V400.475C354.987 400.475 357.5 402.989 357.5 406.089V556.543C357.5 559.643 354.987 562.157 351.887 562.157V562.157C348.786 562.157 346.273 559.643 346.273 556.543V515.072C346.273 513.223 344.774 511.724 342.924 511.724V511.724C341.075 511.724 339.576 513.223 339.576 515.072V537.754C339.576 540.855 337.063 543.368 333.962 543.368V543.368C330.862 543.368 328.349 540.855 328.349 537.754V507.655C328.349 505.806 326.85 504.307 325 504.307V504.307C323.151 504.307 321.652 505.806 321.652 507.655V528.359C321.652 531.46 319.139 533.973 316.038 533.973V533.973C312.938 533.973 310.425 531.46 310.425 528.359V502.217C310.425 500.368 308.925 498.868 307.076 498.868V498.868C305.227 498.868 303.727 500.368 303.727 502.217V531.326C303.727 534.426 301.214 536.94 298.114 536.94V536.94C295.013 536.94 292.5 534.426 292.5 531.326V391.75C292.5 388.65 295.013 386.136 298.114 386.136V386.136C301.214 386.136 303.727 388.65 303.727 391.75V415.421C303.727 417.27 305.227 418.769 307.076 418.769V418.769C308.925 418.769 310.425 417.27 310.425 415.421V366.534Z" fill="#BB4DCD"/>
<path fill-rule="evenodd" clip-rule="evenodd" d="M375.424 302.698C375.424 299.597 377.938 297.084 381.038 297.084V297.084C384.138 297.084 386.652 299.597 386.652 302.698V431.118C386.652 432.967 388.151 434.467 390 434.467V434.467C391.85 434.467 393.349 432.967 393.349 431.118V384.319C393.349 381.219 395.862 378.706 398.963 378.706V378.706C402.063 378.706 404.576 381.219 404.576 384.319V431.118C404.576 432.967 406.076 434.467 407.925 434.467V434.467C409.775 434.467 411.274 432.967 411.274 431.118V367.35C411.274 364.249 413.787 361.736 416.888 361.736V361.736C419.988 361.736 422.501 364.249 422.501 367.35V620.381C422.501 623.481 419.988 625.994 416.888 625.994V625.994C413.787 625.994 411.274 623.481 411.274 620.381V546.913C411.274 545.063 409.775 543.564 407.925 543.564V543.564C406.076 543.564 404.576 545.063 404.576 546.913V589.671C404.576 592.771 402.063 595.284 398.963 595.284V595.284C395.862 595.284 393.349 592.771 393.349 589.671V534.791C393.349 532.941 391.85 531.442 390 531.442V531.442C388.151 531.442 386.652 532.941 386.652 534.791V574.316C386.652 577.416 384.138 579.929 381.038 579.929V579.929C377.938 579.929 375.424 577.416 375.424 574.316V525.902C375.424 524.053 373.925 522.554 372.076 522.554V522.554C370.226 522.554 368.727 524.053 368.727 525.902V579.165C368.727 582.265 366.214 584.779 363.114 584.779V584.779C360.013 584.779 357.5 582.265 357.5 579.165V343.913C357.5 340.812 360.013 338.299 363.114 338.299V338.299C366.214 338.299 368.727 340.812 368.727 343.913V388.288C368.727 390.138 370.226 391.637 372.076 391.637V391.637C373.925 391.637 375.424 390.138 375.424 388.288V302.698Z" fill="#BB4DCD"/>
</g>
<g filter="url(#filter0_f_33_332)">
<circle cx="-121.5" cy="768.5" r="225.5" fill="#BB4DCD"/>
</g>
<g filter="url(#filter1_f_33_332)">
<circle cx="562.5" cy="74.5" r="225.5" fill="#BB4DCD" fill-opacity="0.55"/>
</g>
<path d="M168.608 291.812L141.63 276.091C137.225 273.524 131.775 273.524 127.324 276.091L100.392 291.812C95.9867 294.379 93.2617 299.145 93.2617 304.324V335.674C93.2617 340.808 95.9867 345.574 100.392 348.187L127.37 363.908C131.775 366.474 137.225 366.474 141.676 363.908L168.653 348.187C173.059 345.62 175.784 340.854 175.784 335.674V304.324C175.738 299.145 173.013 294.424 168.608 291.812ZM134.5 298.641C140.359 298.641 145.082 303.408 145.082 309.32C145.082 315.233 140.359 319.999 134.5 319.999C128.641 319.999 123.918 315.233 123.918 309.32C123.918 303.454 128.641 298.641 134.5 298.641ZM146.672 341.358H122.328C118.65 341.358 116.515 337.233 118.559 334.162C121.647 329.533 127.642 326.416 134.5 326.416C141.358 326.416 147.353 329.533 150.441 334.162C152.485 337.187 150.305 341.358 146.672 341.358Z" fill="#2A6DBB"/>
<path d="M236.608 191.569L209.63 175.991C205.225 173.448 199.775 173.448 195.324 175.991L168.392 191.569C163.987 194.113 161.262 198.836 161.262 203.968V235.033C161.262 240.12 163.987 244.843 168.392 247.432L195.37 263.01C199.775 265.553 205.225 265.553 209.676 263.01L236.653 247.432C241.059 244.889 243.784 240.165 243.784 235.033V203.968C243.738 198.836 241.013 194.158 236.608 191.569ZM202.5 198.336C208.359 198.336 213.082 203.06 213.082 208.919C213.082 214.777 208.359 219.501 202.5 219.501C196.641 219.501 191.918 214.777 191.918 208.919C191.918 203.105 196.641 198.336 202.5 198.336ZM214.672 240.665H190.328C186.65 240.665 184.515 236.577 186.559 233.534C189.647 228.947 195.642 225.859 202.5 225.859C209.358 225.859 215.353 228.947 218.441 233.534C220.485 236.532 218.305 240.665 214.672 240.665Z" fill="#FCCB4E"/>
<path d="M304.42 291.812L277.195 276.091C272.749 273.524 267.249 273.524 262.758 276.091L235.579 291.812C231.133 294.379 228.383 299.145 228.383 304.324V335.674C228.383 340.808 231.133 345.574 235.579 348.187L262.804 363.908C267.249 366.474 272.749 366.474 277.241 363.908L304.466 348.187C308.912 345.62 311.662 340.854 311.662 335.674V304.324C311.616 299.145 308.866 294.424 304.42 291.812ZM269.999 298.641C275.912 298.641 280.679 303.408 280.679 309.32C280.679 315.233 275.912 319.999 269.999 319.999C264.087 319.999 259.32 315.233 259.32 309.32C259.32 303.454 264.087 298.641 269.999 298.641ZM282.283 341.358H257.716C254.004 341.358 251.849 337.233 253.912 334.162C257.029 329.533 263.079 326.416 269.999 326.416C276.92 326.416 282.97 329.533 286.087 334.162C288.149 337.187 285.949 341.358 282.283 341.358Z" fill="#BB4DCD"/>
<path d="M168.608 521.569L141.63 505.991C137.225 503.448 131.775 503.448 127.324 505.991L100.392 521.569C95.9867 524.113 93.2617 528.836 93.2617 533.968V565.033C93.2617 570.12 95.9867 574.843 100.392 577.432L127.37 593.01C131.775 595.553 137.225 595.553 141.676 593.01L168.653 577.432C173.059 574.889 175.784 570.165 175.784 565.033V533.968C175.738 528.836 173.013 524.158 168.608 521.569ZM134.5 528.336C140.359 528.336 145.082 533.06 145.082 538.919C145.082 544.777 140.359 549.501 134.5 549.501C128.641 549.501 123.918 544.777 123.918 538.919C123.918 533.105 128.641 528.336 134.5 528.336ZM146.672 570.665H122.328C118.65 570.665 116.515 566.577 118.559 563.534C121.647 558.947 127.642 555.859 134.5 555.859C141.358 555.859 147.353 558.947 150.441 563.534C152.485 566.532 150.305 570.665 146.672 570.665Z" fill="#BB4DCD"/>
<g opacity="0.5">
<path d="M176.745 514.906L143.332 495.613C137.876 492.463 131.126 492.463 125.613 495.613L92.257 514.906C86.8008 518.056 83.4258 523.906 83.4258 530.262V568.738C83.4258 575.038 86.8008 580.887 92.257 584.094L125.67 603.387C131.126 606.537 137.876 606.537 143.388 603.387L176.801 584.094C182.257 580.944 185.632 575.094 185.632 568.738V530.262C185.576 523.906 182.201 518.112 176.745 514.906ZM134.501 523.288C141.757 523.288 147.607 529.138 147.607 536.394C147.607 543.65 141.757 549.5 134.501 549.5C127.245 549.5 121.395 543.65 121.395 536.394C121.395 529.194 127.245 523.288 134.501 523.288ZM149.576 575.712H119.426C114.87 575.712 112.226 570.65 114.757 566.881C118.582 561.2 126.007 557.375 134.501 557.375C142.995 557.375 150.42 561.2 154.245 566.881C156.776 570.594 154.076 575.712 149.576 575.712Z" fill="#BB4DCD"/>
</g>
<g opacity="0.5">
<path d="M184.881 508.243L145.034 485.234C138.527 481.477 130.477 481.477 123.902 485.234L84.1219 508.243C77.6148 512 73.5898 518.976 73.5898 526.557V572.442C73.5898 579.955 77.6148 586.932 84.1219 590.756L123.969 613.765C130.477 617.522 138.527 617.522 145.101 613.765L184.948 590.756C191.455 586.999 195.48 580.022 195.48 572.442V526.557C195.413 518.976 191.388 512.067 184.881 508.243ZM134.502 518.239C143.155 518.239 150.132 525.215 150.132 533.869C150.132 542.523 143.155 549.499 134.502 549.499C125.848 549.499 118.871 542.523 118.871 533.869C118.871 525.282 125.848 518.239 134.502 518.239ZM152.48 580.76H116.523C111.089 580.76 107.937 574.723 110.955 570.228C115.517 563.453 124.372 558.891 134.502 558.891C144.631 558.891 153.486 563.453 158.048 570.228C161.067 574.656 157.847 580.76 152.48 580.76Z" fill="#BB4DCD"/>
</g>
<path fill-rule="evenodd" clip-rule="evenodd" d="M211.894 371.695L249.761 393.704C255.945 397.362 259.77 403.971 259.834 411.222V455.112C259.834 462.362 256.009 469.036 249.825 472.629L211.957 494.638C205.71 498.232 198.06 498.232 191.876 494.638L154.009 472.629C147.825 468.972 144 462.298 144 455.112V411.222C144 403.971 147.825 397.297 154.009 393.704L191.812 371.695C198.06 368.102 205.71 368.102 211.894 371.695ZM216.739 418.216C216.739 409.938 210.109 403.265 201.885 403.265C193.661 403.265 187.031 410.002 187.031 418.216C187.031 426.493 193.661 433.167 201.885 433.167C210.109 433.167 216.739 426.493 216.739 418.216ZM184.8 463.068H218.97C224.07 463.068 227.13 457.229 224.261 452.994C219.926 446.513 211.511 442.15 201.885 442.15C192.259 442.15 183.844 446.513 179.509 452.994C176.64 457.293 179.636 463.068 184.8 463.068ZM191.385 401.149V391.192C191.385 390.18 192.715 389.809 193.24 390.674L195.133 393.795C195.506 394.412 196.39 394.442 196.805 393.852L198.017 392.13C198.395 391.594 199.176 391.56 199.599 392.06L201.405 394.198C201.804 394.671 202.533 394.671 202.933 394.198L204.81 391.975C205.209 391.502 205.938 391.502 206.338 391.975L207.885 393.807C208.376 394.389 209.312 394.229 209.583 393.518L210.45 391.243C210.846 390.205 212.385 390.489 212.385 391.599V400.929C212.385 401.794 211.324 402.294 210.59 401.837C206.846 399.506 200.161 397.584 193.045 402.019C192.343 402.457 191.385 401.976 191.385 401.149Z" fill="#FCCB4E"/>
</g>
<defs>
<filter id="filter0_f_33_332" x="-743" y="147" width="1243" height="1243" filterUnits="userSpaceOnUse" color-interpolation-filters="sRGB">
<feFlood flood-opacity="0" result="BackgroundImageFix"/>
<feBlend mode="normal" in="SourceGraphic" in2="BackgroundImageFix" result="shape"/>
<feGaussianBlur stdDeviation="198" result="effect1_foregroundBlur_33_332"/>
</filter>
<filter id="filter1_f_33_332" x="-190" y="-678" width="1505" height="1505" filterUnits="userSpaceOnUse" color-interpolation-filters="sRGB">
<feFlood flood-opacity="0" result="BackgroundImageFix"/>
<feBlend mode="normal" in="SourceGraphic" in2="BackgroundImageFix" result="shape"/>
<feGaussianBlur stdDeviation="263.5" result="effect1_foregroundBlur_33_332"/>
</filter>
<clipPath id="clip0_33_332">
<rect width="390" height="844" fill="white"/>
</clipPath>
</defs>
</svg>
