<svg width="344" height="491" viewBox="0 0 344 491" fill="none" xmlns="http://www.w3.org/2000/svg">
<g clip-path="url(#clip0_673_3470)">
<rect width="344" height="491" rx="38" fill="#363636"/>
<path fill-rule="evenodd" clip-rule="evenodd" d="M15.8023 269.728C15.8023 266.995 18.018 264.78 20.7513 264.78V264.78C23.4845 264.78 25.7002 266.995 25.7002 269.728V301.363C25.7002 302.993 27.0218 304.314 28.6521 304.314V304.314C30.2824 304.314 31.604 302.993 31.604 301.363V293.217C31.604 290.483 33.8197 288.268 36.5529 288.268V288.268C39.2861 288.268 41.5018 290.483 41.5018 293.217V301.363C41.5018 302.993 42.8234 304.314 44.4537 304.314V304.314C46.084 304.314 47.4056 302.993 47.4056 301.363V288.334C47.4056 285.6 49.6213 283.385 52.3545 283.385V283.385C55.0878 283.385 57.3035 285.6 57.3035 288.334V354.482C57.3035 357.215 55.0878 359.431 52.3545 359.431V359.431C49.6213 359.431 47.4056 357.215 47.4056 354.482V338.662C47.4056 337.031 46.084 335.71 44.4537 335.71V335.71C42.8234 335.71 41.5018 337.031 41.5018 338.662V345.644C41.5018 348.378 39.2861 350.593 36.5529 350.593V350.593C33.8197 350.593 31.604 348.378 31.604 345.644V335.173C31.604 333.543 30.2824 332.221 28.6521 332.221V332.221C27.0218 332.221 25.7002 333.543 25.7002 335.173V341.226C25.7002 343.959 23.4845 346.175 20.7513 346.175V346.175C18.018 346.175 15.8023 343.959 15.8023 341.226V332.616C15.8023 330.985 14.4806 329.663 12.8501 329.663V329.663C11.2196 329.663 9.89787 330.985 9.89787 332.616V342.622C9.89787 345.355 7.68216 347.571 4.94894 347.571V347.571C2.21571 347.571 0 345.355 0 342.622V281.59C0 278.856 2.21571 276.641 4.94894 276.641V276.641C7.68216 276.641 9.89787 278.856 9.89787 281.59V289.037C9.89787 290.667 11.2196 291.989 12.8501 291.989V291.989C14.4806 291.989 15.8023 290.667 15.8023 289.037V269.728Z" fill="#FFE194"/>
<path fill-rule="evenodd" clip-rule="evenodd" d="M73.105 239.702C73.105 236.969 75.3207 234.753 78.0539 234.753V234.753C80.7871 234.753 83.0029 236.969 83.0029 239.702V296.419C83.0029 298.049 84.3246 299.371 85.9551 299.371V299.371C87.5856 299.371 88.9073 298.049 88.9073 296.419V278.093C88.9073 275.36 91.123 273.144 93.8563 273.144V273.144C96.5895 273.144 98.8052 275.36 98.8052 278.093V296.419C98.8052 298.049 100.127 299.371 101.757 299.371V299.371C103.388 299.371 104.71 298.049 104.71 296.419V270.112C104.71 267.379 106.925 265.163 109.659 265.163V265.163C112.392 265.163 114.608 267.379 114.608 270.112V384.507C114.608 387.241 112.392 389.456 109.659 389.456V389.456C106.925 389.456 104.71 387.241 104.71 384.507V353.637C104.71 352.007 103.388 350.685 101.757 350.685V350.685C100.127 350.685 98.8052 352.007 98.8052 353.637V370.063C98.8052 372.796 96.5895 375.012 93.8563 375.012V375.012C91.123 375.012 88.9073 372.796 88.9073 370.063V347.936C88.9073 346.305 87.5856 344.983 85.9551 344.983V344.983C84.3246 344.983 83.0029 346.305 83.0029 347.936V362.84C83.0029 365.574 80.7871 367.789 78.0539 367.789V367.789C75.3207 367.789 73.105 365.574 73.105 362.84V343.755C73.105 342.124 71.7834 340.803 70.1531 340.803V340.803C68.5228 340.803 67.2012 342.124 67.2012 343.755V365.121C67.2012 367.855 64.9855 370.07 62.2523 370.07V370.07C59.5191 370.07 57.3033 367.855 57.3033 365.121V259.088C57.3033 256.355 59.5191 254.139 62.2523 254.139V254.139C64.9855 254.139 67.2012 256.355 67.2012 259.088V276.274C67.2012 277.905 68.5228 279.226 70.1531 279.226V279.226C71.7834 279.226 73.105 277.904 73.105 276.274V239.702Z" fill="#FFE194"/>
<path fill-rule="evenodd" clip-rule="evenodd" d="M130.408 280.594C130.408 277.861 132.624 275.645 135.357 275.645V275.645C138.09 275.645 140.306 277.861 140.306 280.594V303.15C140.306 304.781 141.628 306.103 143.258 306.103V306.103C144.889 306.103 146.211 304.781 146.211 303.15V298.69C146.211 295.957 148.426 293.741 151.16 293.741V293.741C153.893 293.741 156.109 295.957 156.109 298.69V303.151C156.109 304.781 157.43 306.103 159.06 306.103V306.103C160.691 306.103 162.012 304.781 162.012 303.151V294.927C162.012 292.194 164.228 289.979 166.961 289.979V289.979C169.694 289.979 171.91 292.194 171.91 294.927V343.615C171.91 346.348 169.694 348.564 166.961 348.564V348.564C164.228 348.564 162.012 346.348 162.012 343.615V333.241C162.012 331.611 160.691 330.289 159.06 330.289V330.289C157.43 330.289 156.109 331.611 156.109 333.241V336.807C156.109 339.541 153.893 341.756 151.16 341.756V341.756C148.426 341.756 146.211 339.541 146.211 336.807V330.554C146.211 328.924 144.889 327.602 143.258 327.602V327.602C141.628 327.602 140.306 328.924 140.306 330.554V333.403C140.306 336.136 138.09 338.352 135.357 338.352V338.352C132.624 338.352 130.408 336.136 130.408 333.403V328.583C130.408 326.953 129.087 325.631 127.457 325.631V325.631C125.827 325.631 124.505 326.953 124.505 328.583V334.478C124.505 337.212 122.29 339.427 119.556 339.427V339.427C116.823 339.427 114.607 337.212 114.607 334.478V289.732C114.607 286.999 116.823 284.783 119.556 284.783V284.783C122.29 284.783 124.505 286.999 124.505 289.732V293.655C124.505 295.286 125.827 296.607 127.457 296.607V296.607C129.087 296.607 130.408 295.286 130.408 293.655V280.594Z" fill="#FFE194"/>
<path fill-rule="evenodd" clip-rule="evenodd" d="M187.713 280.594C187.713 277.861 189.929 275.645 192.662 275.645V275.645C195.395 275.645 197.611 277.861 197.611 280.594V303.151C197.611 304.781 198.932 306.103 200.562 306.103V306.103C202.193 306.103 203.514 304.781 203.514 303.151V298.69C203.514 295.957 205.73 293.741 208.463 293.741V293.741C211.196 293.741 213.412 295.957 213.412 298.69V303.151C213.412 304.781 214.733 306.103 216.364 306.103V306.103C217.994 306.103 219.316 304.781 219.316 303.151V294.927C219.316 292.194 221.531 289.979 224.265 289.979V289.979C226.998 289.979 229.214 292.194 229.214 294.927V343.615C229.214 346.348 226.998 348.564 224.265 348.564V348.564C221.531 348.564 219.316 346.348 219.316 343.615V333.241C219.316 331.611 217.994 330.289 216.364 330.289V330.289C214.733 330.289 213.412 331.611 213.412 333.241V336.807C213.412 339.541 211.196 341.756 208.463 341.756V341.756C205.73 341.756 203.514 339.541 203.514 336.807V330.554C203.514 328.923 202.193 327.602 200.562 327.602V327.602C198.932 327.602 197.611 328.923 197.611 330.554V333.403C197.611 336.136 195.395 338.352 192.662 338.352V338.352C189.929 338.352 187.713 336.136 187.713 333.403V328.584C187.713 326.953 186.391 325.631 184.76 325.631V325.631C183.13 325.631 181.808 326.953 181.808 328.584V334.478C181.808 337.212 179.592 339.427 176.859 339.427V339.427C174.126 339.427 171.91 337.212 171.91 334.478V289.732C171.91 286.999 174.126 284.783 176.859 284.783V284.783C179.592 284.783 181.808 286.999 181.808 289.732V293.654C181.808 295.285 183.13 296.607 184.76 296.607V296.607C186.391 296.607 187.713 295.285 187.713 293.654V280.594Z" fill="#FFE194"/>
<path fill-rule="evenodd" clip-rule="evenodd" d="M245.015 223.117C245.015 220.384 247.231 218.168 249.964 218.168V218.168C252.697 218.168 254.913 220.384 254.913 223.117V293.689C254.913 295.319 256.235 296.641 257.865 296.641V296.641C259.496 296.641 260.817 295.319 260.817 293.689V269.74C260.817 267.006 263.033 264.791 265.766 264.791V264.791C268.5 264.791 270.715 267.006 270.715 269.74V293.689C270.715 295.319 272.037 296.641 273.667 296.641V296.641C275.298 296.641 276.62 295.319 276.62 293.689V260.045C276.62 257.312 278.835 255.096 281.569 255.096V255.096C284.302 255.096 286.518 257.312 286.518 260.045V401.092C286.518 403.825 284.302 406.04 281.569 406.04V406.04C278.835 406.04 276.62 403.825 276.62 401.092V361.91C276.62 360.279 275.298 358.957 273.667 358.957V358.957C272.037 358.957 270.715 360.279 270.715 361.91V383.551C270.715 386.284 268.5 388.5 265.766 388.5V388.5C263.033 388.5 260.817 386.284 260.817 383.551V354.985C260.817 353.355 259.496 352.033 257.865 352.033V352.033C256.235 352.033 254.913 353.355 254.913 354.985V374.78C254.913 377.514 252.697 379.729 249.964 379.729V379.729C247.231 379.729 245.015 377.514 245.015 374.78V349.908C245.015 348.277 243.693 346.956 242.063 346.956V346.956C240.433 346.956 239.111 348.277 239.111 349.908V377.551C239.111 380.284 236.896 382.5 234.162 382.5V382.5C231.429 382.5 229.213 380.284 229.213 377.551V246.66C229.213 243.926 231.429 241.711 234.162 241.711V241.711C236.896 241.711 239.111 243.926 239.111 246.66V269.224C239.111 270.855 240.433 272.176 242.063 272.176V272.176C243.693 272.176 245.015 270.855 245.015 269.224V223.117Z" fill="#FFE194"/>
<path fill-rule="evenodd" clip-rule="evenodd" d="M302.318 280.594C302.318 277.861 304.534 275.645 307.267 275.645V275.645C310.001 275.645 312.216 277.861 312.216 280.594V303.15C312.216 304.781 313.538 306.103 315.169 306.103V306.103C316.799 306.103 318.121 304.781 318.121 303.15V298.69C318.121 295.957 320.337 293.741 323.07 293.741V293.741C325.804 293.741 328.019 295.957 328.019 298.69V303.151C328.019 304.781 329.341 306.103 330.971 306.103V306.103C332.601 306.103 333.922 304.781 333.922 303.151V294.927C333.922 292.194 336.138 289.979 338.871 289.979V289.979C341.605 289.979 343.82 292.194 343.82 294.927V343.615C343.82 346.348 341.605 348.564 338.871 348.564V348.564C336.138 348.564 333.922 346.348 333.922 343.615V333.241C333.922 331.611 332.601 330.289 330.971 330.289V330.289C329.341 330.289 328.019 331.611 328.019 333.241V336.807C328.019 339.541 325.804 341.756 323.07 341.756V341.756C320.337 341.756 318.121 339.541 318.121 336.807V330.555C318.121 328.924 316.799 327.602 315.169 327.602V327.602C313.538 327.602 312.216 328.924 312.216 330.555V333.403C312.216 336.136 310.001 338.352 307.267 338.352V338.352C304.534 338.352 302.318 336.136 302.318 333.403V328.583C302.318 326.953 300.997 325.631 299.367 325.631V325.631C297.737 325.631 296.415 326.953 296.415 328.583V334.478C296.415 337.212 294.2 339.427 291.466 339.427V339.427C288.733 339.427 286.517 337.212 286.517 334.478V289.732C286.517 286.999 288.733 284.783 291.466 284.783V284.783C294.2 284.783 296.415 286.999 296.415 289.732V293.655C296.415 295.286 297.737 296.607 299.367 296.607V296.607C300.997 296.607 302.318 295.286 302.318 293.655V280.594Z" fill="#FFE194"/>
<path fill-rule="evenodd" clip-rule="evenodd" d="M15.8023 283.801C15.8023 281.067 18.018 278.852 20.7513 278.852V278.852C23.4845 278.852 25.7002 281.067 25.7002 283.801V315.435C25.7002 317.065 27.0218 318.387 28.6521 318.387V318.387C30.2824 318.387 31.604 317.065 31.604 315.435V307.289C31.604 304.556 33.8197 302.34 36.5529 302.34V302.34C39.2861 302.34 41.5018 304.556 41.5018 307.289V315.435C41.5018 317.065 42.8234 318.387 44.4537 318.387V318.387C46.084 318.387 47.4056 317.065 47.4056 315.435V302.406C47.4056 299.673 49.6213 297.457 52.3545 297.457V297.457C55.0878 297.457 57.3035 299.673 57.3035 302.406V368.554C57.3035 371.288 55.0878 373.503 52.3545 373.503V373.503C49.6213 373.503 47.4056 371.288 47.4056 368.554V352.734C47.4056 351.104 46.084 349.782 44.4537 349.782V349.782C42.8234 349.782 41.5018 351.104 41.5018 352.734V359.717C41.5018 362.45 39.2861 364.666 36.5529 364.666V364.666C33.8197 364.666 31.604 362.45 31.604 359.717V349.245C31.604 347.615 30.2824 346.294 28.6521 346.294V346.294C27.0218 346.294 25.7002 347.615 25.7002 349.245V355.298C25.7002 358.031 23.4845 360.247 20.7513 360.247V360.247C18.018 360.247 15.8023 358.031 15.8023 355.298V346.688C15.8023 345.057 14.4806 343.736 12.8501 343.736V343.736C11.2196 343.736 9.89787 345.057 9.89787 346.688V356.693C9.89787 359.427 7.68216 361.642 4.94894 361.642V361.642C2.21571 361.642 0 359.427 0 356.693V295.661C0 292.928 2.21571 290.712 4.94894 290.712V290.712C7.68216 290.712 9.89787 292.928 9.89787 295.661V303.109C9.89787 304.739 11.2196 306.061 12.8501 306.061V306.061C14.4806 306.061 15.8023 304.739 15.8023 303.109V283.801Z" fill="#FCCB4E"/>
<path fill-rule="evenodd" clip-rule="evenodd" d="M73.105 253.775C73.105 251.042 75.3207 248.826 78.0539 248.826V248.826C80.7871 248.826 83.0029 251.042 83.0029 253.775V310.492C83.0029 312.122 84.3246 313.444 85.9551 313.444V313.444C87.5856 313.444 88.9073 312.122 88.9073 310.492V292.166C88.9073 289.433 91.123 287.217 93.8563 287.217V287.217C96.5895 287.217 98.8052 289.433 98.8052 292.166V310.492C98.8052 312.122 100.127 313.444 101.757 313.444V313.444C103.388 313.444 104.71 312.122 104.71 310.492V284.184C104.71 281.451 106.925 279.235 109.659 279.235V279.235C112.392 279.235 114.608 281.451 114.608 284.184V398.58C114.608 401.313 112.392 403.529 109.659 403.529V403.529C106.925 403.529 104.71 401.313 104.71 398.58V367.71C104.71 366.08 103.388 364.758 101.757 364.758V364.758C100.127 364.758 98.8052 366.08 98.8052 367.71V384.136C98.8052 386.869 96.5895 389.085 93.8563 389.085V389.085C91.123 389.085 88.9073 386.869 88.9073 384.136V362.008C88.9073 360.378 87.5856 359.056 85.9551 359.056V359.056C84.3246 359.056 83.0029 360.378 83.0029 362.008V376.913C83.0029 379.646 80.7871 381.862 78.0539 381.862V381.862C75.3207 381.862 73.105 379.646 73.105 376.913V357.827C73.105 356.197 71.7834 354.876 70.1531 354.876V354.876C68.5228 354.876 67.2012 356.197 67.2012 357.827V379.194C67.2012 381.927 64.9855 384.143 62.2523 384.143V384.143C59.5191 384.143 57.3033 381.927 57.3033 379.194V273.16C57.3033 270.427 59.5191 268.211 62.2523 268.211V268.211C64.9855 268.211 67.2012 270.427 67.2012 273.16V290.347C67.2012 291.977 68.5228 293.299 70.1531 293.299V293.299C71.7834 293.299 73.105 291.977 73.105 290.347V253.775Z" fill="#FCCB4E"/>
<path fill-rule="evenodd" clip-rule="evenodd" d="M130.408 294.667C130.408 291.934 132.624 289.718 135.357 289.718V289.718C138.09 289.718 140.306 291.934 140.306 294.667V317.223C140.306 318.854 141.628 320.176 143.258 320.176V320.176C144.889 320.176 146.211 318.854 146.211 317.223V312.762C146.211 310.029 148.426 307.813 151.16 307.813V307.813C153.893 307.813 156.109 310.029 156.109 312.762V317.224C156.109 318.854 157.43 320.176 159.06 320.176V320.176C160.691 320.176 162.012 318.854 162.012 317.224V309C162.012 306.267 164.228 304.051 166.961 304.051V304.051C169.694 304.051 171.91 306.267 171.91 309V357.688C171.91 360.421 169.694 362.637 166.961 362.637V362.637C164.228 362.637 162.012 360.421 162.012 357.688V347.314C162.012 345.684 160.691 344.362 159.06 344.362V344.362C157.43 344.362 156.109 345.684 156.109 347.314V350.88C156.109 353.613 153.893 355.829 151.16 355.829V355.829C148.426 355.829 146.211 353.613 146.211 350.88V344.627C146.211 342.997 144.889 341.675 143.258 341.675V341.675C141.628 341.675 140.306 342.997 140.306 344.627V347.476C140.306 350.209 138.09 352.425 135.357 352.425V352.425C132.624 352.425 130.408 350.209 130.408 347.476V342.656C130.408 341.025 129.087 339.704 127.457 339.704V339.704C125.827 339.704 124.505 341.025 124.505 342.656V348.551C124.505 351.284 122.29 353.5 119.556 353.5V353.5C116.823 353.5 114.607 351.284 114.607 348.551V303.804C114.607 301.071 116.823 298.855 119.556 298.855V298.855C122.29 298.855 124.505 301.071 124.505 303.804V307.728C124.505 309.358 125.827 310.68 127.457 310.68V310.68C129.087 310.68 130.408 309.358 130.408 307.728V294.667Z" fill="#FCCB4E"/>
<path fill-rule="evenodd" clip-rule="evenodd" d="M187.713 294.667C187.713 291.934 189.929 289.718 192.662 289.718V289.718C195.395 289.718 197.611 291.934 197.611 294.667V317.224C197.611 318.854 198.932 320.176 200.562 320.176V320.176C202.193 320.176 203.514 318.854 203.514 317.224V312.762C203.514 310.029 205.73 307.813 208.463 307.813V307.813C211.196 307.813 213.412 310.029 213.412 312.762V317.224C213.412 318.854 214.733 320.176 216.364 320.176V320.176C217.994 320.176 219.316 318.854 219.316 317.224V309C219.316 306.267 221.531 304.051 224.265 304.051V304.051C226.998 304.051 229.214 306.267 229.214 309V357.688C229.214 360.421 226.998 362.637 224.265 362.637V362.637C221.531 362.637 219.316 360.421 219.316 357.688V347.314C219.316 345.684 217.994 344.362 216.364 344.362V344.362C214.733 344.362 213.412 345.684 213.412 347.314V350.88C213.412 353.613 211.196 355.829 208.463 355.829V355.829C205.73 355.829 203.514 353.613 203.514 350.88V344.626C203.514 342.996 202.193 341.675 200.562 341.675V341.675C198.932 341.675 197.611 342.996 197.611 344.626V347.476C197.611 350.209 195.395 352.425 192.662 352.425V352.425C189.929 352.425 187.713 350.209 187.713 347.476V342.657C187.713 341.026 186.391 339.704 184.76 339.704V339.704C183.13 339.704 181.808 341.026 181.808 342.657V348.551C181.808 351.284 179.592 353.5 176.859 353.5V353.5C174.126 353.5 171.91 351.284 171.91 348.551V303.804C171.91 301.071 174.126 298.855 176.859 298.855V298.855C179.592 298.855 181.808 301.071 181.808 303.804V307.727C181.808 309.358 183.13 310.68 184.76 310.68V310.68C186.391 310.68 187.713 309.358 187.713 307.727V294.667Z" fill="#FCCB4E"/>
<path fill-rule="evenodd" clip-rule="evenodd" d="M245.015 237.19C245.015 234.457 247.231 232.241 249.964 232.241V232.241C252.697 232.241 254.913 234.457 254.913 237.19V307.762C254.913 309.392 256.235 310.714 257.865 310.714V310.714C259.496 310.714 260.817 309.392 260.817 307.762V283.812C260.817 281.079 263.033 278.863 265.766 278.863V278.863C268.5 278.863 270.715 281.079 270.715 283.812V307.762C270.715 309.392 272.037 310.714 273.667 310.714V310.714C275.298 310.714 276.62 309.392 276.62 307.762V274.118C276.62 271.385 278.835 269.169 281.569 269.169V269.169C284.302 269.169 286.518 271.385 286.518 274.118V415.164C286.518 417.898 284.302 420.113 281.569 420.113V420.113C278.835 420.113 276.62 417.898 276.62 415.164V375.982C276.62 374.352 275.298 373.03 273.667 373.03V373.03C272.037 373.03 270.715 374.352 270.715 375.982V397.624C270.715 400.357 268.5 402.573 265.766 402.573V402.573C263.033 402.573 260.817 400.357 260.817 397.624V369.058C260.817 367.428 259.496 366.106 257.865 366.106V366.106C256.235 366.106 254.913 367.428 254.913 369.058V388.853C254.913 391.587 252.697 393.802 249.964 393.802V393.802C247.231 393.802 245.015 391.587 245.015 388.853V363.981C245.015 362.35 243.693 361.029 242.063 361.029V361.029C240.433 361.029 239.111 362.35 239.111 363.981V391.623C239.111 394.356 236.896 396.572 234.162 396.572V396.572C231.429 396.572 229.213 394.356 229.213 391.623V260.732C229.213 257.999 231.429 255.783 234.162 255.783V255.783C236.896 255.783 239.111 257.999 239.111 260.732V283.297C239.111 284.927 240.433 286.249 242.063 286.249V286.249C243.693 286.249 245.015 284.927 245.015 283.297V237.19Z" fill="#FCCB4E"/>
<path fill-rule="evenodd" clip-rule="evenodd" d="M302.318 294.667C302.318 291.934 304.534 289.718 307.267 289.718V289.718C310.001 289.718 312.216 291.934 312.216 294.667V317.223C312.216 318.854 313.538 320.176 315.169 320.176V320.176C316.799 320.176 318.121 318.854 318.121 317.223V312.762C318.121 310.029 320.337 307.813 323.07 307.813V307.813C325.804 307.813 328.019 310.029 328.019 312.762V317.224C328.019 318.854 329.341 320.176 330.971 320.176V320.176C332.601 320.176 333.922 318.854 333.922 317.224V309C333.922 306.267 336.138 304.051 338.871 304.051V304.051C341.605 304.051 343.82 306.267 343.82 309V357.688C343.82 360.421 341.605 362.637 338.871 362.637V362.637C336.138 362.637 333.922 360.421 333.922 357.688V347.314C333.922 345.684 332.601 344.362 330.971 344.362V344.362C329.341 344.362 328.019 345.684 328.019 347.314V350.88C328.019 353.613 325.804 355.829 323.07 355.829V355.829C320.337 355.829 318.121 353.613 318.121 350.88V344.627C318.121 342.997 316.799 341.675 315.169 341.675V341.675C313.538 341.675 312.216 342.997 312.216 344.627V347.476C312.216 350.209 310.001 352.425 307.267 352.425V352.425C304.534 352.425 302.318 350.209 302.318 347.476V342.656C302.318 341.025 300.997 339.704 299.367 339.704V339.704C297.737 339.704 296.415 341.025 296.415 342.656V348.551C296.415 351.284 294.2 353.5 291.466 353.5V353.5C288.733 353.5 286.517 351.284 286.517 348.551V303.804C286.517 301.071 288.733 298.855 291.466 298.855V298.855C294.2 298.855 296.415 301.071 296.415 303.804V307.728C296.415 309.358 297.737 310.68 299.367 310.68V310.68C300.997 310.68 302.318 309.358 302.318 307.728V294.667Z" fill="#FCCB4E"/>
<path fill-rule="evenodd" clip-rule="evenodd" d="M15.8023 300.687C15.8023 297.954 18.018 295.738 20.7513 295.738V295.738C23.4845 295.738 25.7002 297.954 25.7002 300.687V332.321C25.7002 333.952 27.0218 335.273 28.6521 335.273V335.273C30.2824 335.273 31.604 333.952 31.604 332.321V324.176C31.604 321.443 33.8197 319.227 36.5529 319.227V319.227C39.2861 319.227 41.5018 321.443 41.5018 324.176V332.321C41.5018 333.952 42.8234 335.273 44.4537 335.273V335.273C46.084 335.273 47.4056 333.952 47.4056 332.321V319.293C47.4056 316.559 49.6213 314.344 52.3545 314.344V314.344C55.0878 314.344 57.3035 316.559 57.3035 319.293V385.441C57.3035 388.174 55.0878 390.39 52.3545 390.39V390.39C49.6213 390.39 47.4056 388.174 47.4056 385.441V369.621C47.4056 367.99 46.084 366.669 44.4537 366.669V366.669C42.8234 366.669 41.5018 367.99 41.5018 369.621V376.604C41.5018 379.337 39.2861 381.553 36.5529 381.553V381.553C33.8197 381.553 31.604 379.337 31.604 376.604V366.132C31.604 364.502 30.2824 363.18 28.6521 363.18V363.18C27.0218 363.18 25.7002 364.502 25.7002 366.132V372.185C25.7002 374.918 23.4845 377.134 20.7513 377.134V377.134C18.018 377.134 15.8023 374.918 15.8023 372.185V363.575C15.8023 361.944 14.4806 360.622 12.8501 360.622V360.622C11.2196 360.622 9.89787 361.944 9.89787 363.575V373.58C9.89787 376.313 7.68216 378.529 4.94894 378.529V378.529C2.21571 378.529 0 376.313 0 373.58V312.548C0 309.815 2.21571 307.599 4.94894 307.599V307.599C7.68216 307.599 9.89787 309.815 9.89787 312.548V319.996C9.89787 321.626 11.2196 322.948 12.8501 322.948V322.948C14.4806 322.948 15.8023 321.626 15.8023 319.996V300.687Z" fill="#BB4DCD"/>
<path fill-rule="evenodd" clip-rule="evenodd" d="M73.105 270.662C73.105 267.929 75.3207 265.713 78.0539 265.713V265.713C80.7871 265.713 83.0029 267.929 83.0029 270.662V327.379C83.0029 329.009 84.3246 330.331 85.9551 330.331V330.331C87.5856 330.331 88.9073 329.009 88.9073 327.379V309.053C88.9073 306.32 91.123 304.104 93.8563 304.104V304.104C96.5895 304.104 98.8052 306.32 98.8052 309.053V327.379C98.8052 329.009 100.127 330.331 101.757 330.331V330.331C103.388 330.331 104.71 329.009 104.71 327.379V301.071C104.71 298.338 106.925 296.122 109.659 296.122V296.122C112.392 296.122 114.608 298.338 114.608 301.071V415.466C114.608 418.2 112.392 420.415 109.659 420.415V420.415C106.925 420.415 104.71 418.2 104.71 415.466V384.597C104.71 382.966 103.388 381.645 101.757 381.645V381.645C100.127 381.645 98.8052 382.966 98.8052 384.597V401.023C98.8052 403.756 96.5895 405.971 93.8563 405.971V405.971C91.123 405.971 88.9073 403.756 88.9073 401.023V378.895C88.9073 377.265 87.5856 375.943 85.9551 375.943V375.943C84.3246 375.943 83.0029 377.265 83.0029 378.895V393.8C83.0029 396.533 80.7871 398.749 78.0539 398.749V398.749C75.3207 398.749 73.105 396.533 73.105 393.8V374.714C73.105 373.084 71.7834 371.762 70.1531 371.762V371.762C68.5228 371.762 67.2012 373.084 67.2012 374.714V396.081C67.2012 398.814 64.9855 401.03 62.2523 401.03V401.03C59.5191 401.03 57.3033 398.814 57.3033 396.081V290.048C57.3033 287.315 59.5191 285.099 62.2523 285.099V285.099C64.9855 285.099 67.2012 287.315 67.2012 290.048V307.234C67.2012 308.864 68.5228 310.186 70.1531 310.186V310.186C71.7834 310.186 73.105 308.864 73.105 307.234V270.662Z" fill="#BB4DCD"/>
<path fill-rule="evenodd" clip-rule="evenodd" d="M130.408 311.554C130.408 308.821 132.624 306.605 135.357 306.605V306.605C138.09 306.605 140.306 308.821 140.306 311.554V334.11C140.306 335.741 141.628 337.062 143.258 337.062V337.062C144.889 337.062 146.211 335.741 146.211 334.11V329.649C146.211 326.916 148.426 324.7 151.16 324.7V324.7C153.893 324.7 156.109 326.916 156.109 329.649V334.11C156.109 335.741 157.43 337.062 159.06 337.062V337.062C160.691 337.062 162.012 335.741 162.012 334.11V325.887C162.012 323.154 164.228 320.938 166.961 320.938V320.938C169.694 320.938 171.91 323.154 171.91 325.887V374.575C171.91 377.308 169.694 379.524 166.961 379.524V379.524C164.228 379.524 162.012 377.308 162.012 374.575V364.201C162.012 362.571 160.691 361.249 159.06 361.249V361.249C157.43 361.249 156.109 362.571 156.109 364.201V367.766C156.109 370.5 153.893 372.715 151.16 372.715V372.715C148.426 372.715 146.211 370.5 146.211 367.766V361.514C146.211 359.883 144.889 358.562 143.258 358.562V358.562C141.628 358.562 140.306 359.883 140.306 361.514V364.363C140.306 367.096 138.09 369.311 135.357 369.311V369.311C132.624 369.311 130.408 367.096 130.408 364.363V359.542C130.408 357.912 129.087 356.591 127.457 356.591V356.591C125.827 356.591 124.505 357.912 124.505 359.542V365.437C124.505 368.171 122.29 370.386 119.556 370.386V370.386C116.823 370.386 114.607 368.171 114.607 365.437V320.691C114.607 317.958 116.823 315.742 119.556 315.742V315.742C122.29 315.742 124.505 317.958 124.505 320.691V324.615C124.505 326.245 125.827 327.567 127.457 327.567V327.567C129.087 327.567 130.408 326.245 130.408 324.615V311.554Z" fill="#BB4DCD"/>
<path fill-rule="evenodd" clip-rule="evenodd" d="M187.713 311.554C187.713 308.821 189.929 306.605 192.662 306.605V306.605C195.395 306.605 197.611 308.821 197.611 311.554V334.111C197.611 335.741 198.932 337.062 200.562 337.062V337.062C202.193 337.062 203.514 335.741 203.514 334.111V329.649C203.514 326.916 205.73 324.7 208.463 324.7V324.7C211.196 324.7 213.412 326.916 213.412 329.649V334.11C213.412 335.741 214.733 337.062 216.364 337.062V337.062C217.994 337.062 219.316 335.741 219.316 334.11V325.887C219.316 323.154 221.531 320.938 224.265 320.938V320.938C226.998 320.938 229.214 323.154 229.214 325.887V374.575C229.214 377.308 226.998 379.524 224.265 379.524V379.524C221.531 379.524 219.316 377.308 219.316 374.575V364.201C219.316 362.571 217.994 361.249 216.364 361.249V361.249C214.733 361.249 213.412 362.571 213.412 364.201V367.766C213.412 370.5 211.196 372.715 208.463 372.715V372.715C205.73 372.715 203.514 370.5 203.514 367.766V361.513C203.514 359.883 202.193 358.562 200.562 358.562V358.562C198.932 358.562 197.611 359.883 197.611 361.513V364.363C197.611 367.096 195.395 369.311 192.662 369.311V369.311C189.929 369.311 187.713 367.096 187.713 364.363V359.543C187.713 357.913 186.391 356.591 184.76 356.591V356.591C183.13 356.591 181.808 357.913 181.808 359.543V365.437C181.808 368.171 179.592 370.386 176.859 370.386V370.386C174.126 370.386 171.91 368.171 171.91 365.437V320.691C171.91 317.958 174.126 315.742 176.859 315.742V315.742C179.592 315.742 181.808 317.958 181.808 320.691V324.614C181.808 326.245 183.13 327.567 184.76 327.567V327.567C186.391 327.567 187.713 326.245 187.713 324.614V311.554Z" fill="#BB4DCD"/>
<path fill-rule="evenodd" clip-rule="evenodd" d="M245.015 254.077C245.015 251.344 247.231 249.128 249.964 249.128V249.128C252.697 249.128 254.913 251.344 254.913 254.077V324.648C254.913 326.279 256.235 327.601 257.865 327.601V327.601C259.496 327.601 260.817 326.279 260.817 324.648V300.699C260.817 297.966 263.033 295.75 265.766 295.75V295.75C268.5 295.75 270.715 297.966 270.715 300.699V324.648C270.715 326.279 272.037 327.601 273.667 327.601V327.601C275.298 327.601 276.62 326.279 276.62 324.648V291.005C276.62 288.272 278.835 286.056 281.569 286.056V286.056C284.302 286.056 286.518 288.272 286.518 291.005V432.051C286.518 434.784 284.302 437 281.569 437V437C278.835 437 276.62 434.784 276.62 432.051V392.869C276.62 391.239 275.298 389.917 273.667 389.917V389.917C272.037 389.917 270.715 391.239 270.715 392.869V414.511C270.715 417.244 268.5 419.46 265.766 419.46V419.46C263.033 419.46 260.817 417.244 260.817 414.511V385.945C260.817 384.315 259.496 382.993 257.865 382.993V382.993C256.235 382.993 254.913 384.315 254.913 385.945V405.74C254.913 408.473 252.697 410.689 249.964 410.689V410.689C247.231 410.689 245.015 408.473 245.015 405.74V380.867C245.015 379.237 243.693 377.915 242.063 377.915V377.915C240.433 377.915 239.111 379.237 239.111 380.867V408.51C239.111 411.243 236.896 413.458 234.162 413.458V413.458C231.429 413.458 229.213 411.243 229.213 408.51V277.619C229.213 274.885 231.429 272.67 234.162 272.67V272.67C236.896 272.67 239.111 274.885 239.111 277.619V300.184C239.111 301.814 240.433 303.136 242.063 303.136V303.136C243.693 303.136 245.015 301.814 245.015 300.184V254.077Z" fill="#BB4DCD"/>
<path fill-rule="evenodd" clip-rule="evenodd" d="M302.318 311.554C302.318 308.821 304.534 306.605 307.267 306.605V306.605C310.001 306.605 312.216 308.821 312.216 311.554V334.11C312.216 335.74 313.538 337.062 315.169 337.062V337.062C316.799 337.062 318.121 335.74 318.121 334.11V329.649C318.121 326.916 320.337 324.7 323.07 324.7V324.7C325.804 324.7 328.019 326.916 328.019 329.649V334.111C328.019 335.741 329.341 337.062 330.971 337.062V337.062C332.601 337.062 333.922 335.741 333.922 334.111V325.887C333.922 323.154 336.138 320.938 338.871 320.938V320.938C341.605 320.938 343.82 323.154 343.82 325.887V374.575C343.82 377.308 341.605 379.524 338.871 379.524V379.524C336.138 379.524 333.922 377.308 333.922 374.575V364.201C333.922 362.571 332.601 361.249 330.971 361.249V361.249C329.341 361.249 328.019 362.571 328.019 364.201V367.766C328.019 370.5 325.804 372.715 323.07 372.715V372.715C320.337 372.715 318.121 370.5 318.121 367.766V361.514C318.121 359.884 316.799 358.562 315.169 358.562V358.562C313.538 358.562 312.216 359.884 312.216 361.514V364.363C312.216 367.096 310.001 369.311 307.267 369.311V369.311C304.534 369.311 302.318 367.096 302.318 364.363V359.542C302.318 357.912 300.997 356.591 299.367 356.591V356.591C297.737 356.591 296.415 357.912 296.415 359.542V365.437C296.415 368.171 294.2 370.386 291.466 370.386V370.386C288.733 370.386 286.517 368.171 286.517 365.437V320.691C286.517 317.958 288.733 315.742 291.466 315.742V315.742C294.2 315.742 296.415 317.958 296.415 320.691V324.615C296.415 326.245 297.737 327.567 299.367 327.567V327.567C300.997 327.567 302.318 326.245 302.318 324.615V311.554Z" fill="#BB4DCD"/>
<rect width="344" height="491" fill="#363636" fill-opacity="0.5"/>
<path fill-rule="evenodd" clip-rule="evenodd" d="M180.371 79.352L214.043 98.56C219.542 101.752 222.943 107.52 223 113.848V152.152C223 158.48 219.599 164.304 214.1 167.44L180.428 186.648C174.873 189.784 168.07 189.784 162.572 186.648L128.9 167.44C123.401 164.248 120 158.424 120 152.152V113.848C120 107.52 123.401 101.696 128.9 98.56L162.515 79.352C168.07 76.216 174.873 76.216 180.371 79.352ZM184.68 119.952C184.68 112.728 178.784 106.904 171.472 106.904C164.159 106.904 158.264 112.784 158.264 119.952C158.264 127.176 164.159 133 171.472 133C178.784 133 184.68 127.176 184.68 119.952ZM156.28 159.096H186.664C191.199 159.096 193.92 154 191.369 150.304C187.514 144.648 180.031 140.84 171.472 140.84C162.912 140.84 155.429 144.648 151.575 150.304C149.024 154.056 151.688 159.096 156.28 159.096ZM162.135 104.823V96.7664C162.135 95.759 163.456 95.3838 163.986 96.2408L165.383 98.5036C165.759 99.1109 166.631 99.1408 167.047 98.5608L167.955 97.295C168.332 96.7686 169.103 96.7345 169.525 97.2255L170.966 98.8995C171.365 99.3632 172.083 99.3632 172.482 98.8995L173.994 97.1423C174.393 96.6787 175.111 96.6787 175.51 97.1423L176.693 98.5172C177.185 99.0894 178.11 98.9306 178.383 98.2269L178.876 96.958C179.277 95.9263 180.808 96.2132 180.808 97.32V104.608C180.808 105.468 179.754 105.974 179.012 105.538C175.682 103.579 169.928 102.052 163.794 105.706C163.086 106.128 162.135 105.646 162.135 104.823Z" fill="#FCCB4E"/>
<path d="M111.955 144.725L101.313 138.437C99.5748 137.41 97.4248 137.41 95.6689 138.437L85.0444 144.725C83.3064 145.752 82.2314 147.658 82.2314 149.73V162.27C82.2314 164.323 83.3064 166.23 85.0444 167.275L95.6869 173.563C97.4248 174.59 99.5748 174.59 101.331 173.563L111.973 167.275C113.711 166.248 114.786 164.342 114.786 162.27V149.73C114.768 147.658 113.693 145.77 111.955 144.725ZM98.4998 147.457C100.811 147.457 102.674 149.363 102.674 151.728C102.674 154.093 100.811 156 98.4998 156C96.1885 156 94.3252 154.093 94.3252 151.728C94.3252 149.382 96.1885 147.457 98.4998 147.457ZM103.301 164.543H93.6981C92.2469 164.543 91.4048 162.893 92.211 161.665C93.4294 159.813 95.7944 158.567 98.4998 158.567C101.205 158.567 103.57 159.813 104.789 161.665C105.595 162.875 104.735 164.543 103.301 164.543Z" fill="#BB4DCD"/>
<path d="M257.955 144.725L247.313 138.437C245.575 137.41 243.425 137.41 241.669 138.437L231.044 144.725C229.306 145.752 228.231 147.658 228.231 149.73V162.27C228.231 164.323 229.306 166.23 231.044 167.275L241.687 173.563C243.425 174.59 245.575 174.59 247.331 173.563L257.973 167.275C259.711 166.248 260.786 164.342 260.786 162.27V149.73C260.768 147.658 259.693 145.77 257.955 144.725ZM244.5 147.457C246.811 147.457 248.674 149.363 248.674 151.728C248.674 154.093 246.811 156 244.5 156C242.189 156 240.325 154.093 240.325 151.728C240.325 149.382 242.189 147.457 244.5 147.457ZM249.301 164.543H239.698C238.247 164.543 237.405 162.893 238.211 161.665C239.429 159.813 241.794 158.567 244.5 158.567C247.205 158.567 249.57 159.813 250.789 161.665C251.595 162.875 250.735 164.543 249.301 164.543Z" fill="#BB4DCD"/>
</g>
<defs>
<clipPath id="clip0_673_3470">
<rect width="344" height="491" rx="38" fill="white"/>
</clipPath>
</defs>
</svg>
