<svg width="184" height="132" viewBox="0 0 184 132" fill="none" xmlns="http://www.w3.org/2000/svg">
<rect width="184" height="132" rx="8" fill="#FCCB4E" fill-opacity="0.5"/>
<path d="M100.1 46.1905C98.2899 46.1905 97.5499 44.9105 98.4499 43.3405C98.9699 42.4305 98.6599 41.2705 97.7499 40.7505L96.0199 39.7605C95.2299 39.2905 94.2099 39.5705 93.7399 40.3605L93.6299 40.5505C92.7299 42.1205 91.2499 42.1205 90.3399 40.5505L90.2299 40.3605C89.7799 39.5705 88.7599 39.2905 87.9699 39.7605L86.2399 40.7505C85.3299 41.2705 85.0199 42.4405 85.5399 43.3505C86.4499 44.9105 85.7099 46.1905 83.8999 46.1905C82.8599 46.1905 81.9999 47.0405 81.9999 48.0905V49.8505C81.9999 50.8905 82.8499 51.7505 83.8999 51.7505C85.7099 51.7505 86.4499 53.0305 85.5399 54.6005C85.0199 55.5105 85.3299 56.6705 86.2399 57.1905L87.9699 58.1805C88.7599 58.6505 89.7799 58.3705 90.2499 57.5805L90.3599 57.3905C91.2599 55.8205 92.7399 55.8205 93.6499 57.3905L93.7599 57.5805C94.2299 58.3705 95.2499 58.6505 96.0399 58.1805L97.7699 57.1905C98.6799 56.6705 98.9899 55.5005 98.4699 54.6005C97.5599 53.0305 98.2999 51.7505 100.11 51.7505C101.15 51.7505 102.01 50.9005 102.01 49.8505V48.0905C102 47.0505 101.15 46.1905 100.1 46.1905ZM91.9999 52.2205C90.2099 52.2205 88.7499 50.7605 88.7499 48.9705C88.7499 47.1805 90.2099 45.7205 91.9999 45.7205C93.7899 45.7205 95.2499 47.1805 95.2499 48.9705C95.2499 50.7605 93.7899 52.2205 91.9999 52.2205Z" fill="white"/>
<path d="M35.7359 83.3706C35.9279 82.2719 36.3439 81.2906 36.9839 80.4265C37.6345 79.5519 38.4292 78.8745 39.3679 78.3946C40.3172 77.9039 41.3252 77.6586 42.3919 77.6586C43.6399 77.6586 44.6799 77.9786 45.5119 78.6186C46.3439 79.2586 46.8452 80.1439 47.0159 81.2745H44.4399C44.2692 80.7625 43.9759 80.3785 43.5599 80.1226C43.1439 79.8559 42.6319 79.7226 42.0239 79.7226C41.3732 79.7226 40.7652 79.8719 40.1999 80.1706C39.6452 80.4692 39.1759 80.8959 38.7919 81.4506C38.4185 82.0052 38.1679 82.6452 38.0399 83.3706C37.9865 83.7119 37.9599 83.9946 37.9599 84.2186C37.9599 85.0826 38.2052 85.7652 38.6959 86.2666C39.1972 86.7679 39.8745 87.0186 40.7279 87.0186C41.3359 87.0186 41.8959 86.8852 42.4079 86.6186C42.9199 86.3519 43.3519 85.9626 43.7039 85.4506H46.2799C45.7039 86.5919 44.8879 87.4826 43.8319 88.1226C42.7865 88.7519 41.6399 89.0666 40.3919 89.0666C39.4532 89.0666 38.6212 88.8799 37.8959 88.5066C37.1812 88.1226 36.6265 87.5839 36.2319 86.8906C35.8372 86.1972 35.6399 85.4026 35.6399 84.5066C35.6399 84.1332 35.6719 83.7546 35.7359 83.3706ZM51.0211 89.1146C50.2638 89.1146 49.5918 88.9599 49.0051 88.6506C48.4291 88.3412 47.9811 87.9039 47.6611 87.3386C47.3411 86.7732 47.1811 86.1226 47.1811 85.3866C47.1811 84.3839 47.4158 83.4719 47.8851 82.6506C48.3651 81.8186 49.0158 81.1626 49.8371 80.6826C50.6691 80.2026 51.5918 79.9626 52.6051 79.9626C53.3625 79.9626 54.0345 80.1226 54.6211 80.4425C55.2185 80.7519 55.6771 81.1892 55.9971 81.7545C56.3278 82.3199 56.4931 82.9706 56.4931 83.7066C56.4931 84.7199 56.2531 85.6372 55.7731 86.4586C55.2931 87.2799 54.6318 87.9306 53.7891 88.4106C52.9571 88.8799 52.0345 89.1146 51.0211 89.1146ZM51.3251 87.1946C51.8585 87.1946 52.3438 87.0399 52.7811 86.7306C53.2185 86.4212 53.5598 86.0106 53.8051 85.4986C54.0505 84.9866 54.1731 84.4479 54.1731 83.8826C54.1731 83.2426 53.9918 82.7519 53.6291 82.4106C53.2771 82.0586 52.8291 81.8826 52.2851 81.8826C51.7411 81.8826 51.2558 82.0372 50.8291 82.3465C50.4131 82.6559 50.0878 83.0719 49.8531 83.5946C49.6185 84.1066 49.5011 84.6506 49.5011 85.2266C49.5011 85.8559 49.6665 86.3412 49.9971 86.6826C50.3385 87.0239 50.7811 87.1946 51.3251 87.1946ZM63.2523 79.9785C64.1696 79.9785 64.8896 80.2292 65.4123 80.7305C65.9456 81.2212 66.2123 81.9252 66.2123 82.8426C66.2123 83.1839 66.1856 83.4932 66.1323 83.7706L65.2043 88.9706H62.9803L63.8443 84.0746C63.8763 83.8826 63.8923 83.6959 63.8923 83.5146C63.8923 82.9812 63.7483 82.5759 63.4603 82.2986C63.1829 82.0212 62.7829 81.8826 62.2603 81.8826C61.6629 81.8826 61.1509 82.0639 60.7243 82.4266C60.3083 82.7786 60.0309 83.2906 59.8923 83.9626L59.0123 88.9706H56.7563L58.3243 80.1066H60.5803L60.3883 81.1946C60.7509 80.8212 61.1829 80.5279 61.6843 80.3146C62.1856 80.0906 62.7083 79.9785 63.2523 79.9785ZM68.7384 79.6586C68.9304 78.5706 69.3784 77.7706 70.0824 77.2585C70.7864 76.7465 71.757 76.5066 72.9944 76.5386L72.6744 78.4265C72.141 78.4159 71.7464 78.5066 71.4904 78.6986C71.2344 78.8906 71.0637 79.2372 70.9784 79.7386L70.9144 80.1066H72.4664L72.1464 81.9466H70.5944L69.3464 88.9706H67.0904L68.3384 81.9466H67.3144L67.6344 80.1066H68.6584L68.7384 79.6586ZM74.746 79.0506C74.394 79.0506 74.1113 78.9492 73.898 78.7465C73.6847 78.5439 73.578 78.2879 73.578 77.9785C73.578 77.5519 73.738 77.1892 74.058 76.8905C74.3887 76.5812 74.7727 76.4265 75.21 76.4265C75.5513 76.4265 75.8287 76.5279 76.042 76.7305C76.2553 76.9332 76.362 77.1892 76.362 77.4986C76.362 77.9252 76.202 78.2932 75.882 78.6026C75.562 78.9012 75.1833 79.0506 74.746 79.0506ZM75.674 80.1066L74.106 88.9706H71.85L73.418 80.1066H75.674ZM76.0271 84.5066C76.1871 83.6106 76.5018 82.8159 76.9711 82.1226C77.4511 81.4292 78.0325 80.8959 78.7151 80.5226C79.4085 80.1492 80.1338 79.9626 80.8911 79.9626C81.4671 79.9626 81.9951 80.0906 82.4751 80.3465C82.9551 80.5919 83.3125 80.9226 83.5471 81.3386L84.2991 77.1306H86.5551L84.4591 88.9706H82.2031L82.4431 87.6586C82.0911 88.0959 81.6378 88.4479 81.0831 88.7146C80.5391 88.9812 79.9365 89.1146 79.2751 89.1146C78.6245 89.1146 78.0431 88.9706 77.5311 88.6826C77.0298 88.3839 76.6351 87.9679 76.3471 87.4346C76.0698 86.8906 75.9311 86.2612 75.9311 85.5466C75.9311 85.2159 75.9631 84.8692 76.0271 84.5066ZM82.9871 84.5386C83.0298 84.2612 83.0511 84.0586 83.0511 83.9306C83.0511 83.3012 82.8645 82.8106 82.4911 82.4586C82.1285 82.1066 81.6698 81.9306 81.1151 81.9306C80.6991 81.9306 80.2938 82.0319 79.8991 82.2345C79.5151 82.4372 79.1791 82.7359 78.8911 83.1306C78.6031 83.5146 78.4111 83.9732 78.3151 84.5066C78.2831 84.7092 78.2671 84.9012 78.2671 85.0826C78.2671 85.7226 78.4485 86.2292 78.8111 86.6026C79.1738 86.9652 79.6325 87.1466 80.1871 87.1466C80.6031 87.1466 81.0085 87.0452 81.4031 86.8426C81.7978 86.6292 82.1338 86.3252 82.4111 85.9306C82.6991 85.5359 82.8911 85.0719 82.9871 84.5386ZM91.6189 79.9626C92.7495 79.9626 93.6455 80.2772 94.3069 80.9066C94.9682 81.5252 95.2989 82.3626 95.2989 83.4186C95.2989 83.7599 95.2722 84.0639 95.2189 84.3306C95.1549 84.6506 95.0855 84.9279 95.0109 85.1626H88.5309C88.5202 85.2372 88.5149 85.3439 88.5149 85.4826C88.5149 86.0372 88.6749 86.4746 88.9949 86.7946C89.3255 87.1039 89.7575 87.2586 90.2909 87.2586C90.7389 87.2586 91.1229 87.1626 91.4429 86.9706C91.7735 86.7679 92.0402 86.5066 92.2429 86.1866H94.6589C94.2642 87.0399 93.6509 87.7439 92.8189 88.2986C91.9975 88.8426 91.0642 89.1146 90.0189 89.1146C88.8882 89.1146 87.9815 88.7946 87.2989 88.1546C86.6162 87.5146 86.2749 86.6452 86.2749 85.5466C86.2749 85.2266 86.3069 84.8906 86.3709 84.5386C86.5309 83.6212 86.8562 82.8159 87.3469 82.1226C87.8482 81.4292 88.4669 80.8959 89.2029 80.5226C89.9389 80.1492 90.7442 79.9626 91.6189 79.9626ZM92.9949 83.8026C93.0162 83.6319 93.0269 83.5092 93.0269 83.4346C93.0269 82.9226 92.8615 82.5226 92.5309 82.2345C92.2002 81.9466 91.7682 81.8026 91.2349 81.8026C90.6695 81.8026 90.1629 81.9839 89.7149 82.3465C89.2669 82.6986 88.9522 83.1839 88.7709 83.8026H92.9949ZM102.018 79.9785C102.935 79.9785 103.655 80.2292 104.178 80.7305C104.711 81.2212 104.978 81.9252 104.978 82.8426C104.978 83.1839 104.951 83.4932 104.898 83.7706L103.97 88.9706H101.746L102.61 84.0746C102.642 83.8826 102.658 83.6959 102.658 83.5146C102.658 82.9812 102.514 82.5759 102.226 82.2986C101.949 82.0212 101.549 81.8826 101.026 81.8826C100.429 81.8826 99.9165 82.0639 99.4899 82.4266C99.0739 82.7786 98.7965 83.2906 98.6579 83.9626L97.7779 88.9706H95.5219L97.0899 80.1066H99.3459L99.1539 81.1946C99.5165 80.8212 99.9485 80.5279 100.45 80.3146C100.951 80.0906 101.474 79.9785 102.018 79.9785ZM108.704 86.2346C108.693 86.2986 108.688 86.3839 108.688 86.4906C108.688 86.7039 108.747 86.8586 108.864 86.9546C108.992 87.0399 109.2 87.0826 109.488 87.0826H110.544L110.208 88.9706H108.784C107.184 88.9706 106.384 88.3039 106.384 86.9706C106.384 86.7146 106.405 86.4639 106.448 86.2186L107.2 81.9466H106.144L106.464 80.1066H107.536L107.92 77.9145H110.176L109.792 80.1066H111.76L111.44 81.9466H109.456L108.704 86.2346ZM114.199 79.0506C113.847 79.0506 113.564 78.9492 113.351 78.7465C113.138 78.5439 113.031 78.2879 113.031 77.9785C113.031 77.5519 113.191 77.1892 113.511 76.8905C113.842 76.5812 114.226 76.4265 114.663 76.4265C115.004 76.4265 115.282 76.5279 115.495 76.7305C115.708 76.9332 115.815 77.1892 115.815 77.4986C115.815 77.9252 115.655 78.2932 115.335 78.6026C115.015 78.9012 114.636 79.0506 114.199 79.0506ZM115.127 80.1066L113.559 88.9706H111.303L112.871 80.1066H115.127ZM115.48 84.5066C115.64 83.6106 115.955 82.8159 116.424 82.1226C116.904 81.4292 117.486 80.8959 118.168 80.5226C118.851 80.1492 119.571 79.9626 120.328 79.9626C120.99 79.9626 121.544 80.0959 121.992 80.3625C122.451 80.6292 122.787 80.9652 123 81.3706L123.224 80.1066H125.48L123.912 88.9706H121.656L121.896 87.6746C121.544 88.0906 121.086 88.4372 120.52 88.7146C119.966 88.9812 119.358 89.1146 118.696 89.1146C118.046 89.1146 117.47 88.9706 116.968 88.6826C116.467 88.3839 116.078 87.9679 115.8 87.4346C115.523 86.8906 115.384 86.2612 115.384 85.5466C115.384 85.2159 115.416 84.8692 115.48 84.5066ZM122.44 84.5386C122.483 84.2612 122.504 84.0586 122.504 83.9306C122.504 83.3012 122.318 82.8106 121.944 82.4586C121.582 82.1066 121.123 81.9306 120.568 81.9306C120.152 81.9306 119.747 82.0319 119.352 82.2345C118.968 82.4372 118.632 82.7359 118.344 83.1306C118.056 83.5146 117.864 83.9732 117.768 84.5066C117.736 84.7092 117.72 84.9012 117.72 85.0826C117.72 85.7226 117.902 86.2292 118.264 86.6026C118.627 86.9652 119.086 87.1466 119.64 87.1466C120.056 87.1466 120.462 87.0452 120.856 86.8426C121.251 86.6292 121.587 86.3252 121.864 85.9306C122.152 85.5359 122.344 85.0719 122.44 84.5386ZM129.952 77.1306L127.856 88.9706H125.6L127.696 77.1306H129.952ZM132.449 79.0506C132.097 79.0506 131.814 78.9492 131.601 78.7465C131.388 78.5439 131.281 78.2879 131.281 77.9785C131.281 77.5519 131.441 77.1892 131.761 76.8905C132.092 76.5812 132.476 76.4265 132.913 76.4265C133.254 76.4265 133.532 76.5279 133.745 76.7305C133.958 76.9332 134.065 77.1892 134.065 77.4986C134.065 77.9252 133.905 78.2932 133.585 78.6026C133.265 78.9012 132.886 79.0506 132.449 79.0506ZM133.377 80.1066L131.809 88.9706H129.553L131.121 80.1066H133.377ZM136.61 86.2346C136.6 86.2986 136.594 86.3839 136.594 86.4906C136.594 86.7039 136.653 86.8586 136.77 86.9546C136.898 87.0399 137.106 87.0826 137.394 87.0826H138.45L138.114 88.9706H136.69C135.09 88.9706 134.29 88.3039 134.29 86.9706C134.29 86.7146 134.312 86.4639 134.354 86.2186L135.106 81.9466H134.05L134.37 80.1066H135.442L135.826 77.9145H138.082L137.698 80.1066H139.666L139.346 81.9466H137.362L136.61 86.2346ZM144.681 79.9626C145.812 79.9626 146.708 80.2772 147.369 80.9066C148.031 81.5252 148.361 82.3626 148.361 83.4186C148.361 83.7599 148.335 84.0639 148.281 84.3306C148.217 84.6506 148.148 84.9279 148.073 85.1626H141.593C141.583 85.2372 141.577 85.3439 141.577 85.4826C141.577 86.0372 141.737 86.4746 142.057 86.7946C142.388 87.1039 142.82 87.2586 143.353 87.2586C143.801 87.2586 144.185 87.1626 144.505 86.9706C144.836 86.7679 145.103 86.5066 145.305 86.1866H147.721C147.327 87.0399 146.713 87.7439 145.881 88.2986C145.06 88.8426 144.127 89.1146 143.081 89.1146C141.951 89.1146 141.044 88.7946 140.361 88.1546C139.679 87.5146 139.337 86.6452 139.337 85.5466C139.337 85.2266 139.369 84.8906 139.433 84.5386C139.593 83.6212 139.919 82.8159 140.409 82.1226C140.911 81.4292 141.529 80.8959 142.265 80.5226C143.001 80.1492 143.807 79.9626 144.681 79.9626ZM146.057 83.8026C146.079 83.6319 146.089 83.5092 146.089 83.4346C146.089 82.9226 145.924 82.5226 145.593 82.2345C145.263 81.9466 144.831 81.8026 144.297 81.8026C143.732 81.8026 143.225 81.9839 142.777 82.3465C142.329 82.6986 142.015 83.1839 141.833 83.8026H146.057ZM146.841 77.8026L142.841 79.4825L143.129 77.8826L147.161 75.9785L146.841 77.8026Z" fill="white"/>
</svg>
