<svg width="24" height="25" viewBox="0 0 24 25" fill="none" xmlns="http://www.w3.org/2000/svg">
<path d="M22.0003 6.20951V15.7895C22.0003 18.5495 19.7603 20.7895 17.0003 20.7895H7.00031C6.54031 20.7895 6.10031 20.7295 5.67031 20.6095C5.05031 20.4395 4.85031 19.6495 5.31031 19.1895L15.9403 8.55951C16.1603 8.33951 16.4903 8.28951 16.8003 8.34951C17.1203 8.40951 17.4703 8.31951 17.7203 8.07951L20.2903 5.49951C21.2303 4.55951 22.0003 4.86951 22.0003 6.20951Z" fill="white"/>
<path d="M14.64 7.85953L4.17 18.3295C3.69 18.8095 2.89 18.6895 2.57 18.0895C2.2 17.4095 2 16.6195 2 15.7895V6.20953C2 4.86953 2.77 4.55953 3.71 5.49953L6.29 8.08953C6.68 8.46953 7.32 8.46953 7.71 8.08953L11.29 4.49953C11.68 4.10953 12.32 4.10953 12.71 4.49953L14.65 6.43953C15.03 6.82953 15.03 7.46953 14.64 7.85953Z" fill="white"/>
</svg>
