<svg width="26" height="27" viewBox="0 0 26 27" fill="none" xmlns="http://www.w3.org/2000/svg">
<path d="M13 26.5C20.1797 26.5 26 20.6797 26 13.5C26 6.3203 20.1797 0.5 13 0.5C5.8203 0.5 0 6.3203 0 13.5C0 20.6797 5.8203 26.5 13 26.5Z" fill="#3C5A9A"/>
<path d="M16.9881 4.5H14.2711C12.6587 4.5 10.8653 5.218 10.8653 7.69259C10.8732 8.55482 10.8653 9.3806 10.8653 10.3099H9V13.4527H10.923V22.5H14.4567V13.393H16.789L17 10.3011H14.3958C14.3958 10.3011 14.4016 8.92575 14.3958 8.52634C14.3958 7.54844 15.3568 7.60444 15.4146 7.60444C15.8719 7.60444 16.7612 7.60585 16.9894 7.60444V4.5H16.9881Z" fill="white"/>
</svg>
