<svg width="26" height="27" viewBox="0 0 26 27" fill="none" xmlns="http://www.w3.org/2000/svg">
<mask id="mask0_64_361" style="mask-type:luminance" maskUnits="userSpaceOnUse" x="0" y="0" width="26" height="27">
<path d="M25.1136 11.1364H13V16.1591H19.9727C19.3227 19.35 16.6045 21.1818 13 21.1818C8.74545 21.1818 5.31818 17.7545 5.31818 13.5C5.31818 9.24545 8.74545 5.81818 13 5.81818C14.8318 5.81818 16.4863 6.4682 17.7863 7.53183L21.5682 3.75C19.2636 1.74091 16.3091 0.5 13 0.5C5.79091 0.5 0 6.29091 0 13.5C0 20.7091 5.79091 26.5 13 26.5C19.5 26.5 25.4091 21.7727 25.4091 13.5C25.4091 12.7318 25.2909 11.9045 25.1136 11.1364Z" fill="white"/>
</mask>
<g mask="url(#mask0_64_361)">
<path d="M-1.18182 21.1818V5.81818L8.86363 13.5L-1.18182 21.1818Z" fill="#FBBC05"/>
</g>
<mask id="mask1_64_361" style="mask-type:luminance" maskUnits="userSpaceOnUse" x="0" y="0" width="26" height="27">
<path d="M25.1136 11.1364H13V16.1591H19.9727C19.3227 19.35 16.6045 21.1818 13 21.1818C8.74545 21.1818 5.31818 17.7545 5.31818 13.5C5.31818 9.24545 8.74545 5.81818 13 5.81818C14.8318 5.81818 16.4863 6.4682 17.7863 7.53183L21.5682 3.75C19.2636 1.74091 16.3091 0.5 13 0.5C5.79091 0.5 0 6.29091 0 13.5C0 20.7091 5.79091 26.5 13 26.5C19.5 26.5 25.4091 21.7727 25.4091 13.5C25.4091 12.7318 25.2909 11.9045 25.1136 11.1364Z" fill="white"/>
</mask>
<g mask="url(#mask1_64_361)">
<path d="M-1.18182 5.81818L8.86363 13.5L13 9.89546L27.1818 7.5909V-0.681824H-1.18182V5.81818Z" fill="#EA4335"/>
</g>
<mask id="mask2_64_361" style="mask-type:luminance" maskUnits="userSpaceOnUse" x="0" y="0" width="26" height="27">
<path d="M25.1136 11.1364H13V16.1591H19.9727C19.3227 19.35 16.6045 21.1818 13 21.1818C8.74545 21.1818 5.31818 17.7545 5.31818 13.5C5.31818 9.24545 8.74545 5.81818 13 5.81818C14.8318 5.81818 16.4863 6.4682 17.7863 7.53183L21.5682 3.75C19.2636 1.74091 16.3091 0.5 13 0.5C5.79091 0.5 0 6.29091 0 13.5C0 20.7091 5.79091 26.5 13 26.5C19.5 26.5 25.4091 21.7727 25.4091 13.5C25.4091 12.7318 25.2909 11.9045 25.1136 11.1364Z" fill="white"/>
</mask>
<g mask="url(#mask2_64_361)">
<path d="M-1.18182 21.1818L16.5454 7.5909L21.2136 8.18181L27.1818 -0.681824V27.6818H-1.18182V21.1818Z" fill="#34A853"/>
</g>
<mask id="mask3_64_361" style="mask-type:luminance" maskUnits="userSpaceOnUse" x="0" y="0" width="26" height="27">
<path d="M25.1136 11.1364H13V16.1591H19.9727C19.3227 19.35 16.6045 21.1818 13 21.1818C8.74545 21.1818 5.31818 17.7545 5.31818 13.5C5.31818 9.24545 8.74545 5.81818 13 5.81818C14.8318 5.81818 16.4863 6.4682 17.7863 7.53183L21.5682 3.75C19.2636 1.74091 16.3091 0.5 13 0.5C5.79091 0.5 0 6.29091 0 13.5C0 20.7091 5.79091 26.5 13 26.5C19.5 26.5 25.4091 21.7727 25.4091 13.5C25.4091 12.7318 25.2909 11.9045 25.1136 11.1364Z" fill="white"/>
</mask>
<g mask="url(#mask3_64_361)">
<path d="M27.1818 27.6818L8.86364 13.5L6.5 11.7273L27.1818 5.81818V27.6818Z" fill="#4285F4"/>
</g>
</svg>
