<svg width="84" height="85" viewBox="0 0 84 85" fill="none" xmlns="http://www.w3.org/2000/svg">
<g filter="url(#filter0_d_94_2059)">
<path d="M50.5854 75.1327C47.2715 76.3389 43.6386 76.3389 40.3248 75.1327L25.8381 69.86C22.5242 68.6538 19.7412 66.3187 17.978 63.2646L10.2698 49.9136C8.50648 46.8595 7.87564 43.2818 8.48802 39.8088L11.1651 24.6266C11.7774 21.1536 13.5939 18.0075 16.2954 15.7407L28.105 5.83117C30.8065 3.56435 34.2203 2.32184 37.7469 2.32184H53.1633C56.6898 2.32184 60.1036 3.56436 62.8051 5.83117L74.6148 15.7407C77.3163 18.0075 79.1327 21.1536 79.7451 24.6266L82.4221 39.8088C83.0345 43.2818 82.4037 46.8595 80.6404 49.9136L72.9322 63.2646C71.1689 66.3187 68.386 68.6538 65.0721 69.86L50.5854 75.1327Z" fill="#FFC4E0" fill-opacity="0.9" shape-rendering="crispEdges"/>
<path d="M41.6929 71.374L27.2061 66.1012C24.776 65.2167 22.7351 63.5043 21.4421 61.2646L13.7339 47.9136C12.4408 45.6739 11.9782 43.0503 12.4273 40.5034L15.1043 25.3212C15.5534 22.7744 16.8854 20.4672 18.8665 18.8048L30.6762 8.89535C32.6573 7.23302 35.1607 6.32184 37.7469 6.32184H53.1633C55.7494 6.32184 58.2529 7.23302 60.234 8.89535L72.0436 18.8048C74.0247 20.4672 75.3568 22.7744 75.8059 25.3212L78.4829 40.5034C78.932 43.0503 78.4694 45.6739 77.1763 47.9136L69.4681 61.2646C68.175 63.5043 66.1342 65.2167 63.704 66.1012L49.2173 71.374C46.7871 72.2585 44.123 72.2585 41.6929 71.374Z" stroke="#D898E3" stroke-width="8" shape-rendering="crispEdges"/>
</g>
<path d="M35.012 38.982C35.012 44.5116 39.5021 49.0017 45.0317 49.0017C50.6603 49.0017 55.1999 44.3631 55.0514 38.6992C54.9029 33.4737 50.5472 29.1179 45.3216 28.9694C39.6506 28.8138 35.012 33.3535 35.012 38.982ZM45.2085 32.6463C46.8631 32.6888 48.3834 33.403 49.5006 34.5202C50.6179 35.6374 51.332 37.1577 51.3745 38.8123C51.3815 39.2295 51.0563 39.5689 50.6461 39.5831C50.229 39.5901 49.8895 39.2649 49.8754 38.8547C49.8047 36.3374 47.6975 34.2161 45.1661 34.1454C44.756 34.1313 44.4236 33.7848 44.4378 33.3747C44.4448 32.9575 44.7913 32.6393 45.2085 32.6463Z" fill="#BB4DCD"/>
<path d="M52.5514 28.2876C52.5514 30.3554 54.2305 32.0345 56.2983 32.0345C58.4031 32.0345 60.1007 30.2999 60.0452 28.1819C59.9897 26.2278 58.3608 24.5989 56.4067 24.5434C54.286 24.4852 52.5514 26.1828 52.5514 28.2876ZM56.3644 25.9184C56.9831 25.9342 57.5516 26.2013 57.9694 26.6191C58.3872 27.0369 58.6543 27.6054 58.6702 28.2242C58.6728 28.3802 58.5512 28.5071 58.3978 28.5124C58.2418 28.515 58.1149 28.3934 58.1096 28.24C58.0831 27.2987 57.2952 26.5054 56.3485 26.479C56.1951 26.4737 56.0709 26.3441 56.0762 26.1907C56.0788 26.0347 56.2084 25.9157 56.3644 25.9184Z" fill="#BB4DCD"/>
<defs>
<filter id="filter0_d_94_2059" x="0.259766" y="2.32227" width="82.3906" height="81.7148" filterUnits="userSpaceOnUse" color-interpolation-filters="sRGB">
<feFlood flood-opacity="0" result="BackgroundImageFix"/>
<feColorMatrix in="SourceAlpha" type="matrix" values="0 0 0 0 0 0 0 0 0 0 0 0 0 0 0 0 0 0 127 0" result="hardAlpha"/>
<feOffset dx="-4" dy="4"/>
<feGaussianBlur stdDeviation="2"/>
<feComposite in2="hardAlpha" operator="out"/>
<feColorMatrix type="matrix" values="0 0 0 0 0 0 0 0 0 0 0 0 0 0 0 0 0 0 0.25 0"/>
<feBlend mode="normal" in2="BackgroundImageFix" result="effect1_dropShadow_94_2059"/>
<feBlend mode="normal" in="SourceGraphic" in2="effect1_dropShadow_94_2059" result="shape"/>
</filter>
</defs>
</svg>
