<svg width="81" height="85" viewBox="0 0 81 85" fill="none" xmlns="http://www.w3.org/2000/svg">
<g filter="url(#filter0_d_94_2063)">
<path d="M45.75 75.2804C43.2748 76.7095 40.2252 76.7095 37.75 75.2804L12.1526 60.5018C9.67734 59.0727 8.15255 56.4317 8.15255 53.5736L8.15255 24.0162C8.15255 21.1581 9.67734 18.5171 12.1525 17.088L37.75 2.30933C40.2252 0.880271 43.2748 0.88027 45.75 2.30933L71.3474 17.088C73.8226 18.5171 75.3474 21.1581 75.3474 24.0162L75.3474 53.5736C75.3474 56.4317 73.8226 59.0727 71.3474 60.5018L45.75 75.2804Z" fill="#FFE194"/>
<path d="M39.75 71.8163L14.1525 57.0377C12.9149 56.3231 12.1525 55.0026 12.1525 53.5736L12.1525 24.0162C12.1525 22.5871 12.9149 21.2666 14.1525 20.5521L39.75 5.77344C40.9876 5.05891 42.5124 5.05891 43.75 5.77344L69.3474 20.5521C70.585 21.2666 71.3474 22.5871 71.3474 24.0162L71.3474 53.5736C71.3474 55.0026 70.585 56.3231 69.3474 57.0377L43.75 71.8163C42.5124 72.5309 40.9876 72.5309 39.75 71.8163Z" stroke="#FCCB4E" stroke-width="8"/>
</g>
<path d="M31.6992 39.0762H51.989" stroke="#886500" stroke-width="4" stroke-linecap="round" stroke-linejoin="round"/>
<path d="M41.8438 49.2214V28.9316" stroke="#886500" stroke-width="4" stroke-linecap="round" stroke-linejoin="round"/>
<defs>
<filter id="filter0_d_94_2063" x="0.152344" y="1.23828" width="75.1953" height="83.1133" filterUnits="userSpaceOnUse" color-interpolation-filters="sRGB">
<feFlood flood-opacity="0" result="BackgroundImageFix"/>
<feColorMatrix in="SourceAlpha" type="matrix" values="0 0 0 0 0 0 0 0 0 0 0 0 0 0 0 0 0 0 127 0" result="hardAlpha"/>
<feOffset dx="-4" dy="4"/>
<feGaussianBlur stdDeviation="2"/>
<feComposite in2="hardAlpha" operator="out"/>
<feColorMatrix type="matrix" values="0 0 0 0 0 0 0 0 0 0 0 0 0 0 0 0 0 0 0.25 0"/>
<feBlend mode="normal" in2="BackgroundImageFix" result="effect1_dropShadow_94_2063"/>
<feBlend mode="normal" in="SourceGraphic" in2="effect1_dropShadow_94_2063" result="shape"/>
</filter>
</defs>
</svg>
