<svg width="116" height="129" viewBox="0 0 116 129" fill="none" xmlns="http://www.w3.org/2000/svg">
<path fill-rule="evenodd" clip-rule="evenodd" d="M67.8937 2.695L105.761 24.7042C111.945 28.3617 115.77 34.9708 115.834 42.2217V86.1117C115.834 93.3625 112.009 100.036 105.825 103.629L67.9575 125.638C61.71 129.232 54.06 129.232 47.8763 125.638L10.0087 103.629C3.825 99.9717 0 93.2983 0 86.1117V42.2217C0 34.9708 3.825 28.2975 10.0087 24.7042L47.8125 2.695C54.06 -0.898333 61.71 -0.898333 67.8937 2.695ZM72.7387 49.2158C72.7387 40.9383 66.1087 34.265 57.885 34.265C49.6613 34.265 43.0312 41.0025 43.0312 49.2158C43.0312 57.4933 49.6613 64.1667 57.885 64.1667C66.1087 64.1667 72.7387 57.4933 72.7387 49.2158ZM40.8 94.0683H74.97C80.07 94.0683 83.13 88.2292 80.2613 83.9942C75.9263 77.5133 67.5112 73.15 57.885 73.15C48.2588 73.15 39.8438 77.5133 35.5087 83.9942C32.64 88.2933 35.6362 94.0683 40.8 94.0683ZM47.3848 32.1489V22.1921C47.3848 21.1804 48.7153 20.8085 49.2399 21.6737L51.1325 24.7951C51.5064 25.4117 52.3903 25.4419 52.8054 24.8521L54.0174 23.13C54.3945 22.5942 55.1764 22.5598 55.5992 23.0603L57.4046 25.198C57.8041 25.671 58.533 25.671 58.9325 25.198L60.81 22.975C61.2095 22.502 61.9384 22.502 62.3379 22.975L63.885 24.8067C64.3764 25.3887 65.3121 25.2294 65.5834 24.5176L66.4503 22.2427C66.8457 21.2052 68.3848 21.4886 68.3848 22.5988V31.9289C68.3848 32.7935 67.324 33.2944 66.5901 32.8374C62.8463 30.5058 56.1606 28.5839 49.0447 33.0191C48.3426 33.4567 47.3848 32.9762 47.3848 32.1489Z" fill="#FCCB4E"/>
</svg>
