<svg width="118" height="131" viewBox="0 0 118 131" fill="none" xmlns="http://www.w3.org/2000/svg">
<rect width="118" height="131" rx="8" fill="#FCCB4E" fill-opacity="0.5"/>
<path d="M64.5299 44.7406C64.4599 44.7306 64.3899 44.7306 64.3199 44.7406C62.7699 44.6906 61.5399 43.4206 61.5399 41.8606C61.5399 40.2706 62.8299 38.9706 64.4299 38.9706C66.0199 38.9706 67.3199 40.2606 67.3199 41.8606C67.3099 43.4206 66.0799 44.6906 64.5299 44.7406Z" fill="white"/>
<path d="M67.7899 51.6706C66.6699 52.4206 65.0999 52.7006 63.6499 52.5106C64.0299 51.6906 64.2299 50.7806 64.2399 49.8206C64.2399 48.8206 64.0199 47.8706 63.5999 47.0406C65.0799 46.8406 66.6499 47.1206 67.7799 47.8706C69.3599 48.9106 69.3599 50.6206 67.7899 51.6706Z" fill="white"/>
<path d="M53.4399 44.7406C53.5099 44.7306 53.5799 44.7306 53.6499 44.7406C55.1999 44.6906 56.4299 43.4206 56.4299 41.8606C56.4299 40.2606 55.1399 38.9706 53.5399 38.9706C51.9499 38.9706 50.6599 40.2606 50.6599 41.8606C50.6599 43.4206 51.8899 44.6906 53.4399 44.7406Z" fill="white"/>
<path d="M53.5499 49.8206C53.5499 50.7906 53.7599 51.7106 54.1399 52.5406C52.7299 52.6906 51.2599 52.3906 50.1799 51.6806C48.5999 50.6306 48.5999 48.9206 50.1799 47.8706C51.2499 47.1506 52.7599 46.8606 54.1799 47.0206C53.7699 47.8606 53.5499 48.8106 53.5499 49.8206Z" fill="white"/>
<path d="M59.1199 52.8406C59.0399 52.8306 58.9499 52.8306 58.8599 52.8406C57.0199 52.7806 55.5499 51.2706 55.5499 49.4106C55.5599 47.5106 57.0899 45.9706 58.9999 45.9706C60.8999 45.9706 62.4399 47.5106 62.4399 49.4106C62.4299 51.2706 60.9699 52.7806 59.1199 52.8406Z" fill="white"/>
<path d="M55.8699 54.9106C54.3599 55.9206 54.3599 57.5806 55.8699 58.5806C57.5899 59.7306 60.4099 59.7306 62.1299 58.5806C63.6399 57.5706 63.6399 55.9106 62.1299 54.9106C60.4199 53.7606 57.5999 53.7606 55.8699 54.9106Z" fill="white"/>
<path d="M28.9959 77.8026L27.0279 88.9706H24.7719L26.7559 77.8026H28.9959ZM28.949 84.5066C29.109 83.6106 29.4237 82.8159 29.893 82.1226C30.373 81.4292 30.9543 80.8959 31.637 80.5226C32.3303 80.1492 33.0557 79.9626 33.813 79.9626C34.389 79.9626 34.917 80.0906 35.397 80.3466C35.877 80.5919 36.2343 80.9226 36.469 81.3386L37.221 77.1306H39.477L37.381 88.9706H35.125L35.365 87.6586C35.013 88.0959 34.5597 88.4479 34.005 88.7146C33.461 88.9812 32.8583 89.1146 32.197 89.1146C31.5463 89.1146 30.965 88.9706 30.453 88.6826C29.9517 88.3839 29.557 87.9679 29.269 87.4346C28.9917 86.8906 28.853 86.2612 28.853 85.5466C28.853 85.2159 28.885 84.8692 28.949 84.5066ZM35.909 84.5386C35.9517 84.2612 35.973 84.0586 35.973 83.9306C35.973 83.3012 35.7863 82.8106 35.413 82.4586C35.0503 82.1066 34.5917 81.9306 34.037 81.9306C33.621 81.9306 33.2157 82.0319 32.821 82.2346C32.437 82.4372 32.101 82.7359 31.813 83.1306C31.525 83.5146 31.333 83.9732 31.237 84.5066C31.205 84.7092 31.189 84.9012 31.189 85.0826C31.189 85.7226 31.3703 86.2292 31.733 86.6026C32.0957 86.9652 32.5543 87.1466 33.109 87.1466C33.525 87.1466 33.9303 87.0452 34.325 86.8426C34.7197 86.6292 35.0557 86.3252 35.333 85.9306C35.621 85.5359 35.813 85.0719 35.909 84.5386ZM44.5408 79.9626C45.6714 79.9626 46.5674 80.2772 47.2288 80.9066C47.8901 81.5252 48.2208 82.3626 48.2208 83.4186C48.2208 83.7599 48.1941 84.0639 48.1408 84.3306C48.0768 84.6506 48.0074 84.9279 47.9328 85.1626H41.4528C41.4421 85.2372 41.4368 85.3439 41.4368 85.4826C41.4368 86.0372 41.5968 86.4746 41.9168 86.7946C42.2474 87.1039 42.6794 87.2586 43.2128 87.2586C43.6608 87.2586 44.0448 87.1626 44.3648 86.9706C44.6954 86.7679 44.9621 86.5066 45.1648 86.1866H47.5808C47.1861 87.0399 46.5728 87.7439 45.7408 88.2986C44.9194 88.8426 43.9861 89.1146 42.9408 89.1146C41.8101 89.1146 40.9034 88.7946 40.2208 88.1546C39.5381 87.5146 39.1968 86.6452 39.1968 85.5466C39.1968 85.2266 39.2288 84.8906 39.2928 84.5386C39.4528 83.6212 39.7781 82.8159 40.2688 82.1226C40.7701 81.4292 41.3888 80.8959 42.1248 80.5226C42.8608 80.1492 43.6661 79.9626 44.5408 79.9626ZM45.9168 83.8026C45.9381 83.6319 45.9488 83.5092 45.9488 83.4346C45.9488 82.9226 45.7834 82.5226 45.4528 82.2346C45.1221 81.9466 44.6901 81.8026 44.1568 81.8026C43.5914 81.8026 43.0848 81.9839 42.6368 82.3466C42.1888 82.6986 41.8741 83.1839 41.6928 83.8026H45.9168ZM54.9398 79.9786C55.8571 79.9786 56.5771 80.2292 57.0998 80.7306C57.6331 81.2212 57.8998 81.9252 57.8998 82.8426C57.8998 83.1839 57.8731 83.4932 57.8198 83.7706L56.8918 88.9706H54.6678L55.5318 84.0746C55.5638 83.8826 55.5798 83.6959 55.5798 83.5146C55.5798 82.9812 55.4358 82.5759 55.1478 82.2986C54.8704 82.0212 54.4704 81.8826 53.9478 81.8826C53.3504 81.8826 52.8384 82.0639 52.4118 82.4266C51.9958 82.7786 51.7184 83.2906 51.5798 83.9626L50.6998 88.9706H48.4438L50.0118 80.1066H52.2678L52.0758 81.1946C52.4384 80.8212 52.8704 80.5279 53.3718 80.3146C53.8731 80.0906 54.3958 79.9786 54.9398 79.9786ZM61.6259 86.2346C61.6152 86.2986 61.6099 86.3839 61.6099 86.4906C61.6099 86.7039 61.6685 86.8586 61.7859 86.9546C61.9139 87.0399 62.1219 87.0826 62.4099 87.0826H63.4659L63.1299 88.9706H61.7059C60.1059 88.9706 59.3059 88.3039 59.3059 86.9706C59.3059 86.7146 59.3272 86.4639 59.3699 86.2186L60.1219 81.9466H59.0659L59.3859 80.1066H60.4579L60.8419 77.9146H63.0979L62.7139 80.1066H64.6819L64.3619 81.9466H62.3779L61.6259 86.2346ZM67.121 79.0506C66.769 79.0506 66.4863 78.9492 66.273 78.7466C66.0597 78.5439 65.953 78.2879 65.953 77.9786C65.953 77.5519 66.113 77.1892 66.433 76.8906C66.7637 76.5812 67.1477 76.4266 67.585 76.4266C67.9263 76.4266 68.2037 76.5279 68.417 76.7306C68.6303 76.9332 68.737 77.1892 68.737 77.4986C68.737 77.9252 68.577 78.2932 68.257 78.6026C67.937 78.9012 67.5583 79.0506 67.121 79.0506ZM68.049 80.1066L66.481 88.9706H64.225L65.793 80.1066H68.049ZM70.0821 79.6586C70.2741 78.5706 70.7221 77.7706 71.4261 77.2586C72.1301 76.7466 73.1008 76.5066 74.3381 76.5386L74.0181 78.4266C73.4848 78.4159 73.0901 78.5066 72.8341 78.6986C72.5781 78.8906 72.4075 79.2372 72.3221 79.7386L72.2581 80.1066H73.8101L73.4901 81.9466H71.9381L70.6901 88.9706H68.4341L69.6821 81.9466H68.6581L68.9781 80.1066H70.0021L70.0821 79.6586ZM76.0898 79.0506C75.7378 79.0506 75.4551 78.9492 75.2418 78.7466C75.0284 78.5439 74.9218 78.2879 74.9218 77.9786C74.9218 77.5519 75.0818 77.1892 75.4018 76.8906C75.7324 76.5812 76.1164 76.4266 76.5538 76.4266C76.8951 76.4266 77.1724 76.5279 77.3858 76.7306C77.5991 76.9332 77.7058 77.1892 77.7058 77.4986C77.7058 77.9252 77.5458 78.2932 77.2258 78.6026C76.9058 78.9012 76.5271 79.0506 76.0898 79.0506ZM77.0178 80.1066L75.4498 88.9706H73.1938L74.7618 80.1066H77.0178ZM82.6189 79.9626C83.7495 79.9626 84.6455 80.2772 85.3069 80.9066C85.9682 81.5252 86.2989 82.3626 86.2989 83.4186C86.2989 83.7599 86.2722 84.0639 86.2189 84.3306C86.1549 84.6506 86.0855 84.9279 86.0109 85.1626H79.5309C79.5202 85.2372 79.5149 85.3439 79.5149 85.4826C79.5149 86.0372 79.6749 86.4746 79.9949 86.7946C80.3255 87.1039 80.7575 87.2586 81.2909 87.2586C81.7389 87.2586 82.1229 87.1626 82.4429 86.9706C82.7735 86.7679 83.0402 86.5066 83.2429 86.1866H85.6589C85.2642 87.0399 84.6509 87.7439 83.8189 88.2986C82.9975 88.8426 82.0642 89.1146 81.0189 89.1146C79.8882 89.1146 78.9815 88.7946 78.2989 88.1546C77.6162 87.5146 77.2749 86.6452 77.2749 85.5466C77.2749 85.2266 77.3069 84.8906 77.3709 84.5386C77.5309 83.6212 77.8562 82.8159 78.3469 82.1226C78.8482 81.4292 79.4669 80.8959 80.2029 80.5226C80.9389 80.1492 81.7442 79.9626 82.6189 79.9626ZM83.9949 83.8026C84.0162 83.6319 84.0269 83.5092 84.0269 83.4346C84.0269 82.9226 83.8615 82.5226 83.5309 82.2346C83.2002 81.9466 82.7682 81.8026 82.2349 81.8026C81.6695 81.8026 81.1629 81.9839 80.7149 82.3466C80.2669 82.6986 79.9522 83.1839 79.7709 83.8026H83.9949ZM90.0739 81.6746C90.4579 81.1412 90.9059 80.7252 91.4179 80.4266C91.9299 80.1279 92.4845 79.9786 93.0819 79.9786L92.6659 82.3306H92.0739C91.4125 82.3306 90.8792 82.4746 90.4739 82.7626C90.0792 83.0506 89.7912 83.5412 89.6099 84.2346L88.7779 88.9706H86.5219L88.0899 80.1066H90.3459L90.0739 81.6746Z" fill="white"/>
</svg>
