<svg width="386" height="136" viewBox="0 0 386 136" fill="none" xmlns="http://www.w3.org/2000/svg">
<path d="M15.63 7.03564V5.57964H18.542V15.7856H16.932V7.03564H15.63Z" fill="white"/>
<path d="M97.42 6.95164H92.73V9.73764C92.926 9.47631 93.2153 9.25698 93.598 9.07964C93.99 8.90231 94.4053 8.81364 94.844 8.81364C95.628 8.81364 96.2627 8.98164 96.748 9.31764C97.2427 9.65364 97.5927 10.0783 97.798 10.5916C98.0127 11.105 98.12 11.6463 98.12 12.2156C98.12 12.9063 97.9847 13.5223 97.714 14.0636C97.4527 14.5956 97.056 15.0156 96.524 15.3236C96.0013 15.6316 95.3573 15.7856 94.592 15.7856C93.5747 15.7856 92.758 15.5336 92.142 15.0296C91.526 14.5256 91.1573 13.8583 91.036 13.0276H92.59C92.6927 13.4663 92.9213 13.8163 93.276 14.0776C93.6307 14.3296 94.074 14.4556 94.606 14.4556C95.2687 14.4556 95.7633 14.255 96.09 13.8536C96.426 13.4523 96.594 12.9203 96.594 12.2576C96.594 11.5856 96.426 11.0723 96.09 10.7176C95.754 10.3536 95.2593 10.1716 94.606 10.1716C94.1487 10.1716 93.7613 10.2883 93.444 10.5216C93.136 10.7456 92.912 11.0536 92.772 11.4456H91.26V5.55164H97.42V6.95164Z" fill="white"/>
<path d="M169.63 7.03564V5.57964H172.542V15.7856H170.932V7.03564H169.63ZM174.735 10.5496C174.735 8.93498 175.005 7.67498 175.547 6.76964C176.097 5.85498 177.04 5.39764 178.375 5.39764C179.709 5.39764 180.647 5.85498 181.189 6.76964C181.739 7.67498 182.015 8.93498 182.015 10.5496C182.015 12.183 181.739 13.4616 181.189 14.3856C180.647 15.3003 179.709 15.7576 178.375 15.7576C177.04 15.7576 176.097 15.3003 175.547 14.3856C175.005 13.4616 174.735 12.183 174.735 10.5496ZM180.447 10.5496C180.447 9.79364 180.395 9.15431 180.293 8.63164C180.199 8.10898 180.003 7.68431 179.705 7.35764C179.406 7.02164 178.963 6.85364 178.375 6.85364C177.787 6.85364 177.343 7.02164 177.045 7.35764C176.746 7.68431 176.545 8.10898 176.443 8.63164C176.349 9.15431 176.303 9.79364 176.303 10.5496C176.303 11.3336 176.349 11.9916 176.443 12.5236C176.536 13.0556 176.732 13.485 177.031 13.8116C177.339 14.1383 177.787 14.3016 178.375 14.3016C178.963 14.3016 179.406 14.1383 179.705 13.8116C180.013 13.485 180.213 13.0556 180.307 12.5236C180.4 11.9916 180.447 11.3336 180.447 10.5496Z" fill="white"/>
<path d="M253.63 7.03564V5.57964H256.542V15.7856H254.932V7.03564H253.63ZM265.315 6.95164H260.625V9.73764C260.821 9.47631 261.11 9.25698 261.493 9.07964C261.885 8.90231 262.3 8.81364 262.739 8.81364C263.523 8.81364 264.157 8.98164 264.643 9.31764C265.137 9.65364 265.487 10.0783 265.693 10.5916C265.907 11.105 266.015 11.6463 266.015 12.2156C266.015 12.9063 265.879 13.5223 265.609 14.0636C265.347 14.5956 264.951 15.0156 264.419 15.3236C263.896 15.6316 263.252 15.7856 262.487 15.7856C261.469 15.7856 260.653 15.5336 260.037 15.0296C259.421 14.5256 259.052 13.8583 258.931 13.0276H260.485C260.587 13.4663 260.816 13.8163 261.171 14.0776C261.525 14.3296 261.969 14.4556 262.501 14.4556C263.163 14.4556 263.658 14.255 263.985 13.8536C264.321 13.4523 264.489 12.9203 264.489 12.2576C264.489 11.5856 264.321 11.0723 263.985 10.7176C263.649 10.3536 263.154 10.1716 262.501 10.1716C262.043 10.1716 261.656 10.2883 261.339 10.5216C261.031 10.7456 260.807 11.0536 260.667 11.4456H259.155V5.55164H265.315V6.95164Z" fill="white"/>
<path d="M338.722 13.6156C339.618 12.841 340.323 12.2063 340.836 11.7116C341.359 11.2076 341.793 10.685 342.138 10.1436C342.483 9.60231 342.656 9.06098 342.656 8.51964C342.656 7.95964 342.521 7.52098 342.25 7.20364C341.989 6.88631 341.573 6.72764 341.004 6.72764C340.453 6.72764 340.024 6.90498 339.716 7.25964C339.417 7.60498 339.259 8.07164 339.24 8.65964H337.7C337.728 7.59564 338.045 6.78364 338.652 6.22364C339.268 5.65431 340.047 5.36964 340.99 5.36964C342.007 5.36964 342.801 5.64964 343.37 6.20964C343.949 6.76964 344.238 7.51631 344.238 8.44964C344.238 9.12164 344.065 9.77031 343.72 10.3956C343.384 11.0116 342.978 11.567 342.502 12.0616C342.035 12.547 341.438 13.1116 340.71 13.7556L340.08 14.3156H344.518V15.6456H337.714V14.4836L338.722 13.6156ZM345.92 10.5496C345.92 8.93498 346.191 7.67498 346.732 6.76964C347.283 5.85498 348.225 5.39764 349.56 5.39764C350.895 5.39764 351.833 5.85498 352.374 6.76964C352.925 7.67498 353.2 8.93498 353.2 10.5496C353.2 12.183 352.925 13.4616 352.374 14.3856C351.833 15.3003 350.895 15.7576 349.56 15.7576C348.225 15.7576 347.283 15.3003 346.732 14.3856C346.191 13.4616 345.92 12.183 345.92 10.5496ZM351.632 10.5496C351.632 9.79364 351.581 9.15431 351.478 8.63164C351.385 8.10898 351.189 7.68431 350.89 7.35764C350.591 7.02164 350.148 6.85364 349.56 6.85364C348.972 6.85364 348.529 7.02164 348.23 7.35764C347.931 7.68431 347.731 8.10898 347.628 8.63164C347.535 9.15431 347.488 9.79364 347.488 10.5496C347.488 11.3336 347.535 11.9916 347.628 12.5236C347.721 13.0556 347.917 13.485 348.216 13.8116C348.524 14.1383 348.972 14.3016 349.56 14.3016C350.148 14.3016 350.591 14.1383 350.89 13.8116C351.198 13.485 351.399 13.0556 351.492 12.5236C351.585 11.9916 351.632 11.3336 351.632 10.5496Z" fill="white"/>
<line x1="1" y1="4.78564" x2="1" y2="135.786" stroke="white" stroke-opacity="0.5" stroke-width="2"/>
<line x1="81" y1="4.78564" x2="81" y2="135.786" stroke="white" stroke-opacity="0.5" stroke-width="2"/>
<line x1="161" y1="4.78564" x2="161" y2="135.786" stroke="white" stroke-opacity="0.5" stroke-width="2"/>
<line x1="241" y1="4.78564" x2="241" y2="135.786" stroke="white" stroke-opacity="0.5" stroke-width="2"/>
<line x1="321" y1="4.78564" x2="321" y2="135.786" stroke="white" stroke-opacity="0.5" stroke-width="2"/>
<line x1="15.5" y1="21.7856" x2="15.5" y2="131.786" stroke="white" stroke-opacity="0.5"/>
<line x1="95.5" y1="21.7856" x2="95.5" y2="131.786" stroke="white" stroke-opacity="0.5"/>
<line x1="175.5" y1="21.7856" x2="175.5" y2="131.786" stroke="white" stroke-opacity="0.5"/>
<line x1="255.5" y1="21.7856" x2="255.5" y2="131.786" stroke="white" stroke-opacity="0.5"/>
<line x1="335.5" y1="21.7856" x2="335.5" y2="131.786" stroke="white" stroke-opacity="0.5"/>
<line x1="31.5" y1="21.7856" x2="31.5" y2="131.786" stroke="white" stroke-opacity="0.5"/>
<line x1="111.5" y1="21.7856" x2="111.5" y2="131.786" stroke="white" stroke-opacity="0.5"/>
<line x1="191.5" y1="21.7856" x2="191.5" y2="131.786" stroke="white" stroke-opacity="0.5"/>
<line x1="271.5" y1="21.7856" x2="271.5" y2="131.786" stroke="white" stroke-opacity="0.5"/>
<line x1="351.5" y1="21.7856" x2="351.5" y2="131.786" stroke="white" stroke-opacity="0.5"/>
<line x1="48.5" y1="21.7856" x2="48.5" y2="131.786" stroke="white" stroke-opacity="0.5"/>
<line x1="128.5" y1="21.7856" x2="128.5" y2="131.786" stroke="white" stroke-opacity="0.5"/>
<line x1="208.5" y1="21.7856" x2="208.5" y2="131.786" stroke="white" stroke-opacity="0.5"/>
<line x1="288.5" y1="21.7856" x2="288.5" y2="131.786" stroke="white" stroke-opacity="0.5"/>
<line x1="368.5" y1="21.7856" x2="368.5" y2="131.786" stroke="white" stroke-opacity="0.5"/>
<line x1="65.5" y1="21.7856" x2="65.5" y2="131.786" stroke="white" stroke-opacity="0.5"/>
<line x1="145.5" y1="21.7856" x2="145.5" y2="131.786" stroke="white" stroke-opacity="0.5"/>
<line x1="225.5" y1="21.7856" x2="225.5" y2="131.786" stroke="white" stroke-opacity="0.5"/>
<line x1="305.5" y1="21.7856" x2="305.5" y2="131.786" stroke="white" stroke-opacity="0.5"/>
<line x1="385.5" y1="21.7856" x2="385.5" y2="131.786" stroke="white" stroke-opacity="0.5"/>
<rect x="2" y="29.7856" width="230" height="93" rx="14" fill="#BB4DCD" fill-opacity="0.2"/>
<path fill-rule="evenodd" clip-rule="evenodd" d="M17.1111 61.0634C17.1111 59.3145 18.5289 57.8967 20.2778 57.8967V57.8967C22.0267 57.8967 23.4444 59.3145 23.4444 61.0634V71.3696C23.4444 72.4127 24.2901 73.2584 25.3333 73.2584V73.2584C26.3765 73.2584 27.2222 72.4127 27.2222 71.3696V70.1409C27.2222 68.4192 28.6179 67.0234 30.3397 67.0234H30.438C32.1597 67.0234 33.5555 68.4192 33.5555 70.1409V71.3696C33.5555 72.4127 34.4012 73.2584 35.4444 73.2584V73.2584C36.4876 73.2584 37.3333 72.4127 37.3333 71.3696V68.2924C37.3333 66.5435 38.751 65.1258 40.4999 65.1258V65.1258C42.2488 65.1258 43.6666 66.5435 43.6666 68.2924V91.5078C43.6666 93.2567 42.2488 94.6745 40.4999 94.6745V94.6745C38.751 94.6745 37.3333 93.2567 37.3333 91.5078V87.3463C37.3333 86.3031 36.4876 85.4574 35.4444 85.4574V85.4574C34.4012 85.4574 33.5555 86.3031 33.5555 87.3463V88.3491C33.5555 89.9461 32.2609 91.2407 30.6639 91.2407H30.3888C28.6399 91.2407 27.2222 89.8229 27.2222 88.074V85.9909C27.2222 84.9477 26.3765 84.102 25.3333 84.102V84.102C24.2901 84.102 23.4444 84.9477 23.4444 85.9909V86.8129C23.4444 88.3101 22.2307 89.5238 20.7335 89.5238H20.2778C18.5289 89.5238 17.1111 88.106 17.1111 86.3571V84.9969C17.1111 83.9537 16.2654 83.108 15.2222 83.108V83.108C14.179 83.108 13.3333 83.9537 13.3333 84.9969V86.8993C13.3333 88.6482 11.9156 90.066 10.1667 90.066V90.066C8.41776 90.066 7 88.6482 7 86.8993V65.6719C7 63.923 8.41777 62.5052 10.1667 62.5052H10.3514C11.9983 62.5052 13.3333 63.8403 13.3333 65.4872V66.5803C13.3333 67.6235 14.179 68.4692 15.2222 68.4692V68.4692C16.2654 68.4692 17.1111 67.6235 17.1111 66.5803V61.0634Z" fill="#BB4DCD"/>
<path fill-rule="evenodd" clip-rule="evenodd" d="M53.7776 49.3966C53.7776 47.6477 55.1954 46.23 56.9443 46.23V46.23C58.6932 46.23 60.1109 47.6477 60.1109 49.3966V69.4489C60.1109 70.4921 60.9566 71.3378 61.9998 71.3378V71.3378C63.043 71.3378 63.8887 70.4921 63.8887 69.4489V64.3137C63.8887 62.5648 65.3064 61.147 67.0553 61.147V61.147C68.8042 61.147 70.222 62.5648 70.222 64.3137V69.4489C70.222 70.4921 71.0677 71.3378 72.1109 71.3378V71.3378C73.1541 71.3378 73.9998 70.4921 73.9998 69.4489V61.2121C73.9998 59.4632 75.4175 58.0455 77.1664 58.0455V58.0455C78.9153 58.0455 80.3331 59.4632 80.3331 61.2121V103.174C80.3331 104.923 78.9153 106.341 77.1664 106.341V106.341C75.4175 106.341 73.9998 104.923 73.9998 103.174V93.1653C73.9998 92.1221 73.1541 91.2764 72.1109 91.2764V91.2764C71.0677 91.2764 70.222 92.1221 70.222 93.1653V97.5621C70.222 99.311 68.8042 100.729 67.0553 100.729V100.729C65.3064 100.729 63.8887 99.311 63.8887 97.5621V90.9499C63.8887 89.9067 63.043 89.061 61.9998 89.061V89.061C60.9566 89.061 60.1109 89.9067 60.1109 90.9499V94.7559C60.1109 96.5048 58.6932 97.9226 56.9443 97.9226V97.9226C55.1954 97.9226 53.7776 96.5048 53.7776 94.7559V89.3252C53.7776 88.282 52.9319 87.4363 51.8887 87.4363V87.4363C50.8455 87.4363 49.9998 88.282 49.9998 89.3252V95.642C49.9998 97.3909 48.5821 98.8087 46.8332 98.8087V98.8087C45.0843 98.8087 43.6665 97.3909 43.6665 95.642V56.929C43.6665 55.1801 45.0843 53.7623 46.8332 53.7623V53.7623C48.5821 53.7623 49.9998 55.1801 49.9998 56.929V61.6212C49.9998 62.6644 50.8455 63.51 51.8887 63.51V63.51C52.9319 63.51 53.7776 62.6644 53.7776 61.6212V49.3966Z" fill="#BB4DCD"/>
<path fill-rule="evenodd" clip-rule="evenodd" d="M90.4443 65.2856C90.4443 63.5367 91.8621 62.1189 93.611 62.1189V62.1189C95.3599 62.1189 96.7777 63.5367 96.7777 65.2856V72.0646C96.7777 73.1078 97.6234 73.9535 98.6666 73.9535V73.9535C99.7097 73.9535 100.555 73.1078 100.555 72.0646V71.5517C100.555 70.2253 101.631 69.15 102.957 69.15H104.487C105.813 69.15 106.889 70.2253 106.889 71.5517V72.0646C106.889 73.1078 107.734 73.9535 108.778 73.9535V73.9535C109.821 73.9535 110.667 73.1078 110.667 72.0646V70.8208C110.667 69.0907 112.086 67.6881 113.816 67.6881V67.6881C115.565 67.6881 117 69.1059 117 70.8548V87.2856C117 89.0345 115.582 90.4522 113.833 90.4522V90.4522C112.084 90.4522 110.667 89.0345 110.667 87.2856V85.2404C110.667 84.1972 109.821 83.3515 108.778 83.3515V83.3515C107.734 83.3515 106.889 84.1972 106.889 85.2404V85.5792C106.889 86.8095 105.891 87.8068 104.661 87.8068H103.305C101.787 87.8068 100.555 86.5757 100.555 85.0571V84.1961C100.555 83.1529 99.7097 82.3073 98.6666 82.3073V82.3073C97.6234 82.3073 96.7777 83.1529 96.7777 84.1961V84.3957C96.7777 85.5491 95.8426 86.4842 94.6892 86.4842H92.9157C91.5508 86.4842 90.4443 85.3777 90.4443 84.0128V83.4304C90.4443 82.3872 89.5987 81.5415 88.5555 81.5415V81.5415C87.5123 81.5415 86.6666 82.3872 86.6666 83.4304V84.2217C86.6666 85.7019 85.4666 86.9019 83.9864 86.9019H83.4999C81.751 86.9019 80.3333 85.4841 80.3333 83.7352V68.8359C80.3333 67.087 81.751 65.6693 83.4999 65.6693H84.3693C85.6381 65.6693 86.6666 66.6978 86.6666 67.9666V68.375C86.6666 69.4182 87.5123 70.2638 88.5555 70.2638V70.2638C89.5987 70.2638 90.4443 69.4182 90.4443 68.375V65.2856Z" fill="#BB4DCD"/>
<path fill-rule="evenodd" clip-rule="evenodd" d="M127.111 65.2856C127.111 63.5367 128.529 62.1189 130.278 62.1189V62.1189C132.026 62.1189 133.444 63.5367 133.444 65.2856V72.0646C133.444 73.1078 134.29 73.9535 135.333 73.9535V73.9535C136.376 73.9535 137.222 73.1078 137.222 72.0646V71.5517C137.222 70.2253 138.297 69.15 139.624 69.15H141.154C142.48 69.15 143.555 70.2253 143.555 71.5517V72.0646C143.555 73.1078 144.401 73.9535 145.444 73.9535V73.9535C146.487 73.9535 147.333 73.1078 147.333 72.0646V70.8208C147.333 69.0907 148.752 67.6881 150.483 67.6881V67.6881C152.231 67.6881 153.666 69.1059 153.666 70.8548V87.2856C153.666 89.0345 152.249 90.4522 150.5 90.4522V90.4522C148.751 90.4522 147.333 89.0345 147.333 87.2856V85.2404C147.333 84.1972 146.487 83.3515 145.444 83.3515V83.3515C144.401 83.3515 143.555 84.1972 143.555 85.2404V85.5792C143.555 86.8095 142.558 87.8068 141.328 87.8068H139.972C138.453 87.8068 137.222 86.5757 137.222 85.0571V84.1961C137.222 83.1529 136.376 82.3073 135.333 82.3073V82.3073C134.29 82.3073 133.444 83.1529 133.444 84.1961V84.3957C133.444 85.5491 132.509 86.4842 131.356 86.4842H129.582C128.217 86.4842 127.111 85.3777 127.111 84.0128V83.4304C127.111 82.3872 126.265 81.5415 125.222 81.5415V81.5415C124.179 81.5415 123.333 82.3872 123.333 83.4304V84.2217C123.333 85.7019 122.133 86.9019 120.653 86.9019H120.166C118.418 86.9019 117 85.4841 117 83.7352V68.8359C117 67.087 118.418 65.6693 120.166 65.6693H121.036C122.305 65.6693 123.333 66.6978 123.333 67.9666V68.375C123.333 69.4182 124.179 70.2638 125.222 70.2638V70.2638C126.265 70.2638 127.111 69.4182 127.111 68.375V65.2856Z" fill="#BB4DCD"/>
<path fill-rule="evenodd" clip-rule="evenodd" d="M163.778 42.9523C163.778 41.2034 165.195 39.7856 166.944 39.7856V39.7856C168.693 39.7856 170.111 41.2034 170.111 42.9523V68.3882C170.111 69.4314 170.957 70.2771 172 70.2771V70.2771C173.043 70.2771 173.889 69.4314 173.889 68.3882V61.0678C173.889 59.3189 175.306 57.9012 177.055 57.9012V57.9012C178.804 57.9012 180.222 59.3189 180.222 61.0678V68.3882C180.222 69.4314 181.068 70.2771 182.111 70.2771V70.2771C183.154 70.2771 184 69.4314 184 68.3882V57.3012C184 55.5523 185.418 54.1346 187.166 54.1346V54.1346C188.915 54.1346 190.333 55.5523 190.333 57.3012V109.619C190.333 111.368 188.915 112.786 187.166 112.786V112.786C185.418 112.786 184 111.368 184 109.619V96.3797C184 95.3365 183.154 94.4909 182.111 94.4909V94.4909C181.068 94.4909 180.222 95.3365 180.222 96.3797V102.803C180.222 104.552 178.804 105.97 177.055 105.97V105.97C175.306 105.97 173.889 104.552 173.889 102.803V93.6893C173.889 92.6461 173.043 91.8005 172 91.8005V91.8005C170.957 91.8005 170.111 92.6461 170.111 93.6893V99.3953C170.111 101.144 168.693 102.562 166.944 102.562V102.562C165.195 102.562 163.778 101.144 163.778 99.3953V91.7163C163.778 90.6731 162.932 89.8274 161.889 89.8274V89.8274C160.846 89.8274 160 90.6731 160 91.7163V100.472C160 102.22 158.582 103.638 156.833 103.638V103.638C155.084 103.638 153.667 102.22 153.667 100.472V52.0997C153.667 50.3508 155.084 48.9331 156.833 48.9331V48.9331C158.582 48.9331 160 50.3508 160 52.0997V58.882C160 59.9252 160.846 60.7709 161.889 60.7709V60.7709C162.932 60.7709 163.778 59.9252 163.778 58.882V42.9523Z" fill="#BB4DCD"/>
<path fill-rule="evenodd" clip-rule="evenodd" d="M200.444 65.2856C200.444 63.5367 201.862 62.1189 203.611 62.1189V62.1189C205.36 62.1189 206.777 63.5367 206.777 65.2856V72.0646C206.777 73.1078 207.623 73.9535 208.666 73.9535V73.9535C209.71 73.9535 210.555 73.1078 210.555 72.0646V71.5517C210.555 70.2253 211.63 69.15 212.957 69.15H214.487C215.813 69.15 216.889 70.2253 216.889 71.5517V72.0646C216.889 73.1078 217.734 73.9535 218.777 73.9535V73.9535C219.821 73.9535 220.666 73.1078 220.666 72.0646V70.8208C220.666 69.0907 222.086 67.6881 223.816 67.6881V67.6881C225.565 67.6881 227 69.1059 227 70.8548V87.2856C227 89.0345 225.582 90.4522 223.833 90.4522V90.4522C222.084 90.4522 220.666 89.0345 220.666 87.2856V85.2404C220.666 84.1972 219.821 83.3515 218.777 83.3515V83.3515C217.734 83.3515 216.889 84.1972 216.889 85.2404V85.5792C216.889 86.8095 215.891 87.8068 214.661 87.8068H213.305C211.786 87.8068 210.555 86.5757 210.555 85.0571V84.1961C210.555 83.1529 209.71 82.3073 208.666 82.3073V82.3073C207.623 82.3073 206.777 83.1529 206.777 84.1961V84.3957C206.777 85.5491 205.842 86.4842 204.689 86.4842H202.915C201.551 86.4842 200.444 85.3777 200.444 84.0128V83.4304C200.444 82.3872 199.598 81.5415 198.555 81.5415V81.5415C197.512 81.5415 196.666 82.3872 196.666 83.4304V84.2217C196.666 85.7019 195.466 86.9019 193.986 86.9019H193.5C191.751 86.9019 190.333 85.4841 190.333 83.7352V68.8359C190.333 67.087 191.751 65.6693 193.5 65.6693H194.369C195.638 65.6693 196.666 66.6978 196.666 67.9666V68.375C196.666 69.4182 197.512 70.2638 198.555 70.2638V70.2638C199.598 70.2638 200.444 69.4182 200.444 68.375V65.2856Z" fill="#BB4DCD"/>
</svg>
