<svg width="88" height="55" viewBox="0 0 88 55" fill="none" xmlns="http://www.w3.org/2000/svg">
<path fill-rule="evenodd" clip-rule="evenodd" d="M39.5161 3.83046C39.5161 1.95982 37.9996 0.443359 36.129 0.443359H35.4939C33.2725 0.443359 31.4717 2.24415 31.4717 4.46554V9.26402C31.4717 9.84854 30.9979 10.3224 30.4134 10.3224V10.3224C29.8288 10.3224 29.355 9.84854 29.355 9.26402V7.14698C29.355 5.39326 27.9333 3.97159 26.1796 3.97159H25.3328C23.1114 3.97159 21.3106 5.77238 21.3106 7.99376V35.9373C21.3106 38.1587 23.1114 39.9595 25.3328 39.9595H25.6856C27.7122 39.9595 29.355 38.3167 29.355 36.2901V33.6791C29.355 33.0946 29.8288 32.6208 30.4134 32.6208V32.6208C30.9979 32.6208 31.4717 33.0946 31.4717 33.6791V39.4655C31.4717 41.6869 33.2725 43.4877 35.4939 43.4877H36.6935C38.2524 43.4877 39.5161 42.224 39.5161 40.6651V38.9011C39.5161 38.3165 39.99 37.8426 40.5746 37.8426V37.8426C41.1593 37.8426 41.6332 38.3165 41.6332 38.9011V40.6651C41.6332 42.224 42.8969 43.4877 44.4558 43.4877H45.6554C47.8768 43.4877 49.6775 41.6869 49.6775 39.4655V31.7033C49.6775 31.1188 50.1514 30.645 50.7359 30.645V30.645C51.3204 30.645 51.7943 31.1188 51.7943 31.7033V35.9373C51.7943 38.1587 53.5951 39.9595 55.8164 39.9595V39.9595C58.0378 39.9595 59.8386 38.1587 59.8386 35.9373V7.99377C59.8386 5.77238 58.0378 3.97159 55.8164 3.97159V3.97159C53.5951 3.97159 51.7943 5.77237 51.7943 7.99376V12.6511C51.7943 13.2357 51.3204 13.7095 50.7359 13.7095V13.7095C50.1514 13.7095 49.6775 13.2357 49.6775 12.6511V4.46554C49.6775 2.24415 47.8768 0.443359 45.6554 0.443359H45.0203C43.1496 0.443359 41.6332 1.95982 41.6332 3.83046V6.15901C41.6332 6.74363 41.1593 7.21756 40.5746 7.21756V7.21756C39.99 7.21756 39.5161 6.74363 39.5161 6.15901V3.83046ZM11.1492 17.2371C11.1492 15.2889 12.7286 13.7095 14.6768 13.7095H15.1714C17.3927 13.7095 19.1935 15.5103 19.1935 17.7317V26.1994C19.1935 28.4208 17.3927 30.2216 15.1714 30.2216H14.678C12.7291 30.2216 11.1492 28.6417 11.1492 26.6928V26.4099C11.1492 24.6172 9.69592 23.164 7.90322 23.164H5.85685C5.19433 23.164 4.65726 23.7011 4.65726 24.3636V24.3636C4.65726 25.0261 4.12018 25.5632 3.45766 25.5632H2.32863C1.04256 25.5632 0 24.5206 0 23.2345V20.412C0 19.1259 1.04256 18.0833 2.32863 18.0833H3.31653C4.05699 18.0833 4.65726 18.6836 4.65726 19.4241V19.4241C4.65726 20.1645 5.25752 20.7648 5.99799 20.7648H7.90322C9.69591 20.7648 11.1492 19.3115 11.1492 17.5188V17.2371ZM61.9557 15.3325C61.9557 13.1111 63.7565 11.3103 65.9779 11.3103V11.3103C68.1993 11.3103 70.0001 13.1111 70.0001 15.3325V28.5986C70.0001 30.82 68.1993 32.6208 65.9779 32.6208V32.6208C63.7565 32.6208 61.9557 30.82 61.9557 28.5986V15.3325Z" fill="#C4C4C4"/>
</svg>
