<svg width="90" height="66" viewBox="0 0 90 66" fill="none" xmlns="http://www.w3.org/2000/svg">
<path fill-rule="evenodd" clip-rule="evenodd" d="M55.0979 5.08206C55.0979 2.55146 53.0465 0.5 50.5159 0.5C47.9853 0.5 45.9338 2.55146 45.9338 5.08206V15.372C45.9338 17.9025 43.8825 19.9538 41.352 19.9538C38.8215 19.9538 36.7702 22.0052 36.7702 24.5356V40.7743C36.7702 43.3047 38.8215 45.3561 41.352 45.3561C43.8825 45.3561 45.9338 47.4074 45.9338 49.9379V61.3529C45.9338 63.8835 47.9853 65.935 50.5159 65.935C53.0465 65.935 55.0979 63.8835 55.0979 61.3529V39.3269C55.0979 38.6609 55.6378 38.1211 56.3037 38.1211C56.9696 38.1211 57.5095 38.6609 57.5095 39.3269V50.9023C57.5095 53.4329 59.5609 55.4844 62.0915 55.4844C64.6221 55.4844 66.6736 53.4329 66.6736 50.9023V44.311C66.6736 43.6451 67.2134 43.1052 67.8794 43.1052C68.5453 43.1052 69.0852 43.6451 69.0852 44.311V49.134C69.0852 51.6646 71.1366 53.7161 73.6672 53.7161C76.1978 53.7161 78.2493 51.6646 78.2493 49.134V17.3008C78.2493 14.7702 76.1978 12.7188 73.6672 12.7188C71.1366 12.7188 69.0852 14.7702 69.0852 17.3008V22.6066C69.0852 23.2725 68.5453 23.8124 67.8794 23.8124C67.2134 23.8124 66.6736 23.2725 66.6736 22.6066V10.0658C66.6736 7.53516 64.6221 5.4837 62.0915 5.4837C59.5609 5.4837 57.5095 7.53516 57.5095 10.0658V15.2108C57.5095 15.8768 56.9696 16.4166 56.3037 16.4166C55.6378 16.4166 55.0979 15.8768 55.0979 15.2108V5.08206ZM24.2772 17.3008C24.2772 14.7702 26.3286 12.7188 28.8592 12.7188C31.3898 12.7188 33.4413 14.7702 33.4413 17.3008V49.134C33.4413 51.6646 31.3898 53.7161 28.8592 53.7161C26.3286 53.7161 24.2772 51.6646 24.2772 49.134V17.3008ZM12.7008 27.8311C12.7008 25.6116 14.5001 23.8124 16.7195 23.8124H17.2829C19.8135 23.8124 21.8649 25.8638 21.8649 28.3944V38.0409C21.8649 40.5715 19.8135 42.6229 17.2829 42.6229H16.7208C14.5006 42.6229 12.7008 40.8231 12.7008 38.6029V38.2806C12.7008 36.2384 11.0453 34.5829 9.00318 34.5829H6.67208C5.91736 34.5829 5.30554 35.1948 5.30554 35.9495C5.30554 36.7042 4.69372 37.316 3.939 37.316H2.65277C1.18769 37.316 0 36.1283 0 34.6633V31.4478C0 29.9827 1.18769 28.795 2.65277 28.795H3.77815C4.6217 28.795 5.30554 29.4788 5.30554 30.3224C5.30554 31.166 5.98937 31.8498 6.83293 31.8498H9.00317C11.0453 31.8498 12.7008 30.1943 12.7008 28.1522V27.8311ZM80.6612 25.661C80.6612 23.1304 82.7126 21.079 85.2432 21.079C87.7738 21.079 89.8253 23.1304 89.8253 25.661V40.7738C89.8253 43.3044 87.7738 45.3558 85.2432 45.3558C82.7126 45.3558 80.6612 43.3044 80.6612 40.7738V25.661Z" fill="#FCCB4E"/>
</svg>
