<svg width="24" height="25" viewBox="0 0 24 25" fill="none" xmlns="http://www.w3.org/2000/svg">
<path fill-rule="evenodd" clip-rule="evenodd" d="M17.3818 2.53562C17.3818 1.39088 16.4538 0.462891 15.3091 0.462891V0.462891C14.1643 0.462891 13.2364 1.39088 13.2364 2.53562V9.28147C13.2364 9.9643 12.6828 10.5178 12 10.5178V10.5178C11.3172 10.5178 10.7636 9.9643 10.7636 9.28147V8.47728C10.7636 7.3503 9.85002 6.43671 8.72305 6.43671H8.65872C7.53175 6.43671 6.61816 7.3503 6.61816 8.47728V9.28147C6.61816 9.9643 6.06461 10.5178 5.38179 10.5178V10.5178C4.69896 10.5178 4.14541 9.9643 4.14541 9.28147V7.26736C4.14541 6.12262 3.21742 5.19463 2.07269 5.19463V5.19463C0.927952 5.19463 -4.00543e-05 6.12262 -4.00543e-05 7.26735V22.4629C-4.00543e-05 23.6076 0.927952 24.5356 2.07269 24.5356V24.5356C3.21742 24.5356 4.14541 23.6076 4.14541 22.4629V19.739C4.14541 19.0562 4.69896 18.5027 5.38179 18.5027V18.5027C6.06461 18.5027 6.61816 19.0562 6.61816 19.739V20.3953C6.61816 21.4407 7.46554 22.288 8.51085 22.288H8.69088C9.83562 22.288 10.7636 21.36 10.7636 20.2153V18.8518C10.7636 18.169 11.3172 17.6154 12 17.6154V17.6154C12.6828 17.6154 13.2364 18.169 13.2364 18.8518V19.3899C13.2364 20.3698 14.0308 21.1643 15.0108 21.1643H15.3091C16.4538 21.1643 17.3818 20.2363 17.3818 19.0915V18.2012C17.3818 17.5184 17.9353 16.9648 18.6182 16.9648V16.9648C19.301 16.9648 19.8545 17.5184 19.8545 18.2012V19.4464C19.8545 20.5911 20.7825 21.5191 21.9273 21.5191V21.5191C23.072 21.5191 24 20.5911 24 19.4464V5.5521C24 4.40736 23.072 3.47937 21.9273 3.47937H21.8064C20.7284 3.47937 19.8545 4.35324 19.8545 5.43121V6.14669C19.8545 6.82952 19.301 7.38306 18.6182 7.38306V7.38306C17.9353 7.38306 17.3818 6.82952 17.3818 6.14669V2.53562Z" fill="#D9D9D9"/>
</svg>
