<svg width="50" height="42" viewBox="0 0 50 42" fill="none" xmlns="http://www.w3.org/2000/svg">
<path fill-rule="evenodd" clip-rule="evenodd" d="M28.2257 2.87298C28.2257 1.28628 26.9394 0 25.3527 0C23.766 0 22.4797 1.28628 22.4797 2.87298V11.4417C22.4797 11.8592 22.1413 12.1977 21.7238 12.1977C21.3063 12.1977 20.9679 11.8592 20.9679 11.4417V9.92944C20.9679 8.67674 19.9524 7.66122 18.6996 7.66122H18.0949C16.5082 7.66122 15.2219 8.94749 15.2219 10.5342V30.4939C15.2219 32.0806 16.5082 33.3668 18.0949 33.3668H18.347C19.7945 33.3668 20.9679 32.1934 20.9679 30.7459V28.881C20.9679 28.4635 21.3063 28.1251 21.7238 28.1251C22.1413 28.1251 22.4797 28.4635 22.4797 28.881V38.1552C22.4797 39.7419 23.766 41.0282 25.3527 41.0282C26.9394 41.0282 28.2257 39.7419 28.2257 38.1552V24.3448C28.2257 23.9272 28.5642 23.5888 28.9817 23.5888C29.3993 23.5888 29.7378 23.9272 29.7378 24.3448V31.6027C29.7378 33.1894 31.024 34.4757 32.6107 34.4757C34.1974 34.4757 35.4837 33.1894 35.4837 31.6027V27.4697C35.4837 27.0521 35.8222 26.7137 36.2397 26.7137C36.6573 26.7137 36.9958 27.0521 36.9958 27.4697V30.4938C36.9958 32.0806 38.282 33.3668 39.8687 33.3668C41.4554 33.3668 42.7417 32.0806 42.7417 30.4939V10.5342C42.7417 8.94749 41.4554 7.66122 39.8687 7.66122C38.282 7.66122 36.9958 8.9475 36.9958 10.5342V13.8609C36.9958 14.2784 36.6573 14.6169 36.2397 14.6169C35.8222 14.6169 35.4837 14.2784 35.4837 13.8609V5.99791C35.4837 4.41121 34.1974 3.12493 32.6107 3.12493C31.024 3.12493 29.7378 4.41121 29.7378 5.99791V9.22389C29.7378 9.64143 29.3993 9.97992 28.9817 9.97992C28.5642 9.97992 28.2257 9.64143 28.2257 9.22389V2.87298ZM7.96348 17.1368C7.96348 15.7451 9.09167 14.6169 10.4834 14.6169H10.8365C12.4232 14.6169 13.7094 15.9032 13.7094 17.4899V23.5383C13.7094 25.125 12.4232 26.4112 10.8365 26.4112H10.4839C9.09192 26.4112 7.96348 25.2828 7.96348 23.8908V23.6888C7.96348 22.4083 6.92548 21.3703 5.64505 21.3703H4.18339C3.7102 21.3703 3.32661 21.7539 3.32661 22.2271C3.32661 22.7003 2.94301 23.0839 2.46983 23.0839H1.6633C0.744687 23.0839 0 22.3392 0 21.4206V19.4045C0 18.4859 0.744687 17.7412 1.6633 17.7412H2.36887C2.89782 17.7412 3.32661 18.17 3.32661 18.6989C3.32661 19.2278 3.7554 19.6566 4.28434 19.6566H5.64505C6.92548 19.6566 7.96348 18.6186 7.96348 17.3382V17.1368ZM44.254 15.7761C44.254 14.1894 45.5403 12.9031 47.127 12.9031C48.7137 12.9031 50 14.1894 50 15.7761V25.2519C50 26.8386 48.7137 28.1249 47.127 28.1249C45.5403 28.1249 44.254 26.8386 44.254 25.2519V15.7761Z" fill="#FCCB4E"/>
</svg>
