<svg width="28" height="28" viewBox="0 0 28 28" fill="none" xmlns="http://www.w3.org/2000/svg">
<path d="M18.187 14.4667V19.215C18.187 19.635 18.1404 20.0317 18.0354 20.3933C17.6037 22.1083 16.1804 23.1817 14.2204 23.1817H11.047L7.5237 25.5267C6.9987 25.8883 6.2987 25.5033 6.2987 24.8733V23.1817C5.1087 23.1817 4.11703 22.785 3.4287 22.0967C2.7287 21.3967 2.33203 20.405 2.33203 19.215V14.4667C2.33203 12.25 3.7087 10.7217 5.83203 10.5233C5.9837 10.5117 6.13537 10.5 6.2987 10.5H14.2204C16.6004 10.5 18.187 12.0867 18.187 14.4667Z" fill="white"/>
<path d="M20.707 18.2007C22.1887 18.2007 23.437 17.7107 24.3004 16.8357C25.1754 15.9723 25.6654 14.724 25.6654 13.2423V7.29232C25.6654 4.55065 23.4487 2.33398 20.707 2.33398H10.7904C8.0487 2.33398 5.83203 4.55065 5.83203 7.29232V8.16732C5.83203 8.49398 6.0887 8.75065 6.41536 8.75065H14.2204C17.382 8.75065 19.937 11.3057 19.937 14.4673V17.6173C19.937 17.944 20.1937 18.2007 20.5204 18.2007H20.707Z" fill="white"/>
</svg>
