<svg width="390" height="317" viewBox="0 0 390 317" fill="none" xmlns="http://www.w3.org/2000/svg">
<path fill-rule="evenodd" clip-rule="evenodd" d="M-4 -383.771C-13.7678 -386.225 -21 -395.064 -21 -405.593V-649.716C-21 -667.39 -6.67313 -681.716 11 -681.716C28.6731 -681.716 43 -667.39 43 -649.716V-517.9C43 -510.168 49.268 -503.9 57 -503.9C64.732 -503.9 71 -510.168 71 -517.9V-528.407C71 -535.862 77.0442 -541.907 84.5 -541.907C91.9558 -541.907 98 -535.862 98 -528.407V-487.253C98 -481.453 102.701 -476.753 108.5 -476.753C114.299 -476.753 119 -481.453 119 -487.252V-693.008C119 -706.263 129.745 -717.008 143 -717.008C156.255 -717.008 167 -706.263 167 -693.008V-572.336C167 -558.529 178.193 -547.336 192 -547.336C205.807 -547.336 217 -558.529 217 -572.336V-613.139C217 -633.022 233.118 -649.139 253 -649.139C272.882 -649.139 289 -633.022 289 -613.139V-586.084C289 -575.038 297.954 -566.084 309 -566.084C320.046 -566.084 329 -575.038 329 -586.084V-713.584C329 -728.219 340.864 -740.084 355.5 -740.084C370.136 -740.084 382 -728.219 382 -713.584V-576.584C382 -570.785 386.701 -566.084 392.5 -566.084C398.299 -566.084 403 -561.383 403 -555.584V-440.084C403 -424.189 396.494 -409.814 386 -399.476V-39.8131C395.768 -37.3591 403 -28.5192 403 -17.9902V226.133C403 243.806 388.673 258.133 371 258.133C353.327 258.133 339 243.806 339 226.133V94.3164C339 86.5844 332.732 80.3164 325 80.3164C317.268 80.3164 311 86.5844 311 94.3164V104.823C311 112.279 304.956 118.323 297.5 118.323C290.044 118.323 284 112.279 284 104.823V63.6688C284 57.8699 279.299 53.1688 273.5 53.1688C267.701 53.1688 263 57.8699 263 63.6688V269.425C263 282.679 252.255 293.425 239 293.425C225.745 293.425 215 282.679 215 269.425V148.752C215 134.945 203.807 123.752 190 123.752C176.193 123.752 165 134.945 165 148.752V189.556C165 209.438 148.882 225.556 129 225.556C109.118 225.556 93 209.438 93 189.556V162.5C93 151.454 84.0457 142.5 73 142.5C61.9543 142.5 53 151.454 53 162.5V290C53 304.635 41.1356 316.5 26.5 316.5C11.8644 316.5 0 304.636 0 290V153C0 147.201 -4.70102 142.5 -10.5 142.5C-16.299 142.5 -21 137.799 -21 132V16.5C-21 0.605286 -14.4941 -13.7699 -4 -24.1079V-383.771Z" fill="#FCCB4E"/>
</svg>
