<svg width="390" height="316" viewBox="0 0 390 316" fill="none" xmlns="http://www.w3.org/2000/svg">
<path fill-rule="evenodd" clip-rule="evenodd" d="M-4 -384.271C-13.7678 -386.725 -21 -395.564 -21 -406.093V-650.216C-21 -667.89 -6.67311 -682.216 11 -682.216C28.6731 -682.216 43 -667.89 43 -650.216V-518.4C43 -510.668 49.268 -504.4 57 -504.4C64.732 -504.4 71 -510.668 71 -518.4V-528.907C71 -536.362 77.0442 -542.407 84.5 -542.407C91.9558 -542.407 98 -536.362 98 -528.907V-487.752C98 -481.953 102.701 -477.252 108.5 -477.252C114.299 -477.252 119 -481.953 119 -487.752V-693.508C119 -706.763 129.745 -717.508 143 -717.508C156.255 -717.508 167 -706.763 167 -693.508V-572.836C167 -559.029 178.193 -547.836 192 -547.836C205.807 -547.836 217 -559.029 217 -572.836V-613.639C217 -633.522 233.118 -649.639 253 -649.639C272.882 -649.639 289 -633.522 289 -613.639V-586.584C289 -575.538 297.954 -566.584 309 -566.584C320.046 -566.584 329 -575.538 329 -586.584V-714.084C329 -728.719 340.864 -740.584 355.5 -740.584C370.136 -740.584 382 -728.719 382 -714.084V-577.084C382 -571.285 386.701 -566.584 392.5 -566.584C398.299 -566.584 403 -561.883 403 -556.084V-440.584C403 -424.689 396.494 -410.314 386 -399.976V-40.3131C395.768 -37.8591 403 -29.0192 403 -18.4902V225.633C403 243.306 388.673 257.633 371 257.633C353.327 257.633 339 243.306 339 225.633V93.8164C339 86.0844 332.732 79.8164 325 79.8164C317.268 79.8164 311 86.0844 311 93.8164V104.323C311 111.779 304.956 117.823 297.5 117.823C290.044 117.823 284 111.779 284 104.323V63.1689C284 57.3699 279.299 52.6688 273.5 52.6688C267.701 52.6688 263 57.3699 263 63.1688V268.925C263 282.179 252.255 292.925 239 292.925C225.745 292.925 215 282.179 215 268.925V148.252C215 134.445 203.807 123.252 190 123.252C176.193 123.252 165 134.445 165 148.252V189.056C165 208.938 148.882 225.056 129 225.056C109.118 225.056 93 208.938 93 189.056V162C93 150.954 84.0457 142 73 142C61.9543 142 53 150.954 53 162V289.5C53 304.135 41.1355 316 26.5 316C11.8645 316 0 304.135 0 289.5V152.5C0 146.701 -4.70101 142 -10.5 142C-16.299 142 -21 137.299 -21 131.5V16C-21 0.105286 -14.4941 -14.2699 -4 -24.6079V-384.271Z" fill="#FCCB4E"/>
</svg>
