<svg width="28" height="28" viewBox="0 0 28 28" fill="none" xmlns="http://www.w3.org/2000/svg">
<path d="M5.83333 11.666C4.55 11.666 3.5 12.716 3.5 13.9993C3.5 15.2827 4.55 16.3327 5.83333 16.3327C7.11667 16.3327 8.16667 15.2827 8.16667 13.9993C8.16667 12.716 7.11667 11.666 5.83333 11.666Z" stroke="white" stroke-width="1.5"/>
<path d="M22.1654 11.666C20.882 11.666 19.832 12.716 19.832 13.9993C19.832 15.2827 20.882 16.3327 22.1654 16.3327C23.4487 16.3327 24.4987 15.2827 24.4987 13.9993C24.4987 12.716 23.4487 11.666 22.1654 11.666Z" stroke="white" stroke-width="1.5"/>
<path d="M14.0013 11.666C12.718 11.666 11.668 12.716 11.668 13.9993C11.668 15.2827 12.718 16.3327 14.0013 16.3327C15.2846 16.3327 16.3346 15.2827 16.3346 13.9993C16.3346 12.716 15.2846 11.666 14.0013 11.666Z" stroke="white" stroke-width="1.5"/>
</svg>
