<svg width="28" height="28" viewBox="0 0 28 28" fill="none" xmlns="http://www.w3.org/2000/svg">
<path d="M22.5616 16.9057L21.395 14.969C21.15 14.5373 20.9283 13.7207 20.9283 13.2423V10.2907C20.9283 7.54898 19.3183 5.18065 16.9966 4.07232C16.39 2.99898 15.27 2.33398 13.9866 2.33398C12.715 2.33398 11.5716 3.02232 10.965 4.10732C8.68997 5.23898 7.11497 7.58398 7.11497 10.2907V13.2423C7.11497 13.7207 6.89331 14.5373 6.64831 14.9573L5.46997 16.9057C5.00331 17.6873 4.89831 18.5506 5.18997 19.344C5.46997 20.1257 6.13497 20.7323 6.99831 21.024C9.26164 21.794 11.6416 22.1673 14.0216 22.1673C16.4016 22.1673 18.7816 21.794 21.045 21.0357C21.8616 20.7673 22.4916 20.149 22.795 19.344C23.0983 18.539 23.0166 17.6523 22.5616 16.9057Z" fill="white"/>
<path d="M17.3026 23.3457C16.8126 24.699 15.5176 25.6673 14.0009 25.6673C13.0793 25.6673 12.1693 25.294 11.5276 24.629C11.1543 24.279 10.8743 23.8123 10.7109 23.334C10.8626 23.3573 11.0143 23.369 11.1776 23.3923C11.4459 23.4273 11.7259 23.4623 12.0059 23.4856C12.6709 23.544 13.3476 23.579 14.0243 23.579C14.6893 23.579 15.3543 23.544 16.0076 23.4856C16.2526 23.4623 16.4976 23.4507 16.7309 23.4157C16.9176 23.3923 17.1043 23.369 17.3026 23.3457Z" fill="white"/>
</svg>
