<svg width="58" height="58" viewBox="0 0 58 58" fill="none" xmlns="http://www.w3.org/2000/svg">
<path d="M25.75 4.76314C27.7611 3.60203 30.2389 3.60203 32.25 4.76314L48.3647 14.067C50.3758 15.2281 51.6147 17.3739 51.6147 19.6962V38.3038C51.6147 40.6261 50.3758 42.7719 48.3647 43.933L32.25 53.2369C30.2389 54.398 27.7611 54.398 25.75 53.2369L9.63526 43.933C7.62416 42.7719 6.38526 40.6261 6.38526 38.3038V19.6962C6.38526 17.3739 7.62416 15.2281 9.63526 14.067L25.75 4.76314Z" fill="#FFE194" fill-opacity="0.2" stroke="#FCCB4E" stroke-width="5"/>
<path fill-rule="evenodd" clip-rule="evenodd" d="M24 24C24 21.2386 26.2386 19 29 19C31.7614 19 34 21.2386 34 24V28C34 30.7614 31.7614 33 29 33C26.2386 33 24 30.7614 24 28V24ZM29 21C27.3431 21 26 22.3431 26 24V28C26 29.6569 27.3431 31 29 31C30.6568 31 32 29.6569 32 28V24C32 22.3431 30.6568 21 29 21ZM21.4948 31.137C21.9714 30.858 22.584 31.0182 22.863 31.4948C24.0897 33.5903 26.3775 35 29 35C31.6225 35 33.9102 33.5903 35.137 31.4948C35.416 31.0182 36.0286 30.858 36.5052 31.137C36.9818 31.416 37.142 32.0286 36.863 32.5052C35.4478 34.9225 32.933 36.6272 30 36.946V39C30 39.5523 29.5523 40 29 40C28.4477 40 28 39.5523 28 39V36.946C25.0669 36.6272 22.5521 34.9225 21.137 32.5052C20.858 32.0286 21.0181 31.416 21.4948 31.137Z" fill="#FCCB4E"/>
</svg>
