<svg width="36" height="36" viewBox="0 0 36 36" fill="none" xmlns="http://www.w3.org/2000/svg">
<path d="M21.8038 11.4115L25.6077 18L21.8038 24.5885L14.1962 24.5885L10.3923 18L14.1962 11.4115L21.8038 11.4115Z" fill="#FFE194" stroke="#FCCB4E" stroke-width="18"/>
<g filter="url(#filter0_i_872_8197)">
<path d="M33.251 17.9999L25.6255 31.2076L10.3746 31.2076L2.74916 17.9999L10.3746 4.79226L25.6255 4.79226L33.251 17.9999Z" fill="#FFE194"/>
</g>
<g filter="url(#filter1_d_872_8197)">
<path fill-rule="evenodd" clip-rule="evenodd" d="M18.8439 12.0847C18.8439 11.5847 18.4386 11.1793 17.9386 11.1793C17.4386 11.1793 17.0332 11.5847 17.0332 12.0847V14.7851C17.0332 14.9166 16.9266 15.0232 16.7951 15.0232C16.6636 15.0232 16.557 14.9166 16.557 14.7851V14.3084C16.557 13.9136 16.237 13.5936 15.8422 13.5936H15.6516C15.1516 13.5936 14.7463 13.999 14.7463 14.499V20.7889C14.7463 21.289 15.1516 21.6943 15.6516 21.6943H15.7311C16.1872 21.6943 16.557 21.3245 16.557 20.8684V20.2806C16.557 20.149 16.6636 20.0424 16.7951 20.0424C16.9266 20.0424 17.0332 20.149 17.0332 20.2806V23.2033C17.0332 23.7033 17.4386 24.1087 17.9386 24.1087C18.4386 24.1087 18.8439 23.7033 18.8439 23.2033V18.8513C18.8439 18.7197 18.9506 18.613 19.0822 18.613C19.2138 18.613 19.3205 18.7197 19.3205 18.8513V21.1384C19.3205 21.6384 19.7259 22.0437 20.2259 22.0437C20.7259 22.0437 21.1313 21.6384 21.1313 21.1384V19.8362C21.1313 19.7046 21.2379 19.598 21.3695 19.598C21.5011 19.598 21.6078 19.7046 21.6078 19.8362V20.7889C21.6078 21.289 22.0132 21.6943 22.5132 21.6943C23.0132 21.6943 23.4186 21.289 23.4186 20.7889V14.499C23.4186 13.999 23.0132 13.5936 22.5132 13.5936C22.0132 13.5936 21.6078 13.999 21.6078 14.499V15.5476C21.6078 15.6792 21.5011 15.7859 21.3695 15.7859C21.2379 15.7859 21.1313 15.6792 21.1313 15.5476V13.0694C21.1313 12.5694 20.7259 12.1641 20.2259 12.1641C19.7259 12.1641 19.3205 12.5694 19.3205 13.0694V14.0861C19.3205 14.2177 19.2138 14.3244 19.0822 14.3244C18.9506 14.3244 18.8439 14.2177 18.8439 14.0861V12.0847ZM12.4586 16.5799C12.4586 16.1414 12.8141 15.7859 13.2527 15.7859H13.364C13.864 15.7859 14.2693 16.1912 14.2693 16.6912V18.5973C14.2693 19.0973 13.864 19.5027 13.364 19.5027H13.2529C12.8142 19.5027 12.4586 19.147 12.4586 18.7084V18.6446C12.4586 18.2411 12.1315 17.914 11.7281 17.914H11.2673C11.1183 17.914 10.9975 18.0348 10.9975 18.1838C10.9975 18.3328 10.8768 18.4536 10.7278 18.4536H10.4734C10.1839 18.4536 9.94922 18.2189 9.94922 17.9294V17.294C9.94922 17.0046 10.1839 16.7699 10.4734 16.7699H10.6955C10.8623 16.7699 10.9975 16.9051 10.9975 17.0719C10.9975 17.2388 11.1328 17.374 11.2996 17.374H11.7281C12.1315 17.374 12.4586 17.0469 12.4586 16.6435V16.5799ZM23.8951 16.1506C23.8951 15.6506 24.3005 15.2452 24.8005 15.2452C25.3005 15.2452 25.7059 15.6506 25.7059 16.1506V19.1368C25.7059 19.6368 25.3005 20.0421 24.8005 20.0421C24.3005 20.0421 23.8951 19.6368 23.8951 19.1368V16.1506Z" fill="#FCCB4E"/>
</g>
<defs>
<filter id="filter0_i_872_8197" x="1.74902" y="4.79224" width="31.502" height="27.4153" filterUnits="userSpaceOnUse" color-interpolation-filters="sRGB">
<feFlood flood-opacity="0" result="BackgroundImageFix"/>
<feBlend mode="normal" in="SourceGraphic" in2="BackgroundImageFix" result="shape"/>
<feColorMatrix in="SourceAlpha" type="matrix" values="0 0 0 0 0 0 0 0 0 0 0 0 0 0 0 0 0 0 127 0" result="hardAlpha"/>
<feOffset dx="-1" dy="1"/>
<feGaussianBlur stdDeviation="0.5"/>
<feComposite in2="hardAlpha" operator="arithmetic" k2="-1" k3="1"/>
<feColorMatrix type="matrix" values="0 0 0 0 0.808838 0 0 0 0 0.683871 0 0 0 0 0.363121 0 0 0 1 0"/>
<feBlend mode="normal" in2="shape" result="effect1_innerShadow_872_8197"/>
</filter>
<filter id="filter1_d_872_8197" x="7.94922" y="11.1793" width="17.7568" height="14.9294" filterUnits="userSpaceOnUse" color-interpolation-filters="sRGB">
<feFlood flood-opacity="0" result="BackgroundImageFix"/>
<feColorMatrix in="SourceAlpha" type="matrix" values="0 0 0 0 0 0 0 0 0 0 0 0 0 0 0 0 0 0 127 0" result="hardAlpha"/>
<feOffset dx="-1" dy="1"/>
<feGaussianBlur stdDeviation="0.5"/>
<feComposite in2="hardAlpha" operator="out"/>
<feColorMatrix type="matrix" values="0 0 0 0 0.790397 0 0 0 0 0.661354 0 0 0 0 0.330143 0 0 0 0.79 0"/>
<feBlend mode="normal" in2="BackgroundImageFix" result="effect1_dropShadow_872_8197"/>
<feBlend mode="normal" in="SourceGraphic" in2="effect1_dropShadow_872_8197" result="shape"/>
</filter>
</defs>
</svg>
