<svg width="118" height="131" viewBox="0 0 118 131" fill="none" xmlns="http://www.w3.org/2000/svg">
<rect width="118" height="131" rx="8" fill="#BB4DCD" fill-opacity="0.5"/>
<path d="M65.0699 45.4806L56.5099 41.2006C50.7599 38.3206 48.3999 40.6806 51.2799 46.4306L52.1499 48.1706C52.3999 48.6806 52.3999 49.2706 52.1499 49.7806L51.2799 51.5106C48.3999 57.2606 50.7499 59.6206 56.5099 56.7406L65.0699 52.4606C68.9099 50.5406 68.9099 47.4006 65.0699 45.4806ZM61.8399 49.7206H56.4399C56.0299 49.7206 55.6899 49.3806 55.6899 48.9706C55.6899 48.5606 56.0299 48.2206 56.4399 48.2206H61.8399C62.2499 48.2206 62.5899 48.5606 62.5899 48.9706C62.5899 49.3806 62.2499 49.7206 61.8399 49.7206Z" fill="white"/>
<path d="M44.2759 81.2586C44.1692 81.8559 43.9292 82.4159 43.5559 82.9386C43.1825 83.4612 42.6652 83.8826 42.0039 84.2026C41.3532 84.5226 40.5692 84.6826 39.6519 84.6826H37.7799L37.0279 88.9706H34.7719L36.7559 77.8026H40.8679C42.0092 77.8026 42.8732 78.0586 43.4599 78.5706C44.0465 79.0719 44.3399 79.7439 44.3399 80.5866C44.3399 80.8319 44.3185 81.0559 44.2759 81.2586ZM39.8759 82.9226C40.4839 82.9226 40.9639 82.7732 41.3159 82.4746C41.6679 82.1759 41.8919 81.7706 41.9879 81.2586C42.0092 81.1626 42.0199 81.0239 42.0199 80.8426C42.0199 79.9999 41.4972 79.5786 40.4519 79.5786H38.6919L38.0999 82.9226H39.8759ZM47.9743 89.1146C47.2169 89.1146 46.5449 88.9599 45.9583 88.6506C45.3823 88.3412 44.9343 87.9039 44.6143 87.3386C44.2943 86.7732 44.1343 86.1226 44.1343 85.3866C44.1343 84.3839 44.3689 83.4719 44.8383 82.6506C45.3183 81.8186 45.9689 81.1626 46.7903 80.6826C47.6223 80.2026 48.5449 79.9626 49.5583 79.9626C50.3156 79.9626 50.9876 80.1226 51.5743 80.4426C52.1716 80.7519 52.6303 81.1892 52.9503 81.7546C53.2809 82.3199 53.4463 82.9706 53.4463 83.7066C53.4463 84.7199 53.2063 85.6372 52.7263 86.4586C52.2463 87.2799 51.5849 87.9306 50.7423 88.4106C49.9103 88.8799 48.9876 89.1146 47.9743 89.1146ZM48.2783 87.1946C48.8116 87.1946 49.2969 87.0399 49.7343 86.7306C50.1716 86.4212 50.5129 86.0106 50.7583 85.4986C51.0036 84.9866 51.1263 84.4479 51.1263 83.8826C51.1263 83.2426 50.9449 82.7519 50.5823 82.4106C50.2303 82.0586 49.7823 81.8826 49.2383 81.8826C48.6943 81.8826 48.2089 82.0372 47.7823 82.3466C47.3663 82.6559 47.0409 83.0719 46.8063 83.5946C46.5716 84.1066 46.4543 84.6506 46.4543 85.2266C46.4543 85.8559 46.6196 86.3412 46.9503 86.6826C47.2916 87.0239 47.7343 87.1946 48.2783 87.1946ZM57.1814 89.1146C56.5307 89.1146 55.9387 89.0079 55.4054 88.7946C54.8827 88.5706 54.4667 88.2666 54.1574 87.8826C53.8587 87.4879 53.7094 87.0399 53.7094 86.5386C53.7094 86.4639 53.72 86.3412 53.7414 86.1706H55.9174C55.8854 86.5439 55.9974 86.8479 56.2534 87.0826C56.5094 87.3066 56.872 87.4186 57.3414 87.4186C57.768 87.4186 58.12 87.3439 58.3974 87.1946C58.6854 87.0346 58.8294 86.8052 58.8294 86.5066C58.8294 86.2399 58.696 86.0266 58.4294 85.8666C58.1734 85.7066 57.7627 85.5252 57.1974 85.3226C56.632 85.1199 56.1627 84.9226 55.7894 84.7306C55.416 84.5386 55.096 84.2719 54.8294 83.9306C54.5627 83.5892 54.4294 83.1572 54.4294 82.6346C54.4294 82.1119 54.5787 81.6479 54.8774 81.2426C55.1867 80.8372 55.6134 80.5226 56.1574 80.2986C56.7014 80.0746 57.3254 79.9626 58.0294 79.9626C58.7014 79.9626 59.2934 80.0746 59.8054 80.2986C60.3174 80.5226 60.712 80.8372 60.9894 81.2426C61.2774 81.6372 61.4214 82.0906 61.4214 82.6026C61.4214 82.7306 61.416 82.8266 61.4054 82.8906H59.3254C59.3574 82.5172 59.2507 82.2186 59.0054 81.9946C58.76 81.7706 58.4027 81.6586 57.9334 81.6586C57.5494 81.6586 57.2347 81.7439 56.9894 81.9146C56.744 82.0746 56.6214 82.2932 56.6214 82.5706C56.6214 82.8479 56.76 83.0772 57.0374 83.2586C57.3147 83.4292 57.7414 83.6212 58.3174 83.8346C58.8934 84.0586 59.352 84.2666 59.6934 84.4586C60.0454 84.6399 60.3494 84.8959 60.6054 85.2266C60.8614 85.5466 60.9894 85.9519 60.9894 86.4426C60.9894 86.9866 60.824 87.4612 60.4934 87.8666C60.1627 88.2719 59.7094 88.5812 59.1334 88.7946C58.5574 89.0079 57.9067 89.1146 57.1814 89.1146ZM65.0321 86.2346C65.0215 86.2986 65.0161 86.3839 65.0161 86.4906C65.0161 86.7039 65.0748 86.8586 65.1921 86.9546C65.3201 87.0399 65.5281 87.0826 65.8161 87.0826H66.8721L66.5361 88.9706H65.1121C63.5121 88.9706 62.7121 88.3039 62.7121 86.9706C62.7121 86.7146 62.7335 86.4639 62.7761 86.2186L63.5281 81.9466H62.4721L62.7921 80.1066H63.8641L64.2481 77.9146H66.5041L66.1201 80.1066H68.0881L67.7681 81.9466H65.7841L65.0321 86.2346ZM73.1033 79.9626C74.2339 79.9626 75.1299 80.2772 75.7913 80.9066C76.4526 81.5252 76.7833 82.3626 76.7833 83.4186C76.7833 83.7599 76.7566 84.0639 76.7033 84.3306C76.6393 84.6506 76.5699 84.9279 76.4953 85.1626H70.0153C70.0046 85.2372 69.9993 85.3439 69.9993 85.4826C69.9993 86.0372 70.1593 86.4746 70.4793 86.7946C70.8099 87.1039 71.2419 87.2586 71.7753 87.2586C72.2233 87.2586 72.6073 87.1626 72.9273 86.9706C73.2579 86.7679 73.5246 86.5066 73.7273 86.1866H76.1433C75.7486 87.0399 75.1353 87.7439 74.3033 88.2986C73.4819 88.8426 72.5486 89.1146 71.5033 89.1146C70.3726 89.1146 69.4659 88.7946 68.7833 88.1546C68.1006 87.5146 67.7593 86.6452 67.7593 85.5466C67.7593 85.2266 67.7913 84.8906 67.8553 84.5386C68.0153 83.6212 68.3406 82.8159 68.8313 82.1226C69.3326 81.4292 69.9513 80.8959 70.6873 80.5226C71.4233 80.1492 72.2286 79.9626 73.1033 79.9626ZM74.4793 83.8026C74.5006 83.6319 74.5113 83.5092 74.5113 83.4346C74.5113 82.9226 74.3459 82.5226 74.0153 82.2346C73.6846 81.9466 73.2526 81.8026 72.7193 81.8026C72.1539 81.8026 71.6473 81.9839 71.1993 82.3466C70.7513 82.6986 70.4366 83.1839 70.2553 83.8026H74.4793ZM80.5583 81.6746C80.9423 81.1412 81.3903 80.7252 81.9023 80.4266C82.4143 80.1279 82.9689 79.9786 83.5663 79.9786L83.1503 82.3306H82.5583C81.8969 82.3306 81.3636 82.4746 80.9583 82.7626C80.5636 83.0506 80.2756 83.5412 80.0943 84.2346L79.2623 88.9706H77.0063L78.5743 80.1066H80.8303L80.5583 81.6746Z" fill="white"/>
</svg>
