<svg width="118" height="132" viewBox="0 0 118 132" fill="none" xmlns="http://www.w3.org/2000/svg">
<rect width="118" height="132" rx="8" fill="#FCCB4E" fill-opacity="0.5"/>
<path d="M58.9999 54.3205C59.9001 54.3205 60.6299 53.5908 60.6299 52.6905C60.6299 51.7903 59.9001 51.0605 58.9999 51.0605C58.0996 51.0605 57.3699 51.7903 57.3699 52.6905C57.3699 53.5908 58.0996 54.3205 58.9999 54.3205Z" fill="white"/>
<path d="M65.2799 46.5006V45.2506C65.2799 42.5506 64.6299 38.9706 58.9999 38.9706C53.3699 38.9706 52.7199 42.5506 52.7199 45.2506V46.5006C49.9199 46.8506 48.9999 48.2706 48.9999 51.7606V53.6206C48.9999 57.7206 50.2499 58.9706 54.3499 58.9706H63.6499C67.7499 58.9706 68.9999 57.7206 68.9999 53.6206V51.7606C68.9999 48.2706 68.0799 46.8506 65.2799 46.5006ZM58.9999 55.7106C57.3299 55.7106 55.9799 54.3506 55.9799 52.6906C55.9799 51.0206 57.3399 49.6706 58.9999 49.6706C60.6599 49.6706 62.0199 51.0306 62.0199 52.6906C62.0199 54.3606 60.6699 55.7106 58.9999 55.7106ZM54.3499 46.4106C54.2699 46.4106 54.1999 46.4106 54.1199 46.4106V45.2506C54.1199 42.3206 54.9499 40.3706 58.9999 40.3706C63.0499 40.3706 63.8799 42.3206 63.8799 45.2506V46.4206C63.7999 46.4206 63.7299 46.4206 63.6499 46.4206H54.3499V46.4106Z" fill="white"/>
<path d="M49.2759 81.2586C49.1692 81.8559 48.9292 82.4159 48.5559 82.9386C48.1825 83.4612 47.6652 83.8826 47.0039 84.2026C46.3532 84.5226 45.5692 84.6826 44.6519 84.6826H42.7799L42.0279 88.9706H39.7719L41.7559 77.8026H45.8679C47.0092 77.8026 47.8732 78.0586 48.4599 78.5705C49.0465 79.0719 49.3399 79.7439 49.3399 80.5865C49.3399 80.8319 49.3185 81.0559 49.2759 81.2586ZM44.8759 82.9226C45.4839 82.9226 45.9639 82.7732 46.3159 82.4746C46.6679 82.1759 46.8919 81.7706 46.9879 81.2586C47.0092 81.1626 47.0199 81.0239 47.0199 80.8426C47.0199 79.9999 46.4972 79.5786 45.4519 79.5786H43.6919L43.0999 82.9226H44.8759ZM52.5583 81.6746C52.9423 81.1412 53.3903 80.7252 53.9023 80.4265C54.4143 80.1279 54.9689 79.9785 55.5663 79.9785L55.1503 82.3306H54.5583C53.8969 82.3306 53.3636 82.4746 52.9583 82.7626C52.5636 83.0506 52.2756 83.5412 52.0943 84.2346L51.2623 88.9706H49.0063L50.5743 80.1066H52.8303L52.5583 81.6746ZM57.871 79.0506C57.519 79.0506 57.2363 78.9492 57.023 78.7465C56.8097 78.5439 56.703 78.2879 56.703 77.9785C56.703 77.5519 56.863 77.1892 57.183 76.8905C57.5137 76.5812 57.8977 76.4265 58.335 76.4265C58.6763 76.4265 58.9537 76.5279 59.167 76.7305C59.3803 76.9332 59.487 77.1892 59.487 77.4986C59.487 77.9252 59.327 78.2932 59.007 78.6026C58.687 78.9012 58.3083 79.0506 57.871 79.0506ZM58.799 80.1066L57.231 88.9706H54.975L56.543 80.1066H58.799ZM62.9921 86.9066L66.4321 80.1066H68.8481L64.0001 88.9706H61.2481L59.5521 80.1066H61.9521L62.9921 86.9066ZM73.4783 79.9626C74.6089 79.9626 75.5049 80.2772 76.1663 80.9066C76.8276 81.5252 77.1583 82.3626 77.1583 83.4186C77.1583 83.7599 77.1316 84.0639 77.0783 84.3306C77.0143 84.6506 76.9449 84.9279 76.8703 85.1626H70.3903C70.3796 85.2372 70.3743 85.3439 70.3743 85.4826C70.3743 86.0372 70.5343 86.4746 70.8543 86.7946C71.1849 87.1039 71.6169 87.2586 72.1503 87.2586C72.5983 87.2586 72.9823 87.1626 73.3023 86.9706C73.6329 86.7679 73.8996 86.5066 74.1023 86.1866H76.5183C76.1236 87.0399 75.5103 87.7439 74.6783 88.2986C73.8569 88.8426 72.9236 89.1146 71.8783 89.1146C70.7476 89.1146 69.8409 88.7946 69.1583 88.1546C68.4756 87.5146 68.1343 86.6452 68.1343 85.5466C68.1343 85.2266 68.1663 84.8906 68.2303 84.5386C68.3903 83.6212 68.7156 82.8159 69.2063 82.1226C69.7076 81.4292 70.3263 80.8959 71.0623 80.5226C71.7983 80.1492 72.6036 79.9626 73.4783 79.9626ZM74.8543 83.8026C74.8756 83.6319 74.8863 83.5092 74.8863 83.4346C74.8863 82.9226 74.7209 82.5226 74.3903 82.2345C74.0596 81.9466 73.6276 81.8026 73.0943 81.8026C72.5289 81.8026 72.0223 81.9839 71.5743 82.3465C71.1263 82.6986 70.8116 83.1839 70.6303 83.8026H74.8543ZM75.6383 77.8026L71.6383 79.4825L71.9263 77.8826L75.9583 75.9785L75.6383 77.8026Z" fill="white"/>
</svg>
