<svg width="28" height="28" viewBox="0 0 28 28" fill="none" xmlns="http://www.w3.org/2000/svg">
<path fill-rule="evenodd" clip-rule="evenodd" d="M12.8334 5.66666C8.87537 5.66666 5.66675 8.87528 5.66675 12.8333C5.66675 16.7914 8.87537 20 12.8334 20C16.7915 20 20.0001 16.7914 20.0001 12.8333C20.0001 8.87528 16.7915 5.66666 12.8334 5.66666ZM3.66675 12.8333C3.66675 7.77071 7.7708 3.66666 12.8334 3.66666C17.896 3.66666 22.0001 7.77071 22.0001 12.8333C22.0001 15.0044 21.2453 16.9992 19.9839 18.5696L24.0405 22.6262C24.431 23.0167 24.431 23.6499 24.0405 24.0404C23.65 24.431 23.0168 24.431 22.6263 24.0404L18.5697 19.9838C16.9993 21.2452 15.0045 22 12.8334 22C7.7708 22 3.66675 17.8959 3.66675 12.8333Z" fill="#BB4DCD"/>
</svg>
