<svg width="25" height="25" viewBox="0 0 25 25" fill="none" xmlns="http://www.w3.org/2000/svg">
<path d="M18.5699 9.48056L10.0099 5.20056C4.2599 2.32056 1.8999 4.68056 4.7799 10.4306L5.6499 12.1706C5.8999 12.6806 5.8999 13.2706 5.6499 13.7806L4.7799 15.5106C1.8999 21.2606 4.2499 23.6206 10.0099 20.7406L18.5699 16.4606C22.4099 14.5406 22.4099 11.4006 18.5699 9.48056ZM15.3399 13.7206H9.9399C9.5299 13.7206 9.1899 13.3806 9.1899 12.9706C9.1899 12.5606 9.5299 12.2206 9.9399 12.2206H15.3399C15.7499 12.2206 16.0899 12.5606 16.0899 12.9706C16.0899 13.3806 15.7499 13.7206 15.3399 13.7206Z" fill="white"/>
</svg>
