<svg width="184" height="131" viewBox="0 0 184 131" fill="none" xmlns="http://www.w3.org/2000/svg">
<rect width="184" height="131" rx="8" fill="#FCCB4E" fill-opacity="0.5"/>
<path d="M91.9999 38.9706C86.4799 38.9706 81.9999 43.4506 81.9999 48.9706C81.9999 54.4906 86.4799 58.9706 91.9999 58.9706C97.5199 58.9706 102 54.4906 102 48.9706C102 43.4506 97.5199 38.9706 91.9999 38.9706ZM97.1899 52.9106C97.1499 53.0006 97.0999 53.0806 97.0299 53.1506L95.3399 54.8406C95.1899 54.9906 94.9999 55.0606 94.8099 55.0606C94.6199 55.0606 94.4299 54.9906 94.2799 54.8406C93.9899 54.5506 93.9899 54.0706 94.2799 53.7806L94.6899 53.3706H89.0999C87.7999 53.3706 86.7499 52.3106 86.7499 51.0206V49.2506C86.7499 48.8406 87.0899 48.5006 87.4999 48.5006C87.9099 48.5006 88.2499 48.8406 88.2499 49.2506V51.0206C88.2499 51.4906 88.6299 51.8706 89.0999 51.8706H94.6899L94.2799 51.4606C93.9899 51.1706 93.9899 50.6906 94.2799 50.4006C94.5699 50.1106 95.0499 50.1106 95.3399 50.4006L97.0299 52.0906C97.0999 52.1606 97.1499 52.2406 97.1899 52.3306C97.2699 52.5206 97.2699 52.7306 97.1899 52.9106ZM97.2499 48.6906C97.2499 49.1006 96.9099 49.4406 96.4999 49.4406C96.0899 49.4406 95.7499 49.1006 95.7499 48.6906V46.9206C95.7499 46.4506 95.3699 46.0706 94.8999 46.0706H89.3099L89.7199 46.4706C90.0099 46.7606 90.0099 47.2406 89.7199 47.5306C89.5699 47.6806 89.3799 47.7506 89.1899 47.7506C88.9999 47.7506 88.8099 47.6806 88.6599 47.5306L86.9699 45.8406C86.8999 45.7706 86.8499 45.6906 86.8099 45.6006C86.7299 45.4206 86.7299 45.2106 86.8099 45.0306C86.8499 44.9406 86.8999 44.8506 86.9699 44.7806L88.6599 43.0906C88.9499 42.8006 89.4299 42.8006 89.7199 43.0906C90.0099 43.3806 90.0099 43.8606 89.7199 44.1506L89.3099 44.5606H94.8999C96.1999 44.5606 97.2499 45.6206 97.2499 46.9106V48.6906Z" fill="white"/>
<path d="M67.7759 81.2586C67.6692 81.8559 67.4292 82.4159 67.0559 82.9386C66.6825 83.4612 66.1652 83.8826 65.5039 84.2026C64.8532 84.5226 64.0692 84.6826 63.1519 84.6826H61.2799L60.5279 88.9706H58.2719L60.2559 77.8026H64.3679C65.5092 77.8026 66.3732 78.0586 66.9599 78.5706C67.5465 79.0719 67.8399 79.7439 67.8399 80.5866C67.8399 80.8319 67.8185 81.0559 67.7759 81.2586ZM63.3759 82.9226C63.9839 82.9226 64.4639 82.7732 64.8159 82.4746C65.1679 82.1759 65.3919 81.7706 65.4879 81.2586C65.5092 81.1626 65.5199 81.0239 65.5199 80.8426C65.5199 79.9999 64.9972 79.5786 63.9519 79.5786H62.1919L61.5999 82.9226H63.3759ZM67.7303 84.5066C67.8903 83.6106 68.2049 82.8159 68.6743 82.1226C69.1543 81.4292 69.7356 80.8959 70.4183 80.5226C71.1009 80.1492 71.8209 79.9626 72.5783 79.9626C73.2396 79.9626 73.7943 80.0959 74.2423 80.3626C74.7009 80.6292 75.0369 80.9652 75.2503 81.3706L75.4743 80.1066H77.7303L76.1623 88.9706H73.9063L74.1463 87.6746C73.7943 88.0906 73.3356 88.4372 72.7703 88.7146C72.2156 88.9812 71.6076 89.1146 70.9463 89.1146C70.2956 89.1146 69.7196 88.9706 69.2183 88.6826C68.7169 88.3839 68.3276 87.9679 68.0503 87.4346C67.7729 86.8906 67.6343 86.2612 67.6343 85.5466C67.6343 85.2159 67.6663 84.8692 67.7303 84.5066ZM74.6903 84.5386C74.7329 84.2612 74.7543 84.0586 74.7543 83.9306C74.7543 83.3012 74.5676 82.8106 74.1943 82.4586C73.8316 82.1066 73.3729 81.9306 72.8183 81.9306C72.4023 81.9306 71.9969 82.0319 71.6023 82.2346C71.2183 82.4372 70.8823 82.7359 70.5943 83.1306C70.3063 83.5146 70.1143 83.9732 70.0183 84.5066C69.9863 84.7092 69.9703 84.9012 69.9703 85.0826C69.9703 85.7226 70.1516 86.2292 70.5143 86.6026C70.8769 86.9652 71.3356 87.1466 71.8903 87.1466C72.3063 87.1466 72.7116 87.0452 73.1063 86.8426C73.5009 86.6292 73.8369 86.3252 74.1143 85.9306C74.4023 85.5359 74.5943 85.0719 74.6903 84.5386ZM81.402 81.6746C81.786 81.1412 82.234 80.7252 82.746 80.4266C83.258 80.1279 83.8127 79.9786 84.41 79.9786L83.994 82.3306H83.402C82.7407 82.3306 82.2073 82.4746 81.802 82.7626C81.4073 83.0506 81.1193 83.5412 80.938 84.2346L80.106 88.9706H77.85L79.418 80.1066H81.674L81.402 81.6746ZM86.9228 86.2346C86.9121 86.2986 86.9068 86.3839 86.9068 86.4906C86.9068 86.7039 86.9654 86.8586 87.0828 86.9546C87.2108 87.0399 87.4188 87.0826 87.7068 87.0826H88.7628L88.4268 88.9706H87.0028C85.4028 88.9706 84.6028 88.3039 84.6028 86.9706C84.6028 86.7146 84.6241 86.4639 84.6668 86.2186L85.4188 81.9466H84.3628L84.6828 80.1066H85.7548L86.1388 77.9146H88.3948L88.0108 80.1066H89.9788L89.6588 81.9466H87.6748L86.9228 86.2346ZM89.7459 84.5066C89.9059 83.6106 90.2205 82.8159 90.6899 82.1226C91.1699 81.4292 91.7512 80.8959 92.4339 80.5226C93.1165 80.1492 93.8365 79.9626 94.5939 79.9626C95.2552 79.9626 95.8099 80.0959 96.2579 80.3626C96.7165 80.6292 97.0525 80.9652 97.2659 81.3706L97.4899 80.1066H99.7459L98.1779 88.9706H95.9219L96.1619 87.6746C95.8099 88.0906 95.3512 88.4372 94.7859 88.7146C94.2312 88.9812 93.6232 89.1146 92.9619 89.1146C92.3112 89.1146 91.7352 88.9706 91.2339 88.6826C90.7325 88.3839 90.3432 87.9679 90.0659 87.4346C89.7885 86.8906 89.6499 86.2612 89.6499 85.5466C89.6499 85.2159 89.6819 84.8692 89.7459 84.5066ZM96.7059 84.5386C96.7485 84.2612 96.7699 84.0586 96.7699 83.9306C96.7699 83.3012 96.5832 82.8106 96.2099 82.4586C95.8472 82.1066 95.3885 81.9306 94.8339 81.9306C94.4179 81.9306 94.0125 82.0319 93.6179 82.2346C93.2339 82.4372 92.8979 82.7359 92.6099 83.1306C92.3219 83.5146 92.1299 83.9732 92.0339 84.5066C92.0019 84.7092 91.9859 84.9012 91.9859 85.0826C91.9859 85.7226 92.1672 86.2292 92.5299 86.6026C92.8925 86.9652 93.3512 87.1466 93.9059 87.1466C94.3219 87.1466 94.7272 87.0452 95.1219 86.8426C95.5165 86.6292 95.8525 86.3252 96.1299 85.9306C96.4179 85.5359 96.6099 85.0719 96.7059 84.5386ZM104.938 79.9626C105.599 79.9626 106.159 80.0959 106.618 80.3626C107.087 80.6186 107.418 80.9546 107.61 81.3706L107.834 80.1066H110.09L108.522 89.0346C108.372 89.8559 108.074 90.5866 107.626 91.2266C107.178 91.8772 106.591 92.3892 105.866 92.7626C105.14 93.1466 104.308 93.3386 103.37 93.3386C102.122 93.3386 101.146 93.0452 100.442 92.4586C99.7483 91.8719 99.4336 91.0719 99.4976 90.0586H101.722C101.764 90.4639 101.956 90.7839 102.298 91.0186C102.65 91.2639 103.103 91.3866 103.658 91.3866C104.319 91.3866 104.879 91.1892 105.338 90.7946C105.807 90.4106 106.116 89.8239 106.266 89.0346L106.506 87.6586C106.143 88.0746 105.684 88.4212 105.13 88.6986C104.586 88.9759 103.988 89.1146 103.338 89.1146C102.687 89.1146 102.106 88.9706 101.594 88.6826C101.092 88.3839 100.698 87.9679 100.41 87.4346C100.132 86.8906 99.9936 86.2612 99.9936 85.5466C99.9936 85.2159 100.026 84.8692 100.09 84.5066C100.25 83.6106 100.564 82.8159 101.034 82.1226C101.514 81.4292 102.095 80.8959 102.778 80.5226C103.46 80.1492 104.18 79.9626 104.938 79.9626ZM107.05 84.5386C107.092 84.2612 107.114 84.0586 107.114 83.9306C107.114 83.3012 106.927 82.8106 106.554 82.4586C106.191 82.1066 105.732 81.9306 105.178 81.9306C104.762 81.9306 104.356 82.0319 103.962 82.2346C103.578 82.4372 103.242 82.7359 102.954 83.1306C102.666 83.5146 102.474 83.9732 102.378 84.5066C102.346 84.7092 102.33 84.9012 102.33 85.0826C102.33 85.7226 102.511 86.2292 102.874 86.6026C103.236 86.9652 103.695 87.1466 104.25 87.1466C104.666 87.1466 105.071 87.0452 105.466 86.8426C105.86 86.6292 106.196 86.3252 106.474 85.9306C106.762 85.5359 106.954 85.0719 107.05 84.5386ZM115.681 79.9626C116.812 79.9626 117.708 80.2772 118.369 80.9066C119.031 81.5252 119.361 82.3626 119.361 83.4186C119.361 83.7599 119.335 84.0639 119.281 84.3306C119.217 84.6506 119.148 84.9279 119.073 85.1626H112.593C112.583 85.2372 112.577 85.3439 112.577 85.4826C112.577 86.0372 112.737 86.4746 113.057 86.7946C113.388 87.1039 113.82 87.2586 114.353 87.2586C114.801 87.2586 115.185 87.1626 115.505 86.9706C115.836 86.7679 116.103 86.5066 116.305 86.1866H118.721C118.327 87.0399 117.713 87.7439 116.881 88.2986C116.06 88.8426 115.127 89.1146 114.081 89.1146C112.951 89.1146 112.044 88.7946 111.361 88.1546C110.679 87.5146 110.337 86.6452 110.337 85.5466C110.337 85.2266 110.369 84.8906 110.433 84.5386C110.593 83.6212 110.919 82.8159 111.409 82.1226C111.911 81.4292 112.529 80.8959 113.265 80.5226C114.001 80.1492 114.807 79.9626 115.681 79.9626ZM117.057 83.8026C117.079 83.6319 117.089 83.5092 117.089 83.4346C117.089 82.9226 116.924 82.5226 116.593 82.2346C116.263 81.9466 115.831 81.8026 115.297 81.8026C114.732 81.8026 114.225 81.9839 113.777 82.3466C113.329 82.6986 113.015 83.1839 112.833 83.8026H117.057ZM123.136 81.6746C123.52 81.1412 123.968 80.7252 124.48 80.4266C124.992 80.1279 125.547 79.9786 126.144 79.9786L125.728 82.3306H125.136C124.475 82.3306 123.942 82.4746 123.536 82.7626C123.142 83.0506 122.854 83.5412 122.672 84.2346L121.84 88.9706H119.584L121.152 80.1066H123.408L123.136 81.6746Z" fill="white"/>
</svg>
