<svg width="184" height="131" viewBox="0 0 184 131" fill="none" xmlns="http://www.w3.org/2000/svg">
<rect width="184" height="131" rx="8" fill="#FCCB4E" fill-opacity="0.5"/>
<path d="M96.1899 38.9706H87.8099C84.1699 38.9706 81.9999 41.1406 81.9999 44.7806V53.1506C81.9999 56.8006 84.1699 58.9706 87.8099 58.9706H96.1799C99.8199 58.9706 101.99 56.8006 101.99 53.1606V44.7806C102 41.1406 99.8299 38.9706 96.1899 38.9706ZM86.4999 49.5406H89.2699C89.6799 49.5406 90.0199 49.8806 90.0199 50.2906C90.0199 50.7006 89.6799 51.0406 89.2699 51.0406H86.4999C86.0899 51.0406 85.7499 50.7006 85.7499 50.2906C85.7499 49.8806 86.0899 49.5406 86.4999 49.5406ZM92.9699 54.8006H86.4999C86.0899 54.8006 85.7499 54.4606 85.7499 54.0506C85.7499 53.6406 86.0899 53.3006 86.4999 53.3006H92.9699C93.3799 53.3006 93.7199 53.6406 93.7199 54.0506C93.7199 54.4606 93.3899 54.8006 92.9699 54.8006ZM97.4999 54.8006H95.6499C95.2399 54.8006 94.8999 54.4606 94.8999 54.0506C94.8999 53.6406 95.2399 53.3006 95.6499 53.3006H97.4999C97.9099 53.3006 98.2499 53.6406 98.2499 54.0506C98.2499 54.4606 97.9099 54.8006 97.4999 54.8006ZM97.4999 51.0406H91.9699C91.5599 51.0406 91.2199 50.7006 91.2199 50.2906C91.2199 49.8806 91.5599 49.5406 91.9699 49.5406H97.4999C97.9099 49.5406 98.2499 49.8806 98.2499 50.2906C98.2499 50.7006 97.9099 51.0406 97.4999 51.0406Z" fill="white"/>
<path d="M53.5119 89.0826C52.3919 89.0826 51.4692 88.8319 50.7439 88.3306C50.0292 87.8186 49.6719 87.1039 49.6719 86.1866C49.6719 86.0906 49.6825 85.9466 49.7039 85.7546H51.9919C51.9492 86.2026 52.0665 86.5706 52.3439 86.8586C52.6319 87.1466 53.0479 87.2906 53.5919 87.2906C54.1359 87.2906 54.5625 87.1786 54.8719 86.9546C55.1919 86.7199 55.3519 86.3892 55.3519 85.9626C55.3519 85.5679 55.1865 85.2532 54.8559 85.0186C54.5359 84.7839 54.0292 84.5226 53.3359 84.2346C52.6959 83.9679 52.1732 83.7226 51.7679 83.4986C51.3732 83.2746 51.0319 82.9652 50.7439 82.5706C50.4665 82.1652 50.3279 81.6586 50.3279 81.0506C50.3279 80.3572 50.5039 79.7546 50.8559 79.2426C51.2185 78.7306 51.7092 78.3359 52.3279 78.0586C52.9572 77.7812 53.6719 77.6426 54.4719 77.6426C55.2612 77.6426 55.9439 77.7759 56.5199 78.0426C57.1065 78.2986 57.5439 78.6666 57.8319 79.1466C58.1305 79.6266 58.2585 80.1866 58.2159 80.8266H55.8319L55.8479 80.6506C55.8479 80.2986 55.7145 80.0106 55.4479 79.7866C55.1919 79.5626 54.8292 79.4506 54.3599 79.4506C53.8585 79.4506 53.4532 79.5679 53.1439 79.8026C52.8345 80.0372 52.6799 80.3572 52.6799 80.7626C52.6799 81.0292 52.7652 81.2639 52.9359 81.4666C53.1172 81.6586 53.3359 81.8292 53.5919 81.9786C53.8479 82.1172 54.2159 82.2986 54.6959 82.5226C55.3252 82.7999 55.8425 83.0612 56.2479 83.3066C56.6532 83.5519 56.9999 83.8772 57.2879 84.2826C57.5759 84.6879 57.7199 85.1839 57.7199 85.7706C57.7199 86.4106 57.5439 86.9812 57.1919 87.4826C56.8505 87.9839 56.3599 88.3786 55.7199 88.6666C55.0905 88.9439 54.3545 89.0826 53.5119 89.0826ZM62.5055 89.1146C61.7482 89.1146 61.0762 88.9599 60.4895 88.6506C59.9135 88.3412 59.4655 87.9039 59.1455 87.3386C58.8255 86.7732 58.6655 86.1226 58.6655 85.3866C58.6655 84.3839 58.9002 83.4719 59.3695 82.6506C59.8495 81.8186 60.5002 81.1626 61.3215 80.6826C62.1535 80.2026 63.0762 79.9626 64.0895 79.9626C64.8468 79.9626 65.5188 80.1226 66.1055 80.4426C66.7028 80.7519 67.1615 81.1892 67.4815 81.7546C67.8122 82.3199 67.9775 82.9706 67.9775 83.7066C67.9775 84.7199 67.7375 85.6372 67.2575 86.4586C66.7775 87.2799 66.1162 87.9306 65.2735 88.4106C64.4415 88.8799 63.5188 89.1146 62.5055 89.1146ZM62.8095 87.1946C63.3428 87.1946 63.8282 87.0399 64.2655 86.7306C64.7028 86.4212 65.0442 86.0106 65.2895 85.4986C65.5348 84.9866 65.6575 84.4479 65.6575 83.8826C65.6575 83.2426 65.4762 82.7519 65.1135 82.4106C64.7615 82.0586 64.3135 81.8826 63.7695 81.8826C63.2255 81.8826 62.7402 82.0372 62.3135 82.3466C61.8975 82.6559 61.5722 83.0719 61.3375 83.5946C61.1028 84.1066 60.9855 84.6506 60.9855 85.2266C60.9855 85.8559 61.1508 86.3412 61.4815 86.6826C61.8228 87.0239 62.2655 87.1946 62.8095 87.1946ZM78.1766 80.1066L76.6086 88.9706H74.3686L74.5606 87.8506C74.2193 88.2346 73.798 88.5386 73.2966 88.7626C72.7953 88.9759 72.2673 89.0826 71.7126 89.0826C70.7953 89.0826 70.07 88.8372 69.5366 88.3466C69.0033 87.8452 68.7366 87.1359 68.7366 86.2186C68.7366 85.8772 68.7633 85.5732 68.8166 85.3066L69.7286 80.1066H71.9686L71.1046 84.9866C71.0726 85.1786 71.0566 85.3652 71.0566 85.5466C71.0566 86.0692 71.2006 86.4746 71.4886 86.7626C71.7766 87.0399 72.182 87.1786 72.7046 87.1786C73.3126 87.1786 73.83 86.9919 74.2566 86.6186C74.6833 86.2346 74.9553 85.6906 75.0726 84.9866L75.9366 80.1066H78.1766ZM81.7908 89.1146C81.1401 89.1146 80.5481 89.0079 80.0148 88.7946C79.4921 88.5706 79.0761 88.2666 78.7668 87.8826C78.4681 87.4879 78.3188 87.0399 78.3188 86.5386C78.3188 86.4639 78.3294 86.3412 78.3508 86.1706H80.5268C80.4948 86.5439 80.6068 86.8479 80.8628 87.0826C81.1188 87.3066 81.4814 87.4186 81.9508 87.4186C82.3774 87.4186 82.7294 87.3439 83.0068 87.1946C83.2948 87.0346 83.4388 86.8052 83.4388 86.5066C83.4388 86.2399 83.3054 86.0266 83.0388 85.8666C82.7828 85.7066 82.3721 85.5252 81.8068 85.3226C81.2414 85.1199 80.7721 84.9226 80.3988 84.7306C80.0254 84.5386 79.7054 84.2719 79.4388 83.9306C79.1721 83.5892 79.0388 83.1572 79.0388 82.6346C79.0388 82.1119 79.1881 81.6479 79.4868 81.2426C79.7961 80.8372 80.2228 80.5226 80.7668 80.2986C81.3108 80.0746 81.9348 79.9626 82.6388 79.9626C83.3108 79.9626 83.9028 80.0746 84.4148 80.2986C84.9268 80.5226 85.3214 80.8372 85.5988 81.2426C85.8868 81.6372 86.0308 82.0906 86.0308 82.6026C86.0308 82.7306 86.0254 82.8266 86.0148 82.8906H83.9348C83.9668 82.5172 83.8601 82.2186 83.6148 81.9946C83.3694 81.7706 83.0121 81.6586 82.5428 81.6586C82.1588 81.6586 81.8441 81.7439 81.5988 81.9146C81.3534 82.0746 81.2308 82.2932 81.2308 82.5706C81.2308 82.8479 81.3694 83.0772 81.6468 83.2586C81.9241 83.4292 82.3508 83.6212 82.9268 83.8346C83.5028 84.0586 83.9614 84.2666 84.3028 84.4586C84.6548 84.6399 84.9588 84.8959 85.2148 85.2266C85.4708 85.5466 85.5988 85.9519 85.5988 86.4426C85.5988 86.9866 85.4334 87.4612 85.1028 87.8666C84.7721 88.2719 84.3188 88.5812 83.7428 88.7946C83.1668 89.0079 82.5161 89.1146 81.7908 89.1146ZM94.5535 82.3146L94.2175 84.2026H87.4175L87.7535 82.3146H94.5535ZM98.4696 86.2346C98.459 86.2986 98.4536 86.3839 98.4536 86.4906C98.4536 86.7039 98.5123 86.8586 98.6296 86.9546C98.7576 87.0399 98.9656 87.0826 99.2536 87.0826H100.31L99.9736 88.9706H98.5496C96.9496 88.9706 96.1496 88.3039 96.1496 86.9706C96.1496 86.7146 96.171 86.4639 96.2136 86.2186L96.9656 81.9466H95.9096L96.2296 80.1066H97.3016L97.6856 77.9146H99.9416L99.5576 80.1066H101.526L101.206 81.9466H99.2216L98.4696 86.2346ZM103.965 79.0506C103.613 79.0506 103.33 78.9492 103.117 78.7466C102.903 78.5439 102.797 78.2879 102.797 77.9786C102.797 77.5519 102.957 77.1892 103.277 76.8906C103.607 76.5812 103.991 76.4266 104.429 76.4266C104.77 76.4266 105.047 76.5279 105.261 76.7306C105.474 76.9332 105.581 77.1892 105.581 77.4986C105.581 77.9252 105.421 78.2932 105.101 78.6026C104.781 78.9012 104.402 79.0506 103.965 79.0506ZM104.893 80.1066L103.325 88.9706H101.069L102.637 80.1066H104.893ZM108.126 86.2346C108.115 86.2986 108.11 86.3839 108.11 86.4906C108.11 86.7039 108.169 86.8586 108.286 86.9546C108.414 87.0399 108.622 87.0826 108.91 87.0826H109.966L109.63 88.9706H108.206C106.606 88.9706 105.806 88.3039 105.806 86.9706C105.806 86.7146 105.827 86.4639 105.87 86.2186L106.622 81.9466H105.566L105.886 80.1066H106.958L107.342 77.9146H109.598L109.214 80.1066H111.182L110.862 81.9466H108.878L108.126 86.2346ZM114.277 81.6746C114.661 81.1412 115.109 80.7252 115.621 80.4266C116.133 80.1279 116.688 79.9786 117.285 79.9786L116.869 82.3306H116.277C115.616 82.3306 115.082 82.4746 114.677 82.7626C114.282 83.0506 113.994 83.5412 113.813 84.2346L112.981 88.9706H110.725L112.293 80.1066H114.549L114.277 81.6746ZM122.166 79.9626C123.296 79.9626 124.192 80.2772 124.854 80.9066C125.515 81.5252 125.846 82.3626 125.846 83.4186C125.846 83.7599 125.819 84.0639 125.766 84.3306C125.702 84.6506 125.632 84.9279 125.558 85.1626H119.078C119.067 85.2372 119.062 85.3439 119.062 85.4826C119.062 86.0372 119.222 86.4746 119.542 86.7946C119.872 87.1039 120.304 87.2586 120.838 87.2586C121.286 87.2586 121.67 87.1626 121.99 86.9706C122.32 86.7679 122.587 86.5066 122.79 86.1866H125.206C124.811 87.0399 124.198 87.7439 123.366 88.2986C122.544 88.8426 121.611 89.1146 120.566 89.1146C119.435 89.1146 118.528 88.7946 117.846 88.1546C117.163 87.5146 116.822 86.6452 116.822 85.5466C116.822 85.2266 116.854 84.8906 116.918 84.5386C117.078 83.6212 117.403 82.8159 117.894 82.1226C118.395 81.4292 119.014 80.8959 119.75 80.5226C120.486 80.1492 121.291 79.9626 122.166 79.9626ZM123.542 83.8026C123.563 83.6319 123.574 83.5092 123.574 83.4346C123.574 82.9226 123.408 82.5226 123.078 82.2346C122.747 81.9466 122.315 81.8026 121.782 81.8026C121.216 81.8026 120.71 81.9839 120.262 82.3466C119.814 82.6986 119.499 83.1839 119.318 83.8026H123.542ZM129.541 89.1146C128.89 89.1146 128.298 89.0079 127.765 88.7946C127.242 88.5706 126.826 88.2666 126.517 87.8826C126.218 87.4879 126.069 87.0399 126.069 86.5386C126.069 86.4639 126.079 86.3412 126.101 86.1706H128.277C128.245 86.5439 128.357 86.8479 128.613 87.0826C128.869 87.3066 129.231 87.4186 129.701 87.4186C130.127 87.4186 130.479 87.3439 130.757 87.1946C131.045 87.0346 131.189 86.8052 131.189 86.5066C131.189 86.2399 131.055 86.0266 130.789 85.8666C130.533 85.7066 130.122 85.5252 129.557 85.3226C128.991 85.1199 128.522 84.9226 128.149 84.7306C127.775 84.5386 127.455 84.2719 127.189 83.9306C126.922 83.5892 126.789 83.1572 126.789 82.6346C126.789 82.1119 126.938 81.6479 127.237 81.2426C127.546 80.8372 127.973 80.5226 128.517 80.2986C129.061 80.0746 129.685 79.9626 130.389 79.9626C131.061 79.9626 131.653 80.0746 132.165 80.2986C132.677 80.5226 133.071 80.8372 133.349 81.2426C133.637 81.6372 133.781 82.0906 133.781 82.6026C133.781 82.7306 133.775 82.8266 133.765 82.8906H131.685C131.717 82.5172 131.61 82.2186 131.365 81.9946C131.119 81.7706 130.762 81.6586 130.293 81.6586C129.909 81.6586 129.594 81.7439 129.349 81.9146C129.103 82.0746 128.981 82.2932 128.981 82.5706C128.981 82.8479 129.119 83.0772 129.397 83.2586C129.674 83.4292 130.101 83.6212 130.677 83.8346C131.253 84.0586 131.711 84.2666 132.053 84.4586C132.405 84.6399 132.709 84.8959 132.965 85.2266C133.221 85.5466 133.349 85.9519 133.349 86.4426C133.349 86.9866 133.183 87.4612 132.853 87.8666C132.522 88.2719 132.069 88.5812 131.493 88.7946C130.917 89.0079 130.266 89.1146 129.541 89.1146Z" fill="white"/>
</svg>
