<svg width="40" height="40" viewBox="0 0 40 40" fill="none" xmlns="http://www.w3.org/2000/svg">
<path d="M32.5162 9.75016L22.6162 4.0335C20.9995 3.10016 18.9995 3.10016 17.3662 4.0335L7.48288 9.75016C5.86621 10.6835 4.86621 12.4168 4.86621 14.3002V25.7002C4.86621 27.5668 5.86621 29.3002 7.48288 30.2502L17.3829 35.9668C18.9995 36.9002 20.9995 36.9002 22.6329 35.9668L32.5329 30.2502C34.1495 29.3168 35.1495 27.5835 35.1495 25.7002V14.3002C35.1329 12.4168 34.1329 10.7002 32.5162 9.75016ZM19.9995 12.2335C22.1495 12.2335 23.8829 13.9668 23.8829 16.1168C23.8829 18.2668 22.1495 20.0002 19.9995 20.0002C17.8495 20.0002 16.1162 18.2668 16.1162 16.1168C16.1162 13.9835 17.8495 12.2335 19.9995 12.2335ZM24.4662 27.7668H15.5329C14.1829 27.7668 13.3995 26.2668 14.1495 25.1502C15.2829 23.4668 17.4829 22.3335 19.9995 22.3335C22.5162 22.3335 24.7162 23.4668 25.8495 25.1502C26.5995 26.2502 25.7995 27.7668 24.4662 27.7668Z" fill="white"/>
</svg>
